{
.appVersion = "1286";
copyright = "Copyright 2017 Google Inc. All Rights Reserved.";
customParameters = (
{
name = openTypeOS2VendorID;
value = GOOG;
},
{
name = glyphOrder;
value = (
.notdef,
NULL,
CR,
space,
uni0980,
candrabindubeng,
anusvarabeng,
visargabeng,
abeng,
aabeng,
ibeng,
iibeng,
ubeng,
uubeng,
rvocalicbeng,
lvocalicbeng,
ebeng,
aibeng,
obeng,
aubeng,
kabeng,
khabeng,
gabeng,
ghabeng,
ngabeng,
cabeng,
chabeng,
jabeng,
jhabeng,
nyabeng,
ttabeng,
tthabeng,
ddabeng,
ddhabeng,
nnabeng,
tabeng,
thabeng,
dabeng,
dhabeng,
nabeng,
pabeng,
phabeng,
babeng,
bhabeng,
mabeng,
yabeng,
rabeng,
labeng,
shabeng,
ssabeng,
sabeng,
habeng,
nuktabeng,
avagrahabeng,
aavowelsignbeng,
ivowelsignbeng,
iivowelsignbeng,
uvowelsignbeng,
uuvowelsignbeng,
rvocalicvowelsignbeng,
rrvocalicvowelsignbeng,
evowelsignbeng,
aivowelsignbeng,
ovowelsignbeng,
auvowelsignbeng,
viramabeng,
khandatabeng,
aulengthmarkbeng,
rrabeng,
rhabeng,
yyabeng,
rrvocalicbeng,
llvocalicbeng,
lvocalicvowelsignbeng,
llvocalicvowelsignbeng,
zerobeng,
onebeng,
twobeng,
threebeng,
fourbeng,
fivebeng,
sixbeng,
sevenbeng,
eightbeng,
ninebeng,
ra1beng,
wabeng,
rupeemarkbeng,
rupeesignbeng,
uni09F4,
uni09F5,
uni09F6,
uni09F7,
uni09F8,
uni09F9,
issharbeng,
uni09FB,
uni09FC,
uni09FD,
uni09FE,
kanuktabeng,
khanuktabeng,
ganuktabeng,
ghanuktabeng,
nganuktabeng,
canuktabeng,
chanuktabeng,
januktabeng,
jhanuktabeng,
nyanuktabeng,
ttanuktabeng,
tthanuktabeng,
nnanuktabeng,
tanuktabeng,
thanuktabeng,
danuktabeng,
dhanuktabeng,
nanuktabeng,
panuktabeng,
phanuktabeng,
bhanuktabeng,
manuktabeng,
lanuktabeng,
shanuktabeng,
ssanuktabeng,
sanuktabeng,
hanuktabeng,
ra1nuktabeng,
wanuktabeng,
kassabeng,
janyabeng,
rephbeng,
vattubeng,
basubscriptbeng,
kahalfbeng,
khahalfbeng,
gahalfbeng,
ghahalfbeng,
ngahalfbeng,
cahalfbeng,
chahalfbeng,
jahalfbeng,
jhahalfbeng,
nyahalfbeng,
ttahalfbeng,
tthahalfbeng,
ddahalfbeng,
ddhahalfbeng,
nnahalfbeng,
tahalfbeng,
thahalfbeng,
dahalfbeng,
dhahalfbeng,
nahalfbeng,
pahalfbeng,
phahalfbeng,

glyphs = (
{
glyphname = .notdef;
lastChange = "2020-04-14 07:50:44 +0000";
layers = (
{
layerId = "8680C114-EF70-46E9-96FB-C90A78B2DAE0";
paths = (
{
closed = 1;
nodes = (
"505 0 LINE",
"505 714 LINE",
"94 714 LINE",
"94 0 LINE"
);
},
{
closed = 1;
nodes = (
"145 663 LINE",
"454 663 LINE",
"454 51 LINE",
"145 51 LINE"
);
}
);
width = 600;
},
{
layerId = UUID0;
paths = (
{
closed = 1;
nodes = (
"505 0 LINE",
"505 714 LINE",
"94 714 LINE",
"94 0 LINE"
);
},
{
closed = 1;
nodes = (
"145 663 LINE",
"454 663 LINE",
"454 51 LINE",
"145 51 LINE"
);
}
);
width = 600;
},
{
layerId = "46A56A9B-0135-45C3-BDA6-6C6C4BC92BD5";
paths = (
{
closed = 1;
nodes = (
"505 0 LINE",
"505 714 LINE",
"94 714 LINE",
"94 0 LINE"
);
},
{
closed = 1;
nodes = (
"145 663 LINE",
"454 663 LINE",
"454 51 LINE",
"145 51 LINE"
);
}
);
width = 600;
},
{
layerId = "22409DE3-74E9-441F-9C04-63D5519B89AC";
paths = (
{
closed = 1;
nodes = (
"505 0 LINE",
"505 714 LINE",
"94 714 LINE",
"94 0 LINE"
);
},
{
closed = 1;
nodes = (
"145 663 LINE",
"454 663 LINE",
"454 51 LINE",
"145 51 LINE"
);
}
);
width = 600;
},
{
layerId = "F0143EB7-DEA3-4B38-8B70-DEA25CF19AA9";
paths = (
{
closed = 1;
nodes = (
"505 0 LINE",
"505 714 LINE",
"94 714 LINE",
"94 0 LINE"
);
},
{
closed = 1;
nodes = (
"145 663 LINE",
"454 663 LINE",
"454 51 LINE",
"145 51 LINE"
);
}
);
width = 600;
}
);
},
{
glyphname = uni0980;
lastChange = "2020-04-14 07:51:14 +0000";
layers = (
{
layerId = "8680C114-EF70-46E9-96FB-C90A78B2DAE0";
paths = (
{
closed = 1;
nodes = (
"330 376 LINE",
"311 370 OFFCURVE",
"292 367 OFFCURVE",
"268 367 CURVE SMOOTH",
"216 367 OFFCURVE",
"183 383 OFFCURVE",
"183 439 CURVE SMOOTH",
"183 497 OFFCURVE",
"232 548 OFFCURVE",
"297 548 CURVE SMOOTH",
"319 548 OFFCURVE",
"336 543 OFFCURVE",
"346 532 CURVE SMOOTH",
"359 519 OFFCURVE",
"362 501 OFFCURVE",
"362 456 CURVE SMOOTH",
"362 115 LINE SMOOTH",
"362 -30 OFFCURVE",
"424 -44 OFFCURVE",
"556 -49 CURVE",
"569 73 LINE",
"506 75 OFFCURVE",
"496 90 OFFCURVE",
"496 146 CURVE SMOOTH",
"496 482 LINE SMOOTH",
"496 563 OFFCURVE",
"477 594 OFFCURVE",
"445 621 CURVE SMOOTH",
"413 648 OFFCURVE",
"365 659 OFFCURVE",
"311 659 CURVE SMOOTH",
"162 659 OFFCURVE",
"46 567 OFFCURVE",
"46 431 CURVE SMOOTH",
"46 321 OFFCURVE",
"112 254 OFFCURVE",
"258 254 CURVE SMOOTH",
"289 254 OFFCURVE",
"321 258 OFFCURVE",
"350 264 CURVE"
);
}
);
width = 586;
},
{
layerId = UUID0;
paths = (
{
closed = 1;
nodes = (
"331 363 LINE",
"305 354 OFFCURVE",
"278 350 OFFCURVE",
"244 350 CURVE SMOOTH",
"182 350 OFFCURVE",
"131 372 OFFCURVE",
"131 438 CURVE SMOOTH",
"131 520 OFFCURVE",
"205 588 OFFCURVE",
"280 588 CURVE SMOOTH",
"310 588 OFFCURVE",
"331 581 OFFCURVE",
"344 567 CURVE SMOOTH",
"362 549 OFFCURVE",
"365 525 OFFCURVE",
"365 476 CURVE SMOOTH",
"365 98 LINE SMOOTH",
"365 -1 OFFCURVE",
"385 -47 OFFCURVE",
"519 -49 CURVE",
"526 29 LINE",
"458 30 OFFCURVE",
"444 35 OFFCURVE",
"444 108 CURVE SMOOTH",
"444 493 LINE SMOOTH",
"444 568 OFFCURVE",
"427 597 OFFCURVE",
"399 623 CURVE SMOOTH",
"370 649 OFFCURVE",
"329 660 OFFCURVE",
"281 660 CURVE SMOOTH",
"161 660 OFFCURVE",
"49 566 OFFCURVE",
"49 444 CURVE SMOOTH",
"49 339 OFFCURVE",
"115 275 OFFCURVE",
"246 275 CURVE SMOOTH",
"279 275 OFFCURVE",
"314 280 OFFCURVE",
"349 290 CURVE"
);
}
);
width = 540;
},
{
layerId = "46A56A9B-0135-45C3-BDA6-6C6C4BC92BD5";
paths = (
{
closed = 1;
nodes = (
"340 344 LINE",
"306 333 OFFCURVE",
"273 326 OFFCURVE",
"231 326 CURVE SMOOTH",
"144 326 OFFCURVE",
"84 352 OFFCURVE",
"84 447 CURVE SMOOTH",
"84 548 OFFCURVE",
"175 634 OFFCURVE",
"264 634 CURVE SMOOTH",
"298 634 OFFCURVE",
"323 625 OFFCURVE",
"340 608 CURVE SMOOTH",
"363 585 OFFCURVE",
"372 552 OFFCURVE",
"372 487 CURVE SMOOTH",
"372 75 LINE SMOOTH",
"372 -11 OFFCURVE",
"391 -47 OFFCURVE",
"493 -49 CURVE",
"496 -23 LINE",
"412 -22 OFFCURVE",
"398 -5 OFFCURVE",
"398 78 CURVE SMOOTH",
"398 498 LINE SMOOTH",
"398 569 OFFCURVE",
"383 605 OFFCURVE",
"353 631 CURVE SMOOTH",
"331 650 OFFCURVE",
"301 660 OFFCURVE",
"264 660 CURVE SMOOTH",
"162 660 OFFCURVE",
"57 562 OFFCURVE",
"57 448 CURVE SMOOTH",
"57 345 OFFCURVE",
"120 300 OFFCURVE",
"230 300 CURVE SMOOTH",
"275 300 OFFCURVE",
"308 307 OFFCURVE",
"347 319 CURVE"
);
}
);
width = 504;
},
{
layerId = "22409DE3-74E9-441F-9C04-63D5519B89AC";
paths = (
{
closed = 1;
nodes = (
"330 388 LINE",
"316 384 OFFCURVE",
"302 382 OFFCURVE",
"285 382 CURVE SMOOTH",
"238 382 OFFCURVE",
"223 400 OFFCURVE",
"223 433 CURVE SMOOTH",
"223 484 OFFCURVE",
"263 520 OFFCURVE",
"309 520 CURVE SMOOTH",
"325 520 OFFCURVE",
"338 516 OFFCURVE",
"346 508 CURVE SMOOTH",
"355 498 OFFCURVE",
"359 485 OFFCURVE",
"359 443 CURVE SMOOTH",
"359 128 LINE SMOOTH",
"359 -40 OFFCURVE",
"469 -45 OFFCURVE",
"588 -49 CURVE",
"604 103 LINE",
"540 106 OFFCURVE",
"537 128 OFFCURVE",
"537 171 CURVE SMOOTH",
"537 456 LINE SMOOTH",
"537 538 OFFCURVE",
"515 584 OFFCURVE",
"478 615 CURVE SMOOTH",
"441 646 OFFCURVE",
"389 660 OFFCURVE",
"327 660 CURVE SMOOTH",
"166 660 OFFCURVE",
"42 565 OFFCURVE",
"42 418 CURVE SMOOTH",
"42 309 OFFCURVE",
"114 240 OFFCURVE",
"266 240 CURVE SMOOTH",
"296 240 OFFCURVE",
"323 243 OFFCURVE",
"349 248 CURVE"
);
}
);
width = 618;
},
{
layerId = "F0143EB7-DEA3-4B38-8B70-DEA25CF19AA9";
paths = (
{
closed = 1;
nodes = (
"237 355 LINE",
"218 349 OFFCURVE",
"201 348 OFFCURVE",
"184 348 CURVE SMOOTH",
"139 348 OFFCURVE",
"112 362 OFFCURVE",
"112 435 CURVE SMOOTH",
"112 521 OFFCURVE",
"160 591 OFFCURVE",
"214 591 CURVE SMOOTH",
"229 591 OFFCURVE",
"239 587 OFFCURVE",
"246 580 CURVE SMOOTH",
"260 566 OFFCURVE",
"262 538 OFFCURVE",
"262 489 CURVE SMOOTH",
"262 97 LINE SMOOTH",
"262 1 OFFCURVE",
"284 -42 OFFCURVE",
"384 -49 CURVE",
"391 25 LINE",
"347 29 OFFCURVE",
"335 41 OFFCURVE",
"335 109 CURVE SMOOTH",
"335 502 LINE SMOOTH",
"335 571 OFFCURVE",
"326 608 OFFCURVE",
"295 635 CURVE SMOOTH",
"277 650 OFFCURVE",
"252 660 OFFCURVE",
"217 660 CURVE SMOOTH",
"118 660 OFFCURVE",
"37 562 OFFCURVE",
"37 440 CURVE SMOOTH",
"37 340 OFFCURVE",
"84 276 OFFCURVE",
"185 276 CURVE SMOOTH",
"207 276 OFFCURVE",
"229 279 OFFCURVE",
"250 284 CURVE"
);
}
);
width = 404;
}
);
unicode = 0980;
},
{
glyphname = candrabindubeng;
lastChange = "2020-04-14 07:51:14 +0000";
layers = (
{
layerId = "8680C114-EF70-46E9-96FB-C90A78B2DAE0";
paths = (
{
closed = 1;
nodes = (
"-52 887 LINE",
"-59 806 OFFCURVE",
"-91 765 OFFCURVE",
"-153 765 CURVE SMOOTH",
"-221 765 OFFCURVE",
"-247 810 OFFCURVE",
"-254 886 CURVE",
"-361 875 LINE",
"-350 761 OFFCURVE",
"-287 675 OFFCURVE",
"-149 675 CURVE SMOOTH",
"-13 675 OFFCURVE",
"45 760 OFFCURVE",
"56 876 CURVE"
);
},
{
closed = 1;
nodes = (
"-99 873 OFFCURVE",
"-118 890 OFFCURVE",
"-154 890 CURVE SMOOTH",
"-190 890 OFFCURVE",
"-207 868 OFFCURVE",
"-207 844 CURVE SMOOTH",
"-207 812 OFFCURVE",
"-188 792 OFFCURVE",
"-152 792 CURVE SMOOTH",
"-122 792 OFFCURVE",
"-99 810 OFFCURVE",
"-99 841 CURVE SMOOTH"
);
}
);
width = 0;
},
{
layerId = UUID0;
paths = (
{
closed = 1;
nodes = (
"-28 870 LINE",
"-35 792 OFFCURVE",
"-69 751 OFFCURVE",
"-135 751 CURVE SMOOTH",
"-206 751 OFFCURVE",
"-234 795 OFFCURVE",
"-241 869 CURVE",
"-310 860 LINE",
"-300 760 OFFCURVE",
"-247 685 OFFCURVE",
"-131 685 CURVE SMOOTH",
"-18 685 OFFCURVE",
"33 760 OFFCURVE",
"42 861 CURVE"
);
},
{
closed = 1;
nodes = (
"-90 858 OFFCURVE",
"-105 873 OFFCURVE",
"-135 873 CURVE SMOOTH",
"-165 873 OFFCURVE",
"-178 854 OFFCURVE",
"-178 833 CURVE SMOOTH",
"-178 806 OFFCURVE",
"-163 788 OFFCURVE",
"-134 788 CURVE SMOOTH",
"-109 788 OFFCURVE",
"-90 803 OFFCURVE",
"-90 830 CURVE SMOOTH"
);
}
);
width = 0;
},
{
layerId = "46A56A9B-0135-45C3-BDA6-6C6C4BC92BD5";
paths = (
{
closed = 1;
nodes = (
"5 860 LINE",
"-3 772 OFFCURVE",
"-45 728 OFFCURVE",
"-118 728 CURVE SMOOTH",
"-196 728 OFFCURVE",
"-233 775 OFFCURVE",
"-241 860 CURVE",
"-267 857 LINE",
"-257 768 OFFCURVE",
"-214 703 OFFCURVE",
"-118 703 CURVE SMOOTH",
"-30 703 OFFCURVE",
"22 760 OFFCURVE",
"31 858 CURVE"
);
},
{
closed = 1;
nodes = (
"-92 850 OFFCURVE",
"-99 864 OFFCURVE",
"-118 864 CURVE SMOOTH",
"-137 864 OFFCURVE",
"-144 850 OFFCURVE",
"-144 831 CURVE SMOOTH",
"-144 812 OFFCURVE",
"-137 798 OFFCURVE",
"-118 798 CURVE SMOOTH",
"-99 798 OFFCURVE",
"-92 812 OFFCURVE",
"-92 831 CURVE SMOOTH"
);
}
);
width = 0;
},
{
layerId = "22409DE3-74E9-441F-9C04-63D5519B89AC";
paths = (
{
closed = 1;
nodes = (
"-70 897 LINE",
"-77 812 OFFCURVE",
"-110 773 OFFCURVE",
"-167 773 CURVE SMOOTH",
"-235 773 OFFCURVE",
"-257 818 OFFCURVE",
"-264 896 CURVE",
"-397 884 LINE",
"-383 754 OFFCURVE",
"-316 664 OFFCURVE",
"-163 664 CURVE SMOOTH",
"-10 664 OFFCURVE",
"51 760 OFFCURVE",
"63 885 CURVE"
);
},
{
closed = 1;
nodes = (
"-110 878 OFFCURVE",
"-129 900 OFFCURVE",
"-169 900 CURVE SMOOTH",
"-209 900 OFFCURVE",
"-228 878 OFFCURVE",
"-228 848 CURVE SMOOTH",
"-228 818 OFFCURVE",
"-209 796 OFFCURVE",
"-169 796 CURVE SMOOTH",
"-129 796 OFFCURVE",
"-110 818 OFFCURVE",
"-110 848 CURVE SMOOTH"
);
}
);
width = 0;
},
{
layerId = "F0143EB7-DEA3-4B38-8B70-DEA25CF19AA9";
paths = (
{
closed = 1;
nodes = (
"-30 869 LINE",
"-35 791 OFFCURVE",
"-54 748 OFFCURVE",
"-105 748 CURVE SMOOTH",
"-160 748 OFFCURVE",
"-175 794 OFFCURVE",
"-180 868 CURVE",
"-243 861 LINE",
"-235 762 OFFCURVE",
"-196 685 OFFCURVE",
"-103 685 CURVE SMOOTH",
"-9 685 OFFCURVE",
"27 763 OFFCURVE",
"34 862 CURVE"
);
},
{
closed = 1;
nodes = (
"-69 857 OFFCURVE",
"-81 872 OFFCURVE",
"-105 872 CURVE SMOOTH",
"-131 872 OFFCURVE",
"-140 853 OFFCURVE",
"-140 832 CURVE SMOOTH",
"-140 806 OFFCURVE",
"-130 788 OFFCURVE",
"-105 788 CURVE SMOOTH",
"-83 788 OFFCURVE",
"-69 803 OFFCURVE",
"-69 829 CURVE SMOOTH"
);
}
);
width = 0;
}
);
unicode = 0981;
},
{
glyphname = anusvarabeng;
lastChange = "2020-04-14 07:51:14 +0000";
layers = (
{
layerId = "8680C114-EF70-46E9-96FB-C90A78B2DAE0";
paths = (
{
closed = 1;
nodes = (
"61 220 LINE",
"189 143 OFFCURVE",
"263 58 OFFCURVE",
"337 -47 CURVE",
"437 6 LINE",
"367 128 OFFCURVE",
"270 241 OFFCURVE",
"142 318 CURVE"
);
},
{
closed = 1;
nodes = (
"64 385 OFFCURVE",
"131 325 OFFCURVE",
"219 325 CURVE SMOOTH",
"307 325 OFFCURVE",
"374 386 OFFCURVE",
"374 474 CURVE SMOOTH",
"374 561 OFFCURVE",
"307 622 OFFCURVE",
"219 622 CURVE SMOOTH",
"131 622 OFFCURVE",
"64 561 OFFCURVE",
"64 474 CURVE SMOOTH"
);
},
{
closed = 1;
nodes = (
"165 505 OFFCURVE",
"188 528 OFFCURVE",
"219 528 CURVE SMOOTH",
"250 528 OFFCURVE",
"273 505 OFFCURVE",
"273 474 CURVE SMOOTH",
"273 442 OFFCURVE",
"250 419 OFFCURVE",
"219 419 CURVE SMOOTH",
"188 419 OFFCURVE",
"165 442 OFFCURVE",
"165 474 CURVE SMOOTH"
);
}
);
width = 438;
},
{
layerId = UUID0;
paths = (
{
closed = 1;
nodes = (
"73 250 LINE",
"206 168 OFFCURVE",
"276 85 OFFCURVE",
"359 -41 CURVE",
"424 -8 LINE",
"359 110 OFFCURVE",
"249 238 OFFCURVE",
"123 314 CURVE"
);
},
{
closed = 1;
nodes = (
"78 402 OFFCURVE",
"139 349 OFFCURVE",
"219 349 CURVE SMOOTH",
"299 349 OFFCURVE",
"360 403 OFFCURVE",
"360 486 CURVE SMOOTH",
"360 568 OFFCURVE",
"299 622 OFFCURVE",
"219 622 CURVE SMOOTH",
"139 622 OFFCURVE",
"78 568 OFFCURVE",
"78 486 CURVE SMOOTH"
);
},
{
closed = 1;
nodes = (
"147 529 OFFCURVE",
"177 557 OFFCURVE",
"219 557 CURVE SMOOTH",
"261 557 OFFCURVE",
"291 531 OFFCURVE",
"291 486 CURVE SMOOTH",
"291 442 OFFCURVE",
"261 414 OFFCURVE",
"219 414 CURVE SMOOTH",
"177 414 OFFCURVE",
"147 441 OFFCURVE",
"147 486 CURVE SMOOTH"
);
}
);
width = 438;
},
{
layerId = "46A56A9B-0135-45C3-BDA6-6C6C4BC92BD5";
paths = (
{
closed = 1;
nodes = (
"72 288 LINE",
"209 201 OFFCURVE",
"288 113 OFFCURVE",
"384 -34 CURVE",
"407 -22 LINE",
"323 117 OFFCURVE",
"209 237 OFFCURVE",
"87 310 CURVE"
);
},
{
closed = 1;
nodes = (
"83 419 OFFCURVE",
"135 370 OFFCURVE",
"211 370 CURVE SMOOTH",
"287 370 OFFCURVE",
"340 418 OFFCURVE",
"340 497 CURVE SMOOTH",
"340 571 OFFCURVE",
"285 622 OFFCURVE",
"211 622 CURVE SMOOTH",
"136 622 OFFCURVE",
"83 569 OFFCURVE",
"83 496 CURVE SMOOTH"
);
},
{
closed = 1;
nodes = (
"110 556 OFFCURVE",
"150 596 OFFCURVE",
"211 596 CURVE SMOOTH",
"271 596 OFFCURVE",
"313 557 OFFCURVE",
"313 496 CURVE SMOOTH",
"313 435 OFFCURVE",
"272 396 OFFCURVE",
"211 396 CURVE SMOOTH",
"151 396 OFFCURVE",
"110 432 OFFCURVE",
"110 495 CURVE SMOOTH"
);
}
);
width = 423;
},
{
layerId = "22409DE3-74E9-441F-9C04-63D5519B89AC";
paths = (
{
closed = 1;
nodes = (
"53 198 LINE",
"159 134 OFFCURVE",
"250 38 OFFCURVE",
"319 -54 CURVE",
"443 23 LINE",
"369 148 OFFCURVE",
"266 255 OFFCURVE",
"152 320 CURVE"
);
},
{
closed = 1;
nodes = (
"58 378 OFFCURVE",
"131 319 OFFCURVE",
"226 319 CURVE SMOOTH",
"322 319 OFFCURVE",
"395 378 OFFCURVE",
"395 471 CURVE SMOOTH",
"395 562 OFFCURVE",
"322 622 OFFCURVE",
"226 622 CURVE SMOOTH",
"131 622 OFFCURVE",
"58 561 OFFCURVE",
"58 471 CURVE SMOOTH"
);
},
{
closed = 1;
nodes = (
"184 493 OFFCURVE",
"202 511 OFFCURVE",
"226 511 CURVE SMOOTH",
"251 511 OFFCURVE",
"269 493 OFFCURVE",
"269 471 CURVE SMOOTH",
"269 446 OFFCURVE",
"251 429 OFFCURVE",
"226 429 CURVE SMOOTH",
"202 429 OFFCURVE",
"184 446 OFFCURVE",
"184 471 CURVE SMOOTH"
);
}
);
width = 453;
},
{
layerId = "F0143EB7-DEA3-4B38-8B70-DEA25CF19AA9";
paths = (
{
closed = 1;
nodes = (
"65 258 LINE",
"158 176 OFFCURVE",
"217 79 OFFCURVE",
"270 -41 CURVE",
"332 -18 LINE",
"281 112 OFFCURVE",
"212 232 OFFCURVE",
"116 314 CURVE"
);
},
{
closed = 1;
nodes = (
"61 398 OFFCURVE",
"111 350 OFFCURVE",
"180 350 CURVE SMOOTH",
"248 350 OFFCURVE",
"297 398 OFFCURVE",
"297 486 CURVE SMOOTH",
"297 574 OFFCURVE",
"248 622 OFFCURVE",
"180 622 CURVE SMOOTH",
"111 622 OFFCURVE",
"61 574 OFFCURVE",
"61 486 CURVE SMOOTH"
);
},
{
closed = 1;
nodes = (
"124 538 OFFCURVE",
"146 562 OFFCURVE",
"180 562 CURVE SMOOTH",
"212 562 OFFCURVE",
"234 538 OFFCURVE",
"234 486 CURVE SMOOTH",
"234 434 OFFCURVE",
"212 410 OFFCURVE",
"180 410 CURVE SMOOTH",
"146 410 OFFCURVE",
"124 434 OFFCURVE",
"124 486 CURVE SMOOTH"
);
}
);
width = 358;
}
);
unicode = 0982;
},
{
glyphname = visargabeng;
lastChange = "2020-04-14 07:51:14 +0000";
layers = (
{
layerId = "8680C114-EF70-46E9-96FB-C90A78B2DAE0";
paths = (
{
closed = 1;
nodes = (
"64 385 OFFCURVE",
"131 325 OFFCURVE",
"219 325 CURVE SMOOTH",
"307 325 OFFCURVE",
"374 386 OFFCURVE",
"374 474 CURVE SMOOTH",
"374 561 OFFCURVE",
"307 622 OFFCURVE",
"219 622 CURVE SMOOTH",
"131 622 OFFCURVE",
"64 561 OFFCURVE",
"64 474 CURVE SMOOTH"
);
},
{
closed = 1;
nodes = (
"165 505 OFFCURVE",
"188 528 OFFCURVE",
"219 528 CURVE SMOOTH",
"250 528 OFFCURVE",
"273 505 OFFCURVE",
"273 474 CURVE SMOOTH",
"273 442 OFFCURVE",
"250 419 OFFCURVE",
"219 419 CURVE SMOOTH",
"188 419 OFFCURVE",
"165 442 OFFCURVE",
"165 474 CURVE SMOOTH"
);
},
{
closed = 1;
nodes = (
"64 60 OFFCURVE",
"131 0 OFFCURVE",
"219 0 CURVE SMOOTH",
"307 0 OFFCURVE",
"374 61 OFFCURVE",
"374 149 CURVE SMOOTH",
"374 236 OFFCURVE",
"307 297 OFFCURVE",
"219 297 CURVE SMOOTH",
"131 297 OFFCURVE",
"64 236 OFFCURVE",
"64 149 CURVE SMOOTH"
);
},
{
closed = 1;
nodes = (
"165 180 OFFCURVE",
"188 203 OFFCURVE",
"219 203 CURVE SMOOTH",
"250 203 OFFCURVE",
"273 180 OFFCURVE",
"273 149 CURVE SMOOTH",
"273 117 OFFCURVE",
"250 94 OFFCURVE",
"219 94 CURVE SMOOTH",
"188 94 OFFCURVE",
"165 117 OFFCURVE",
"165 149 CURVE SMOOTH"
);
}
);
width = 438;
},
{
layerId = UUID0;
paths = (
{
closed = 1;
nodes = (
"78 402 OFFCURVE",
"139 349 OFFCURVE",
"219 349 CURVE SMOOTH",
"299 349 OFFCURVE",
"360 403 OFFCURVE",
"360 486 CURVE SMOOTH",
"360 568 OFFCURVE",
"299 622 OFFCURVE",
"219 622 CURVE SMOOTH",
"139 622 OFFCURVE",
"78 568 OFFCURVE",
"78 486 CURVE SMOOTH"
);
},
{
closed = 1;
nodes = (
"147 529 OFFCURVE",
"177 557 OFFCURVE",
"219 557 CURVE SMOOTH",
"261 557 OFFCURVE",
"291 529 OFFCURVE",
"291 486 CURVE SMOOTH",
"291 442 OFFCURVE",
"261 414 OFFCURVE",
"219 414 CURVE SMOOTH",
"177 414 OFFCURVE",
"147 441 OFFCURVE",
"147 486 CURVE SMOOTH"
);
},
{
closed = 1;
nodes = (
"78 54 OFFCURVE",
"139 0 OFFCURVE",
"219 0 CURVE SMOOTH",
"299 0 OFFCURVE",
"360 54 OFFCURVE",
"360 137 CURVE SMOOTH",
"360 220 OFFCURVE",
"299 273 OFFCURVE",
"219 273 CURVE SMOOTH",
"139 273 OFFCURVE",
"78 219 OFFCURVE",
"78 137 CURVE SMOOTH"
);
},
{
closed = 1;
nodes = (
"147 180 OFFCURVE",
"177 208 OFFCURVE",
"219 208 CURVE SMOOTH",
"261 208 OFFCURVE",
"291 181 OFFCURVE",
"291 137 CURVE SMOOTH",
"291 93 OFFCURVE",
"261 65 OFFCURVE",
"219 65 CURVE SMOOTH",
"177 65 OFFCURVE",
"147 93 OFFCURVE",
"147 137 CURVE SMOOTH"
);
}
);
width = 438;
},
{
layerId = "46A56A9B-0135-45C3-BDA6-6C6C4BC92BD5";
paths = (
{
closed = 1;
nodes = (
"83 419 OFFCURVE",
"135 370 OFFCURVE",
"211 370 CURVE SMOOTH",
"287 370 OFFCURVE",
"340 418 OFFCURVE",
"340 497 CURVE SMOOTH",
"340 571 OFFCURVE",
"285 622 OFFCURVE",
"211 622 CURVE SMOOTH",
"136 622 OFFCURVE",
"83 569 OFFCURVE",
"83 496 CURVE SMOOTH"
);
},
{
closed = 1;
nodes = (
"110 556 OFFCURVE",
"150 596 OFFCURVE",
"211 596 CURVE SMOOTH",
"271 596 OFFCURVE",
"313 557 OFFCURVE",
"313 496 CURVE SMOOTH",
"313 435 OFFCURVE",
"272 396 OFFCURVE",
"211 396 CURVE SMOOTH",
"151 396 OFFCURVE",
"110 432 OFFCURVE",
"110 495 CURVE SMOOTH"
);
},
{
closed = 1;
nodes = (
"83 49 OFFCURVE",
"135 0 OFFCURVE",
"211 0 CURVE SMOOTH",
"287 0 OFFCURVE",
"340 48 OFFCURVE",
"340 127 CURVE SMOOTH",
"340 201 OFFCURVE",
"285 252 OFFCURVE",
"211 252 CURVE SMOOTH",
"136 252 OFFCURVE",
"83 199 OFFCURVE",
"83 126 CURVE SMOOTH"
);
},
{
closed = 1;
nodes = (
"110 186 OFFCURVE",
"150 226 OFFCURVE",
"211 226 CURVE SMOOTH",
"271 226 OFFCURVE",
"313 187 OFFCURVE",
"313 126 CURVE SMOOTH",
"313 65 OFFCURVE",
"272 26 OFFCURVE",
"211 26 CURVE SMOOTH",
"151 26 OFFCURVE",
"110 62 OFFCURVE",
"110 125 CURVE SMOOTH"
);
}
);
width = 423;
},
{
layerId = "22409DE3-74E9-441F-9C04-63D5519B89AC";
paths = (
{
closed = 1;
nodes = (
"58 378 OFFCURVE",
"131 319 OFFCURVE",
"226 319 CURVE SMOOTH",
"322 319 OFFCURVE",
"395 378 OFFCURVE",
"395 471 CURVE SMOOTH",
"395 562 OFFCURVE",
"322 622 OFFCURVE",
"226 622 CURVE SMOOTH",
"131 622 OFFCURVE",
"58 561 OFFCURVE",
"58 471 CURVE SMOOTH"
);
},
{
closed = 1;
nodes = (
"184 493 OFFCURVE",
"202 511 OFFCURVE",
"226 511 CURVE SMOOTH",
"251 511 OFFCURVE",
"269 493 OFFCURVE",
"269 471 CURVE SMOOTH",
"269 446 OFFCURVE",
"251 429 OFFCURVE",
"226 429 CURVE SMOOTH",
"202 429 OFFCURVE",
"184 446 OFFCURVE",
"184 471 CURVE SMOOTH"
);
},
{
closed = 1;
nodes = (
"58 59 OFFCURVE",
"131 0 OFFCURVE",
"226 0 CURVE SMOOTH",
"322 0 OFFCURVE",
"395 59 OFFCURVE",
"395 152 CURVE SMOOTH",
"395 243 OFFCURVE",
"322 303 OFFCURVE",
"226 303 CURVE SMOOTH",
"131 303 OFFCURVE",
"58 242 OFFCURVE",
"58 152 CURVE SMOOTH"
);
},
{
closed = 1;
nodes = (
"184 174 OFFCURVE",
"202 192 OFFCURVE",
"226 192 CURVE SMOOTH",
"251 192 OFFCURVE",
"269 174 OFFCURVE",
"269 152 CURVE SMOOTH",
"269 127 OFFCURVE",
"251 110 OFFCURVE",
"226 110 CURVE SMOOTH",
"202 110 OFFCURVE",
"184 127 OFFCURVE",
"184 152 CURVE SMOOTH"
);
}
);
width = 453;
},
{
layerId = "F0143EB7-DEA3-4B38-8B70-DEA25CF19AA9";
paths = (
{
closed = 1;
nodes = (
"61 398 OFFCURVE",
"111 350 OFFCURVE",
"180 350 CURVE SMOOTH",
"248 350 OFFCURVE",
"297 398 OFFCURVE",
"297 486 CURVE SMOOTH",
"297 574 OFFCURVE",
"248 622 OFFCURVE",
"180 622 CURVE SMOOTH",
"111 622 OFFCURVE",
"61 574 OFFCURVE",
"61 486 CURVE SMOOTH"
);
},
{
closed = 1;
nodes = (
"124 538 OFFCURVE",
"146 562 OFFCURVE",
"180 562 CURVE SMOOTH",
"212 562 OFFCURVE",
"234 538 OFFCURVE",
"234 486 CURVE SMOOTH",
"234 434 OFFCURVE",
"212 410 OFFCURVE",
"180 410 CURVE SMOOTH",
"146 410 OFFCURVE",
"124 434 OFFCURVE",
"124 486 CURVE SMOOTH"
);
},
{
closed = 1;
nodes = (
"61 48 OFFCURVE",
"111 0 OFFCURVE",
"180 0 CURVE SMOOTH",
"248 0 OFFCURVE",
"297 48 OFFCURVE",
"297 136 CURVE SMOOTH",
"297 224 OFFCURVE",
"248 272 OFFCURVE",
"180 272 CURVE SMOOTH",
"111 272 OFFCURVE",
"61 224 OFFCURVE",
"61 136 CURVE SMOOTH"
);
},
{
closed = 1;
nodes = (
"124 188 OFFCURVE",
"146 212 OFFCURVE",
"180 212 CURVE SMOOTH",
"212 212 OFFCURVE",
"234 188 OFFCURVE",
"234 136 CURVE SMOOTH",
"234 84 OFFCURVE",
"212 60 OFFCURVE",
"180 60 CURVE SMOOTH",
"146 60 OFFCURVE",
"124 84 OFFCURVE",
"124 136 CURVE SMOOTH"
);
}
);
width = 358;
}
);
unicode = 0983;
},
{
glyphname = abeng;
lastChange = "2020-04-14 07:51:14 +0000";
layers = (
{
layerId = "8680C114-EF70-46E9-96FB-C90A78B2DAE0";
paths = (
{
closed = 1;
nodes = (
"-10 622 LINE",
"-10 512 LINE",
"742 512 LINE",
"742 217 LINE SMOOTH",
"742 191 OFFCURVE",
"743 167 OFFCURVE",
"745 146 CURVE",
"718 176 OFFCURVE",
"674 211 OFFCURVE",
"624 240 CURVE",
"566 155 LINE",
"629 121 OFFCURVE",
"705 70 OFFCURVE",
"742 0 CURVE",
"874 0 LINE",
"874 512 LINE",
"970 512 LINE",
"970 622 LINE"
);
},
{
closed = 1;
nodes = (
"584 82 OFFCURVE",
"662 174 OFFCURVE",
"662 283 CURVE SMOOTH",
"662 399 OFFCURVE",
"578 486 OFFCURVE",
"440 486 CURVE SMOOTH",
"357 486 OFFCURVE",
"278 451 OFFCURVE",
"278 354 CURVE SMOOTH",
"278 336 OFFCURVE",
"283 311 OFFCURVE",
"294 286 CURVE",
"418 304 LINE",
"414 315 OFFCURVE",
"411 328 OFFCURVE",
"411 339 CURVE SMOOTH",
"411 363 OFFCURVE",
"427 379 OFFCURVE",
"457 379 CURVE SMOOTH",
"500 379 OFFCURVE",
"530 348 OFFCURVE",
"530 298 CURVE SMOOTH",
"530 235 OFFCURVE",
"486 197 OFFCURVE",
"392 197 CURVE SMOOTH",
"271 197 OFFCURVE",
"203 276 OFFCURVE",
"140 463 CURVE",
"15 428 LINE",
"100 167 OFFCURVE",
"233 82 OFFCURVE",
"398 82 CURVE SMOOTH"
);
},
{
closed = 1;
nodes = (
"466 431 LINE",
"459 488 OFFCURVE",
"430 522 OFFCURVE",
"355 553 CURVE",
"309 564 LINE",
"234 520 LINE",
"297 505 OFFCURVE",
"329 472 OFFCURVE",
"335 428 CURVE"
);
}
);
width = 960;
},
{
layerId = UUID0;
paths = (
{
closed = 1;
nodes = (
"-10 622 LINE",
"-10 551 LINE",
"721 551 LINE",
"721 194 LINE SMOOTH",
"721 162 OFFCURVE",
"722 138 OFFCURVE",
"724 109 CURVE",
"695 161 OFFCURVE",
"633 217 OFFCURVE",
"582 246 CURVE",
"557 180 LINE",
"622 137 OFFCURVE",
"682 79 OFFCURVE",
"721 0 CURVE",
"798 0 LINE",
"798 551 LINE",
"903 551 LINE",
"903 622 LINE"
);
},
{
closed = 1;
nodes = (
"531 91 OFFCURVE",
"606 185 OFFCURVE",
"606 294 CURVE SMOOTH",
"606 415 OFFCURVE",
"530 500 OFFCURVE",
"413 500 CURVE SMOOTH",
"340 500 OFFCURVE",
"271 462 OFFCURVE",
"271 388 CURVE SMOOTH",
"271 367 OFFCURVE",
"275 344 OFFCURVE",
"285 316 CURVE",
"361 331 LINE",
"356 344 OFFCURVE",
"353 362 OFFCURVE",
"353 372 CURVE SMOOTH",
"353 410 OFFCURVE",
"376 430 OFFCURVE",
"420 430 CURVE SMOOTH",
"483 430 OFFCURVE",
"530 377 OFFCURVE",
"530 300 CURVE SMOOTH",
"530 225 OFFCURVE",
"488 167 OFFCURVE",
"378 167 CURVE SMOOTH",
"252 167 OFFCURVE",
"173 257 OFFCURVE",
"102 466 CURVE",
"29 442 LINE",
"121 174 OFFCURVE",
"239 91 OFFCURVE",
"376 91 CURVE SMOOTH"
);
},
{
closed = 1;
nodes = (
"423 468 LINE",
"417 525 OFFCURVE",
"388 559 OFFCURVE",
"312 589 CURVE",
"267 601 LINE",
"243 556 LINE",
"306 542 OFFCURVE",
"337 508 OFFCURVE",
"344 465 CURVE"
);
}
);
width = 893;
},
{
layerId = "46A56A9B-0135-45C3-BDA6-6C6C4BC92BD5";
paths = (
{
closed = 1;
nodes = (
"-10 622 LINE",
"-10 596 LINE",
"707 596 LINE",
"707 168 LINE SMOOTH",
"707 100 OFFCURVE",
"709 79 OFFCURVE",
"711 43 CURVE",
"674 128 OFFCURVE",
"610 199 OFFCURVE",
"542 242 CURVE",
"530 220 LINE",
"607 169 OFFCURVE",
"667 89 OFFCURVE",
"707 0 CURVE",
"733 0 LINE",
"733 596 LINE",
"848 596 LINE",
"848 622 LINE"
);
},
{
closed = 1;
nodes = (
"498 123 OFFCURVE",
"576 195 OFFCURVE",
"576 319 CURVE SMOOTH",
"576 433 OFFCURVE",
"501 514 OFFCURVE",
"395 514 CURVE SMOOTH",
"329 514 OFFCURVE",
"273 473 OFFCURVE",
"273 406 CURVE SMOOTH",
"273 384 OFFCURVE",
"278 357 OFFCURVE",
"287 336 CURVE",
"313 343 LINE",
"302 368 OFFCURVE",
"300 385 OFFCURVE",
"300 405 CURVE SMOOTH",
"300 460 OFFCURVE",
"339 488 OFFCURVE",
"396 488 CURVE SMOOTH",
"486 488 OFFCURVE",
"549 420 OFFCURVE",
"549 318 CURVE SMOOTH",
"549 224 OFFCURVE",
"501 149 OFFCURVE",
"368 149 CURVE SMOOTH",
"243 149 OFFCURVE",
"141 245 OFFCURVE",
"61 478 CURVE",
"35 470 LINE",
"127 205 OFFCURVE",
"245 123 OFFCURVE",
"368 123 CURVE SMOOTH"
);
},
{
closed = 1;
nodes = (
"398 507 LINE",
"390 557 OFFCURVE",
"356 592 OFFCURVE",
"291 613 CURVE",
"270 612 LINE",
"265 598 LINE",
"325 584 OFFCURVE",
"362 551 OFFCURVE",
"372 504 CURVE"
);
}
);
width = 838;
},
{
layerId = "22409DE3-74E9-441F-9C04-63D5519B89AC";
paths = (
{
closed = 1;
nodes = (
"-10 622 LINE",
"-10 484 LINE",
"760 484 LINE",
"760 235 LINE SMOOTH",
"760 218 OFFCURVE",
"760 188 OFFCURVE",
"763 169 CURVE",
"736 198 OFFCURVE",
"694 223 OFFCURVE",
"648 244 CURVE",
"573 138 LINE",
"640 109 OFFCURVE",
"707 64 OFFCURVE",
"760 0 CURVE",
"935 0 LINE",
"935 484 LINE",
"1020 484 LINE",
"1020 622 LINE"
);
},
{
closed = 1;
nodes = (
"621 60 OFFCURVE",
"697 153 OFFCURVE",
"697 261 CURVE SMOOTH",
"697 378 OFFCURVE",
"615 463 OFFCURVE",
"467 463 CURVE SMOOTH",
"366 463 OFFCURVE",
"285 427 OFFCURVE",
"285 335 CURVE SMOOTH",
"285 312 OFFCURVE",
"291 279 OFFCURVE",
"305 253 CURVE",
"458 272 LINE",
"455 281 OFFCURVE",
"453 290 OFFCURVE",
"453 300 CURVE SMOOTH",
"453 316 OFFCURVE",
"465 329 OFFCURVE",
"483 329 CURVE SMOOTH",
"509 329 OFFCURVE",
"524 309 OFFCURVE",
"524 280 CURVE SMOOTH",
"524 223 OFFCURVE",
"479 202 OFFCURVE",
"404 202 CURVE SMOOTH",
"280 202 OFFCURVE",
"224 277 OFFCURVE",
"173 450 CURVE",
"13 407 LINE",
"90 156 OFFCURVE",
"216 60 OFFCURVE",
"426 60 CURVE SMOOTH"
);
},
{
closed = 1;
nodes = (
"499 403 LINE",
"491 460 OFFCURVE",
"463 497 OFFCURVE",
"389 528 CURVE",
"341 536 LINE",
"243 492 LINE",
"306 477 OFFCURVE",
"342 444 OFFCURVE",
"347 400 CURVE"
);
}
);
width = 1010;
},
{
layerId = "F0143EB7-DEA3-4B38-8B70-DEA25CF19AA9";
paths = (
{
closed = 1;
nodes = (
"-6 622 LINE",
"-6 554 LINE",
"529 554 LINE",
"529 200 LINE SMOOTH",
"529 175 OFFCURVE",
"530 142 OFFCURVE",
"532 110 CURVE",
"504 172 OFFCURVE",
"468 216 OFFCURVE",
"431 246 CURVE",
"407 182 LINE",
"455 138 OFFCURVE",
"497 82 OFFCURVE",
"529 0 CURVE",
"600 0 LINE",
"600 554 LINE",
"674 554 LINE",
"674 622 LINE"
);
},
{
closed = 1;
nodes = (
"397 93 OFFCURVE",
"456 183 OFFCURVE",
"456 296 CURVE SMOOTH",
"456 419 OFFCURVE",
"402 500 OFFCURVE",
"309 500 CURVE SMOOTH",
"255 500 OFFCURVE",
"204 469 OFFCURVE",
"204 393 CURVE SMOOTH",
"204 375 OFFCURVE",
"208 348 OFFCURVE",
"217 321 CURVE",
"284 335 LINE",
"279 349 OFFCURVE",
"276 368 OFFCURVE",
"276 383 CURVE SMOOTH",
"276 413 OFFCURVE",
"290 432 OFFCURVE",
"316 432 CURVE SMOOTH",
"358 432 OFFCURVE",
"386 381 OFFCURVE",
"386 298 CURVE SMOOTH",
"386 229 OFFCURVE",
"355 166 OFFCURVE",
"282 166 CURVE SMOOTH",
"194 166 OFFCURVE",
"140 256 OFFCURVE",
"91 467 CURVE",
"22 450 LINE",
"85 182 OFFCURVE",
"170 93 OFFCURVE",
"283 93 CURVE SMOOTH"
);
},
{
closed = 1;
nodes = (
"322 470 LINE",
"317 527 OFFCURVE",
"289 556 OFFCURVE",
"230 582 CURVE",
"197 594 LINE",
"166 559 LINE",
"215 544 OFFCURVE",
"244 511 OFFCURVE",
"249 467 CURVE"
);
}
);
width = 668;
}
);
unicode = 0985;
},
{
glyphname = aabeng;
lastChange = "2020-04-14 07:51:14 +0000";
layers = (
{
layerId = "8680C114-EF70-46E9-96FB-C90A78B2DAE0";
paths = (
{
closed = 1;
nodes = (
"-10 622 LINE",
"-10 512 LINE",
"742 512 LINE",
"742 217 LINE SMOOTH",
"742 191 OFFCURVE",
"743 167 OFFCURVE",
"745 146 CURVE",
"718 176 OFFCURVE",
"674 211 OFFCURVE",
"624 240 CURVE",
"566 155 LINE",
"629 121 OFFCURVE",
"705 70 OFFCURVE",
"742 0 CURVE",
"874 0 LINE",
"874 512 LINE",
"970 512 LINE",
"970 622 LINE"
);
},
{
closed = 1;
nodes = (
"584 82 OFFCURVE",
"662 174 OFFCURVE",
"662 283 CURVE SMOOTH",
"662 399 OFFCURVE",
"578 486 OFFCURVE",
"440 486 CURVE SMOOTH",
"357 486 OFFCURVE",
"278 451 OFFCURVE",
"278 354 CURVE SMOOTH",
"278 336 OFFCURVE",
"283 311 OFFCURVE",
"294 286 CURVE",
"418 304 LINE",
"414 315 OFFCURVE",
"411 328 OFFCURVE",
"411 339 CURVE SMOOTH",
"411 363 OFFCURVE",
"427 379 OFFCURVE",
"457 379 CURVE SMOOTH",
"500 379 OFFCURVE",
"530 348 OFFCURVE",
"530 298 CURVE SMOOTH",
"530 235 OFFCURVE",
"486 197 OFFCURVE",
"392 197 CURVE SMOOTH",
"271 197 OFFCURVE",
"203 276 OFFCURVE",
"140 463 CURVE",
"15 428 LINE",
"100 167 OFFCURVE",
"233 82 OFFCURVE",
"398 82 CURVE SMOOTH"
);
},
{
closed = 1;
nodes = (
"466 431 LINE",
"459 488 OFFCURVE",
"430 522 OFFCURVE",
"355 553 CURVE",
"309 564 LINE",
"234 520 LINE",
"297 505 OFFCURVE",
"329 472 OFFCURVE",
"335 428 CURVE"
);
},
{
closed = 1;
nodes = (
"1177 622 LINE",
"1154 688 LINE",
"1046 688 LINE",
"1046 613 LINE SMOOTH",
"1046 596 OFFCURVE",
"1048 566 OFFCURVE",
"1050 559 CURVE",
"1029 606 OFFCURVE",
"1002 622 OFFCURVE",
"975 622 CURVE SMOOTH",
"953 622 LINE",
"953 512 LINE",
"968 512 LINE SMOOTH",
"1003 512 OFFCURVE",
"1025 493 OFFCURVE",
"1046 444 CURVE",
"1046 0 LINE",
"1178 0 LINE",
"1178 512 LINE",
"1274 512 LINE",
"1274 622 LINE"
);
}
);
width = 1264;
},
{
layerId = UUID0;
paths = (
{
closed = 1;
nodes = (
"-10 622 LINE",
"-10 551 LINE",
"721 551 LINE",
"721 194 LINE SMOOTH",
"721 162 OFFCURVE",
"722 138 OFFCURVE",
"724 109 CURVE",
"695 161 OFFCURVE",
"633 217 OFFCURVE",
"582 246 CURVE",
"557 180 LINE",
"622 137 OFFCURVE",
"682 79 OFFCURVE",
"721 0 CURVE",
"798 0 LINE",
"798 551 LINE",
"898 551 LINE",
"898 622 LINE"
);
},
{
closed = 1;
nodes = (
"531 91 OFFCURVE",
"606 185 OFFCURVE",
"606 294 CURVE SMOOTH",
"606 415 OFFCURVE",
"530 500 OFFCURVE",
"413 500 CURVE SMOOTH",
"340 500 OFFCURVE",
"271 462 OFFCURVE",
"271 388 CURVE SMOOTH",
"271 367 OFFCURVE",
"275 344 OFFCURVE",
"285 316 CURVE",
"361 331 LINE",
"356 344 OFFCURVE",
"353 362 OFFCURVE",
"353 372 CURVE SMOOTH",
"353 410 OFFCURVE",
"376 430 OFFCURVE",
"420 430 CURVE SMOOTH",
"483 430 OFFCURVE",
"530 377 OFFCURVE",
"530 300 CURVE SMOOTH",
"530 224 OFFCURVE",
"488 167 OFFCURVE",
"378 167 CURVE SMOOTH",
"252 167 OFFCURVE",
"173 257 OFFCURVE",
"102 466 CURVE",
"29 442 LINE",
"121 174 OFFCURVE",
"239 91 OFFCURVE",
"376 91 CURVE SMOOTH"
);
},
{
closed = 1;
nodes = (
"423 468 LINE",
"417 525 OFFCURVE",
"388 559 OFFCURVE",
"312 589 CURVE",
"267 601 LINE",
"243 556 LINE",
"306 542 OFFCURVE",
"337 508 OFFCURVE",
"344 465 CURVE"
);
},
{
closed = 1;
nodes = (
"1062 622 LINE",
"1039 688 LINE",
"986 688 LINE",
"986 613 LINE SMOOTH",
"986 596 OFFCURVE",
"988 566 OFFCURVE",
"990 559 CURVE",
"968 601 OFFCURVE",
"934 622 OFFCURVE",
"897 622 CURVE SMOOTH",
"887 622 LINE",
"887 551 LINE",
"897 551 LINE SMOOTH",
"936 551 OFFCURVE",
"963 531 OFFCURVE",
"986 479 CURVE",
"986 0 LINE",
"1063 0 LINE",
"1063 551 LINE",
"1168 551 LINE",
"1168 622 LINE"
);
}
);
width = 1158;
},
{
layerId = "46A56A9B-0135-45C3-BDA6-6C6C4BC92BD5";
paths = (
{
closed = 1;
nodes = (
"-10 622 LINE",
"-10 596 LINE",
"707 596 LINE",
"707 168 LINE SMOOTH",
"707 100 OFFCURVE",
"709 79 OFFCURVE",
"711 43 CURVE",
"674 128 OFFCURVE",
"610 199 OFFCURVE",
"542 242 CURVE",
"530 220 LINE",
"607 169 OFFCURVE",
"667 89 OFFCURVE",
"707 0 CURVE",
"733 0 LINE",
"733 596 LINE",
"848 596 LINE",
"848 622 LINE"
);
},
{
closed = 1;
nodes = (
"498 123 OFFCURVE",
"576 195 OFFCURVE",
"576 319 CURVE SMOOTH",
"576 434 OFFCURVE",
"501 514 OFFCURVE",
"395 514 CURVE SMOOTH",
"329 514 OFFCURVE",
"273 473 OFFCURVE",
"273 406 CURVE SMOOTH",
"273 384 OFFCURVE",
"278 357 OFFCURVE",
"287 336 CURVE",
"313 343 LINE",
"302 368 OFFCURVE",
"300 385 OFFCURVE",
"300 405 CURVE SMOOTH",
"300 460 OFFCURVE",
"339 488 OFFCURVE",
"396 488 CURVE SMOOTH",
"486 488 OFFCURVE",
"549 420 OFFCURVE",
"549 318 CURVE SMOOTH",
"549 224 OFFCURVE",
"501 149 OFFCURVE",
"368 149 CURVE SMOOTH",
"243 149 OFFCURVE",
"141 245 OFFCURVE",
"61 478 CURVE",
"35 470 LINE",
"127 205 OFFCURVE",
"245 123 OFFCURVE",
"368 123 CURVE SMOOTH"
);
},
{
closed = 1;
nodes = (
"398 507 LINE",
"390 557 OFFCURVE",
"356 592 OFFCURVE",
"291 613 CURVE",
"270 612 LINE",
"265 598 LINE",
"328 585 OFFCURVE",
"363 553 OFFCURVE",
"372 504 CURVE"
);
},
{
closed = 1;
nodes = (
"969 622 LINE",
"963 676 LINE",
"943 676 LINE",
"943 613 LINE SMOOTH",
"943 588 OFFCURVE",
"943 561 OFFCURVE",
"945 547 CURVE",
"914 605 OFFCURVE",
"878 622 OFFCURVE",
"845 622 CURVE SMOOTH",
"828 622 LINE",
"828 596 LINE",
"840 596 LINE SMOOTH",
"888 596 OFFCURVE",
"912 566 OFFCURVE",
"943 513 CURVE",
"943 0 LINE",
"969 0 LINE",
"969 596 LINE",
"1084 596 LINE",
"1084 622 LINE"
);
}
);
width = 1074;
},
{
layerId = "22409DE3-74E9-441F-9C04-63D5519B89AC";
paths = (
{
closed = 1;
nodes = (
"-10 622 LINE",
"-10 484 LINE",
"760 484 LINE",
"760 235 LINE SMOOTH",
"760 218 OFFCURVE",
"760 188 OFFCURVE",
"763 169 CURVE",
"736 198 OFFCURVE",
"694 223 OFFCURVE",
"648 244 CURVE",
"573 138 LINE",
"640 109 OFFCURVE",
"707 64 OFFCURVE",
"760 0 CURVE",
"935 0 LINE",
"935 484 LINE",
"1020 484 LINE",
"1020 622 LINE"
);
},
{
closed = 1;
nodes = (
"621 60 OFFCURVE",
"697 153 OFFCURVE",
"697 261 CURVE SMOOTH",
"697 378 OFFCURVE",
"615 463 OFFCURVE",
"467 463 CURVE SMOOTH",
"366 463 OFFCURVE",
"285 427 OFFCURVE",
"285 335 CURVE SMOOTH",
"285 312 OFFCURVE",
"291 279 OFFCURVE",
"305 253 CURVE",
"458 272 LINE",
"455 281 OFFCURVE",
"453 290 OFFCURVE",
"453 300 CURVE SMOOTH",
"453 316 OFFCURVE",
"465 329 OFFCURVE",
"483 329 CURVE SMOOTH",
"509 329 OFFCURVE",
"524 309 OFFCURVE",
"524 280 CURVE SMOOTH",
"524 223 OFFCURVE",
"479 202 OFFCURVE",
"404 202 CURVE SMOOTH",
"280 202 OFFCURVE",
"224 277 OFFCURVE",
"173 450 CURVE",
"13 407 LINE",
"90 156 OFFCURVE",
"216 60 OFFCURVE",
"426 60 CURVE SMOOTH"
);
},
{
closed = 1;
nodes = (
"499 403 LINE",
"491 460 OFFCURVE",
"463 497 OFFCURVE",
"389 528 CURVE",
"341 536 LINE",
"243 492 LINE",
"306 477 OFFCURVE",
"342 444 OFFCURVE",
"347 400 CURVE"
);
},
{
closed = 1;
nodes = (
"1259 622 LINE",
"1235 692 LINE",
"1085 692 LINE",
"1085 631 LINE SMOOTH",
"1085 612 OFFCURVE",
"1086 584 OFFCURVE",
"1089 566 CURVE",
"1074 606 OFFCURVE",
"1045 622 OFFCURVE",
"1020 622 CURVE SMOOTH",
"1000 622 LINE",
"1000 484 LINE",
"1007 484 LINE SMOOTH",
"1046 484 OFFCURVE",
"1069 465 OFFCURVE",
"1085 427 CURVE",
"1085 0 LINE",
"1260 0 LINE",
"1260 484 LINE",
"1345 484 LINE",
"1345 622 LINE"
);
}
);
width = 1335;
},
{
layerId = "F0143EB7-DEA3-4B38-8B70-DEA25CF19AA9";
paths = (
{
closed = 1;
nodes = (
"-6 622 LINE",
"-6 554 LINE",
"529 554 LINE",
"529 200 LINE SMOOTH",
"529 175 OFFCURVE",
"530 142 OFFCURVE",
"532 110 CURVE",
"504 172 OFFCURVE",
"468 216 OFFCURVE",
"431 246 CURVE",
"407 182 LINE",
"455 138 OFFCURVE",
"497 82 OFFCURVE",
"529 0 CURVE",
"600 0 LINE",
"600 554 LINE",
"674 554 LINE",
"674 622 LINE"
);
},
{
closed = 1;
nodes = (
"397 93 OFFCURVE",
"456 183 OFFCURVE",
"456 297 CURVE SMOOTH",
"456 419 OFFCURVE",
"402 500 OFFCURVE",
"310 500 CURVE SMOOTH",
"256 500 OFFCURVE",
"204 469 OFFCURVE",
"204 393 CURVE SMOOTH",
"204 375 OFFCURVE",
"208 348 OFFCURVE",
"217 321 CURVE",
"284 335 LINE",
"279 349 OFFCURVE",
"276 368 OFFCURVE",
"276 383 CURVE SMOOTH",
"276 413 OFFCURVE",
"290 432 OFFCURVE",
"316 432 CURVE SMOOTH",
"358 432 OFFCURVE",
"386 381 OFFCURVE",
"386 298 CURVE SMOOTH",
"386 229 OFFCURVE",
"355 166 OFFCURVE",
"282 166 CURVE SMOOTH",
"194 166 OFFCURVE",
"140 256 OFFCURVE",
"91 467 CURVE",
"22 450 LINE",
"85 182 OFFCURVE",
"170 93 OFFCURVE",
"283 93 CURVE SMOOTH"
);
},
{
closed = 1;
nodes = (
"322 470 LINE",
"317 527 OFFCURVE",
"289 556 OFFCURVE",
"230 582 CURVE",
"197 594 LINE",
"166 559 LINE",
"215 544 OFFCURVE",
"244 511 OFFCURVE",
"249 467 CURVE"
);
},
{
closed = 1;
nodes = (
"804 622 LINE",
"788 688 LINE",
"734 688 LINE",
"734 627 LINE SMOOTH",
"734 608 OFFCURVE",
"735 586 OFFCURVE",
"737 569 CURVE",
"719 601 OFFCURVE",
"699 622 OFFCURVE",
"672 622 CURVE SMOOTH",
"660 622 LINE",
"660 554 LINE",
"663 554 LINE SMOOTH",
"695 554 OFFCURVE",
"717 526 OFFCURVE",
"734 485 CURVE",
"734 0 LINE",
"805 0 LINE",
"805 554 LINE",
"879 554 LINE",
"879 622 LINE"
);
}
);
width = 873;
}
);
unicode = 0986;
},
{
glyphname = ibeng;
lastChange = "2020-04-14 07:51:14 +0000";
layers = (
{
components = (
{
name = habeng;
}
);
layerId = "8680C114-EF70-46E9-96FB-C90A78B2DAE0";
paths = (
{
closed = 1;
nodes = (
"479 622 LINE",
"477 684 OFFCURVE",
"463 724 OFFCURVE",
"438 749 CURVE SMOOTH",
"406 780 OFFCURVE",
"365 790 OFFCURVE",
"286 790 CURVE SMOOTH",
"223 790 LINE SMOOTH",
"172 790 OFFCURVE",
"154 797 OFFCURVE",
"140 810 CURVE SMOOTH",
"125 824 OFFCURVE",
"120 847 OFFCURVE",
"120 875 CURVE SMOOTH",
"120 883 OFFCURVE",
"121 892 OFFCURVE",
"122 904 CURVE",
"-3 912 LINE",
"-7 888 OFFCURVE",
"-8 874 OFFCURVE",
"-8 854 CURVE SMOOTH",
"-8 805 OFFCURVE",
"3 767 OFFCURVE",
"28 739 CURVE SMOOTH",
"64 699 OFFCURVE",
"125 680 OFFCURVE",
"226 680 CURVE SMOOTH",
"285 680 LINE SMOOTH",
"335 680 OFFCURVE",
"352 663 OFFCURVE",
"354 622 CURVE"
);
}
);
width = 574;
},
{
components = (
{
name = habeng;
}
);
layerId = UUID0;
paths = (
{
closed = 1;
nodes = (
"430 622 LINE",
"428 677 OFFCURVE",
"417 712 OFFCURVE",
"394 734 CURVE SMOOTH",
"365 762 OFFCURVE",
"328 771 OFFCURVE",
"257 771 CURVE SMOOTH",
"200 771 LINE SMOOTH",
"134 771 OFFCURVE",
"103 781 OFFCURVE",
"84 802 CURVE SMOOTH",
"70 817 OFFCURVE",
"65 840 OFFCURVE",
"65 869 CURVE SMOOTH",
"65 879 OFFCURVE",
"66 891 OFFCURVE",
"69 907 CURVE",
"-5 912 LINE",
"-8 893 OFFCURVE",
"-10 876 OFFCURVE",
"-10 859 CURVE SMOOTH",
"-10 805 OFFCURVE",
"8 763 OFFCURVE",
"44 736 CURVE SMOOTH",
"77 711 OFFCURVE",
"118 699 OFFCURVE",
"206 699 CURVE SMOOTH",
"278 699 LINE SMOOTH",
"334 699 OFFCURVE",
"356 677 OFFCURVE",
"358 622 CURVE"
);
}
);
width = 530;
},
{
components = (
{
name = habeng;
}
);
layerId = "46A56A9B-0135-45C3-BDA6-6C6C4BC92BD5";
paths = (
{
closed = 1;
nodes = (
"393 622 LINE",
"390 679 OFFCURVE",
"374 713 OFFCURVE",
"342 733 CURVE SMOOTH",
"321 746 OFFCURVE",
"296 752 OFFCURVE",
"253 752 CURVE SMOOTH",
"180 752 LINE SMOOTH",
"106 752 OFFCURVE",
"69 759 OFFCURVE",
"46 785 CURVE SMOOTH",
"31 802 OFFCURVE",
"23 828 OFFCURVE",
"23 863 CURVE SMOOTH",
"23 877 OFFCURVE",
"24 893 OFFCURVE",
"27 910 CURVE",
"0 912 LINE",
"-3 895 OFFCURVE",
"-4 878 OFFCURVE",
"-4 862 CURVE SMOOTH",
"-4 825 OFFCURVE",
"5 795 OFFCURVE",
"21 774 CURVE SMOOTH",
"52 734 OFFCURVE",
"107 726 OFFCURVE",
"182 726 CURVE SMOOTH",
"254 726 LINE SMOOTH",
"343 726 OFFCURVE",
"363 690 OFFCURVE",
"367 622 CURVE"
);
}
);
width = 502;
},
{
components = (
{
name = habeng;
}
);
layerId = "22409DE3-74E9-441F-9C04-63D5519B89AC";
paths = (
{
closed = 1;
nodes = (
"522 622 LINE",
"518 698 OFFCURVE",
"503 745 OFFCURVE",
"468 774 CURVE SMOOTH",
"432 803 OFFCURVE",
"392 812 OFFCURVE",
"311 812 CURVE SMOOTH",
"261 812 LINE SMOOTH",
"213 812 OFFCURVE",
"194 815 OFFCURVE",
"180 826 CURVE SMOOTH",
"167 836 OFFCURVE",
"162 851 OFFCURVE",
"162 877 CURVE SMOOTH",
"162 883 OFFCURVE",
"163 893 OFFCURVE",
"165 905 CURVE",
"0 915 LINE",
"-4 891 OFFCURVE",
"-6 872 OFFCURVE",
"-6 853 CURVE SMOOTH",
"-6 799 OFFCURVE",
"6 760 OFFCURVE",
"30 733 CURVE SMOOTH",
"69 689 OFFCURVE",
"131 675 OFFCURVE",
"246 675 CURVE SMOOTH",
"297 675 LINE SMOOTH",
"341 675 OFFCURVE",
"352 659 OFFCURVE",
"355 622 CURVE"
);
}
);
width = 598;
},
{
components = (
{
name = habeng;
}
);
layerId = "F0143EB7-DEA3-4B38-8B70-DEA25CF19AA9";
paths = (
{
closed = 1;
nodes = (
"326 622 LINE",
"324 681 OFFCURVE",
"316 716 OFFCURVE",
"290 741 CURVE SMOOTH",
"269 761 OFFCURVE",
"241 771 OFFCURVE",
"184 771 CURVE SMOOTH",
"170 771 LINE SMOOTH",
"123 771 OFFCURVE",
"102 778 OFFCURVE",
"86 792 CURVE SMOOTH",
"67 808 OFFCURVE",
"61 834 OFFCURVE",
"61 866 CURVE SMOOTH",
"61 879 OFFCURVE",
"62 892 OFFCURVE",
"64 907 CURVE",
"-3 912 LINE",
"-6 896 OFFCURVE",
"-8 877 OFFCURVE",
"-8 859 CURVE SMOOTH",
"-8 808 OFFCURVE",
"5 766 OFFCURVE",
"36 739 CURVE SMOOTH",
"64 715 OFFCURVE",
"104 702 OFFCURVE",
"173 702 CURVE SMOOTH",
"185 702 LINE SMOOTH",
"242 702 OFFCURVE",
"256 673 OFFCURVE",
"259 622 CURVE"
);
}
);
width = 396;
}
);
unicode = 0987;
},
{
glyphname = iibeng;
lastChange = "2020-04-14 07:51:14 +0000";
layers = (
{
layerId = "8680C114-EF70-46E9-96FB-C90A78B2DAE0";
paths = (
{
closed = 1;
nodes = (
"292 65 OFFCURVE",
"331 96 OFFCURVE",
"396 192 CURVE SMOOTH",
"464 292 OFFCURVE",
"526 334 OFFCURVE",
"610 364 CURVE",
"530 368 LINE",
"502 318 OFFCURVE",
"487 260 OFFCURVE",
"487 197 CURVE SMOOTH",
"487 132 OFFCURVE",
"499 63 OFFCURVE",
"523 -11 CURVE",
"653 16 LINE",
"630 84 OFFCURVE",
"620 144 OFFCURVE",
"620 193 CURVE SMOOTH",
"620 259 OFFCURVE",
"632 315 OFFCURVE",
"662 364 CURVE",
"560 464 LINE",
"458 421 OFFCURVE",
"380 351 OFFCURVE",
"334 282 CURVE",
"408 254 LINE",
"410 268 OFFCURVE",
"411 289 OFFCURVE",
"411 307 CURVE",
"404 406 OFFCURVE",
"326 484 OFFCURVE",
"204 484 CURVE SMOOTH",
"127 484 OFFCURVE",
"42 451 OFFCURVE",
"42 367 CURVE SMOOTH",
"42 343 OFFCURVE",
"46 316 OFFCURVE",
"55 293 CURVE",
"178 311 LINE",
"174 322 OFFCURVE",
"172 333 OFFCURVE",
"172 342 CURVE SMOOTH",
"172 364 OFFCURVE",
"188 379 OFFCURVE",
"216 379 CURVE SMOOTH",
"267 379 OFFCURVE",
"297 328 OFFCURVE",
"297 283 CURVE SMOOTH",
"297 258 OFFCURVE",
"288 234 OFFCURVE",
"270 215 CURVE SMOOTH",
"251 194 OFFCURVE",
"234 181 OFFCURVE",
"213 181 CURVE SMOOTH",
"191 181 OFFCURVE",
"175 194 OFFCURVE",
"150 234 CURVE",
"58 178 LINE",
"102 104 OFFCURVE",
"148 65 OFFCURVE",
"219 65 CURVE SMOOTH"
);
},
{
closed = 1;
nodes = (
"-10 622 LINE",
"-10 512 LINE",
"731 512 LINE",
"731 622 LINE"
);
},
{
closed = 1;
nodes = (
"264 431 LINE",
"258 488 OFFCURVE",
"229 522 OFFCURVE",
"153 553 CURVE",
"107 564 LINE",
"32 520 LINE",
"95 505 OFFCURVE",
"127 472 OFFCURVE",
"134 428 CURVE"
);
},
{
closed = 1;
nodes = (
"610 622 LINE",
"608 684 OFFCURVE",
"594 724 OFFCURVE",
"569 749 CURVE SMOOTH",
"537 780 OFFCURVE",
"496 790 OFFCURVE",
"417 790 CURVE SMOOTH",
"271 790 LINE SMOOTH",
"220 790 OFFCURVE",
"202 797 OFFCURVE",
"188 810 CURVE SMOOTH",
"173 824 OFFCURVE",
"168 847 OFFCURVE",
"168 875 CURVE SMOOTH",
"168 883 OFFCURVE",
"169 892 OFFCURVE",
"170 904 CURVE",
"45 912 LINE",
"41 888 OFFCURVE",
"40 874 OFFCURVE",
"40 854 CURVE SMOOTH",
"40 805 OFFCURVE",
"51 767 OFFCURVE",
"76 739 CURVE SMOOTH",
"112 699 OFFCURVE",
"173 680 OFFCURVE",
"274 680 CURVE SMOOTH",
"416 680 LINE SMOOTH",
"467 680 OFFCURVE",
"483 663 OFFCURVE",
"485 622 CURVE"
);
}
);
width = 721;
},
{
layerId = UUID0;
paths = (
{
closed = 1;
nodes = (
"273 91 OFFCURVE",
"301 124 OFFCURVE",
"362 213 CURVE SMOOTH",
"456 348 OFFCURVE",
"505 375 OFFCURVE",
"575 413 CURVE",
"537 401 LINE",
"506 347 OFFCURVE",
"495 287 OFFCURVE",
"495 217 CURVE SMOOTH",
"495 139 OFFCURVE",
"510 68 OFFCURVE",
"533 -7 CURVE",
"608 10 LINE",
"584 83 OFFCURVE",
"573 137 OFFCURVE",
"573 201 CURVE SMOOTH",
"573 286 OFFCURVE",
"588 344 OFFCURVE",
"625 413 CURVE",
"554 477 LINE",
"429 418 OFFCURVE",
"375 344 OFFCURVE",
"330 271 CURVE",
"383 285 LINE",
"384 291 OFFCURVE",
"385 303 OFFCURVE",
"385 311 CURVE SMOOTH",
"385 423 OFFCURVE",
"319 500 OFFCURVE",
"202 500 CURVE SMOOTH",
"132 500 OFFCURVE",
"63 469 OFFCURVE",
"63 393 CURVE SMOOTH",
"63 374 OFFCURVE",
"67 348 OFFCURVE",
"80 320 CURVE",
"152 337 LINE",
"146 351 OFFCURVE",
"142 365 OFFCURVE",
"142 381 CURVE SMOOTH",
"142 410 OFFCURVE",
"161 431 OFFCURVE",
"204 431 CURVE SMOOTH",
"278 431 OFFCURVE",
"318 371 OFFCURVE",
"318 310 CURVE SMOOTH",
"318 281 OFFCURVE",
"307 255 OFFCURVE",
"283 223 CURVE SMOOTH",
"250 179 OFFCURVE",
"230 167 OFFCURVE",
"208 167 CURVE SMOOTH",
"182 167 OFFCURVE",
"166 180 OFFCURVE",
"140 222 CURVE",
"82 185 LINE",
"122 121 OFFCURVE",
"164 91 OFFCURVE",
"212 91 CURVE SMOOTH"
);
},
{
closed = 1;
nodes = (
"-10 622 LINE",
"-10 551 LINE",
"699 551 LINE",
"699 622 LINE"
);
},
{
closed = 1;
nodes = (
"227 468 LINE",
"221 525 OFFCURVE",
"191 559 OFFCURVE",
"116 589 CURVE",
"70 601 LINE",
"46 556 LINE",
"109 542 OFFCURVE",
"141 508 OFFCURVE",
"148 465 CURVE"
);
},
{
closed = 1;
nodes = (
"550 622 LINE",
"548 677 OFFCURVE",
"537 712 OFFCURVE",
"514 734 CURVE SMOOTH",
"486 762 OFFCURVE",
"447 771 OFFCURVE",
"376 771 CURVE SMOOTH",
"256 771 LINE SMOOTH",
"190 771 OFFCURVE",
"159 781 OFFCURVE",
"140 802 CURVE SMOOTH",
"126 817 OFFCURVE",
"121 840 OFFCURVE",
"121 869 CURVE SMOOTH",
"121 879 OFFCURVE",
"122 891 OFFCURVE",
"125 907 CURVE",
"51 912 LINE",
"48 893 OFFCURVE",
"46 876 OFFCURVE",
"46 859 CURVE SMOOTH",
"46 805 OFFCURVE",
"64 763 OFFCURVE",
"100 736 CURVE SMOOTH",
"133 711 OFFCURVE",
"174 699 OFFCURVE",
"262 699 CURVE SMOOTH",
"398 699 LINE SMOOTH",
"454 699 OFFCURVE",
"476 677 OFFCURVE",
"478 622 CURVE"
);
}
);
width = 689;
},
{
layerId = "46A56A9B-0135-45C3-BDA6-6C6C4BC92BD5";
paths = (
{
closed = 1;
nodes = (
"241 123 OFFCURVE",
"276 145 OFFCURVE",
"321 214 CURVE SMOOTH",
"417 359 OFFCURVE",
"488 424 OFFCURVE",
"566 473 CURVE",
"559 475 LINE",
"518 397 OFFCURVE",
"502 311 OFFCURVE",
"502 230 CURVE SMOOTH",
"502 145 OFFCURVE",
"518 76 OFFCURVE",
"541 -3 CURVE",
"567 3 LINE",
"543 84 OFFCURVE",
"528 149 OFFCURVE",
"528 230 CURVE SMOOTH",
"528 304 OFFCURVE",
"544 389 OFFCURVE",
"584 473 CURVE",
"557 495 LINE",
"467 442 OFFCURVE",
"382 355 OFFCURVE",
"345 282 CURVE",
"351 285 LINE",
"356 303 OFFCURVE",
"358 325 OFFCURVE",
"358 341 CURVE SMOOTH",
"358 436 OFFCURVE",
"293 514 OFFCURVE",
"191 514 CURVE SMOOTH",
"122 514 OFFCURVE",
"68 475 OFFCURVE",
"68 411 CURVE SMOOTH",
"68 387 OFFCURVE",
"75 362 OFFCURVE",
"86 340 CURVE",
"111 347 LINE",
"100 370 OFFCURVE",
"95 388 OFFCURVE",
"95 410 CURVE SMOOTH",
"95 465 OFFCURVE",
"137 488 OFFCURVE",
"191 488 CURVE SMOOTH",
"288 488 OFFCURVE",
"333 410 OFFCURVE",
"333 339 CURVE SMOOTH",
"333 287 OFFCURVE",
"323 260 OFFCURVE",
"293 217 CURVE SMOOTH",
"252 160 OFFCURVE",
"230 149 OFFCURVE",
"199 149 CURVE SMOOTH",
"173 149 OFFCURVE",
"143 164 OFFCURVE",
"113 221 CURVE",
"90 208 LINE",
"126 143 OFFCURVE",
"161 123 OFFCURVE",
"200 123 CURVE SMOOTH"
);
},
{
closed = 1;
nodes = (
"-10 622 LINE",
"-10 596 LINE",
"655 596 LINE",
"655 622 LINE"
);
},
{
closed = 1;
nodes = (
"198 507 LINE",
"190 557 OFFCURVE",
"156 592 OFFCURVE",
"91 613 CURVE",
"70 612 LINE",
"65 598 LINE",
"125 584 OFFCURVE",
"162 551 OFFCURVE",
"172 504 CURVE"
);
},
{
closed = 1;
nodes = (
"518 622 LINE",
"515 679 OFFCURVE",
"499 713 OFFCURVE",
"467 733 CURVE SMOOTH",
"446 746 OFFCURVE",
"421 752 OFFCURVE",
"378 752 CURVE SMOOTH",
"246 752 LINE SMOOTH",
"172 752 OFFCURVE",
"135 759 OFFCURVE",
"112 785 CURVE SMOOTH",
"97 802 OFFCURVE",
"89 828 OFFCURVE",
"89 863 CURVE SMOOTH",
"89 877 OFFCURVE",
"90 893 OFFCURVE",
"93 910 CURVE",
"66 912 LINE",
"63 895 OFFCURVE",
"62 878 OFFCURVE",
"62 862 CURVE SMOOTH",
"62 825 OFFCURVE",
"71 795 OFFCURVE",
"87 774 CURVE SMOOTH",
"118 734 OFFCURVE",
"173 726 OFFCURVE",
"248 726 CURVE SMOOTH",
"379 726 LINE SMOOTH",
"468 726 OFFCURVE",
"488 690 OFFCURVE",
"492 622 CURVE"
);
}
);
width = 645;
},
{
layerId = "22409DE3-74E9-441F-9C04-63D5519B89AC";
paths = (
{
closed = 1;
nodes = (
"328 48 OFFCURVE",
"383 82 OFFCURVE",
"438 171 CURVE SMOOTH",
"467 218 OFFCURVE",
"521 276 OFFCURVE",
"585 303 CURVE",
"558 361 LINE",
"521 306 OFFCURVE",
"489 233 OFFCURVE",
"489 162 CURVE SMOOTH",
"489 109 OFFCURVE",
"500 37 OFFCURVE",
"520 -14 CURVE",
"690 21 LINE",
"674 70 OFFCURVE",
"665 127 OFFCURVE",
"665 178 CURVE SMOOTH",
"665 236 OFFCURVE",
"672 297 OFFCURVE",
"698 349 CURVE",
"573 457 LINE",
"496 420 OFFCURVE",
"406 344 OFFCURVE",
"345 260 CURVE",
"442 257 LINE",
"443 270 OFFCURVE",
"444 288 OFFCURVE",
"444 305 CURVE",
"416 408 OFFCURVE",
"343 463 OFFCURVE",
"218 463 CURVE SMOOTH",
"121 463 OFFCURVE",
"36 429 OFFCURVE",
"36 335 CURVE SMOOTH",
"36 308 OFFCURVE",
"43 276 OFFCURVE",
"54 254 CURVE",
"208 278 LINE",
"205 286 OFFCURVE",
"204 292 OFFCURVE",
"204 302 CURVE SMOOTH",
"204 317 OFFCURVE",
"215 329 OFFCURVE",
"232 329 CURVE SMOOTH",
"264 329 OFFCURVE",
"280 296 OFFCURVE",
"280 262 CURVE SMOOTH",
"280 231 OFFCURVE",
"273 216 OFFCURVE",
"262 206 CURVE SMOOTH",
"249 194 OFFCURVE",
"239 190 OFFCURVE",
"227 190 CURVE SMOOTH",
"208 190 OFFCURVE",
"192 204 OFFCURVE",
"172 235 CURVE",
"58 167 LINE",
"100 95 OFFCURVE",
"160 48 OFFCURVE",
"246 48 CURVE SMOOTH"
);
},
{
closed = 1;
nodes = (
"-10 622 LINE",
"-10 484 LINE",
"753 484 LINE",
"753 622 LINE"
);
},
{
closed = 1;
nodes = (
"285 403 LINE",
"277 460 OFFCURVE",
"249 497 OFFCURVE",
"175 528 CURVE",
"127 536 LINE",
"29 492 LINE",
"92 477 OFFCURVE",
"128 444 OFFCURVE",
"133 400 CURVE"
);
},
{
closed = 1;
nodes = (
"652 622 LINE",
"648 698 OFFCURVE",
"633 745 OFFCURVE",
"598 774 CURVE SMOOTH",
"562 803 OFFCURVE",
"522 812 OFFCURVE",
"441 812 CURVE SMOOTH",
"305 812 LINE SMOOTH",
"257 812 OFFCURVE",
"238 815 OFFCURVE",
"224 826 CURVE SMOOTH",
"211 836 OFFCURVE",
"206 851 OFFCURVE",
"206 877 CURVE SMOOTH",
"206 883 OFFCURVE",
"207 893 OFFCURVE",
"209 905 CURVE",
"44 915 LINE",
"40 891 OFFCURVE",
"38 872 OFFCURVE",
"38 853 CURVE SMOOTH",
"38 799 OFFCURVE",
"50 760 OFFCURVE",
"74 733 CURVE SMOOTH",
"113 689 OFFCURVE",
"175 675 OFFCURVE",
"290 675 CURVE SMOOTH",
"427 675 LINE SMOOTH",
"471 675 OFFCURVE",
"482 659 OFFCURVE",
"485 622 CURVE"
);
}
);
width = 743;
},
{
layerId = "F0143EB7-DEA3-4B38-8B70-DEA25CF19AA9";
paths = (
{
closed = 1;
nodes = (
"206 92 OFFCURVE",
"234 124 OFFCURVE",
"278 212 CURVE SMOOTH",
"333 323 OFFCURVE",
"378 378 OFFCURVE",
"432 417 CURVE",
"404 404 LINE",
"376 346 OFFCURVE",
"364 291 OFFCURVE",
"364 207 CURVE SMOOTH",
"364 143 OFFCURVE",
"374 71 OFFCURVE",
"395 -7 CURVE",
"464 10 LINE",
"442 87 OFFCURVE",
"435 138 OFFCURVE",
"435 197 CURVE SMOOTH",
"435 285 OFFCURVE",
"448 348 OFFCURVE",
"477 419 CURVE",
"410 480 LINE",
"335 430 OFFCURVE",
"280 344 OFFCURVE",
"247 270 CURVE",
"286 267 LINE",
"289 280 OFFCURVE",
"290 298 OFFCURVE",
"290 311 CURVE SMOOTH",
"290 430 OFFCURVE",
"233 500 OFFCURVE",
"148 500 CURVE SMOOTH",
"96 500 OFFCURVE",
"43 470 OFFCURVE",
"43 393 CURVE SMOOTH",
"43 375 OFFCURVE",
"48 344 OFFCURVE",
"56 321 CURVE",
"123 335 LINE",
"119 348 OFFCURVE",
"115 367 OFFCURVE",
"115 383 CURVE SMOOTH",
"115 413 OFFCURVE",
"129 432 OFFCURVE",
"155 432 CURVE SMOOTH",
"201 432 OFFCURVE",
"226 373 OFFCURVE",
"226 306 CURVE SMOOTH",
"226 282 OFFCURVE",
"226 254 OFFCURVE",
"208 221 CURVE SMOOTH",
"183 176 OFFCURVE",
"170 167 OFFCURVE",
"154 167 CURVE SMOOTH",
"137 167 OFFCURVE",
"127 176 OFFCURVE",
"111 220 CURVE",
"53 198 LINE",
"80 123 OFFCURVE",
"109 92 OFFCURVE",
"158 92 CURVE SMOOTH"
);
},
{
closed = 1;
nodes = (
"-6 622 LINE",
"-6 554 LINE",
"523 554 LINE",
"523 622 LINE"
);
},
{
closed = 1;
nodes = (
"177 470 LINE",
"172 527 OFFCURVE",
"144 556 OFFCURVE",
"85 582 CURVE",
"52 594 LINE",
"21 559 LINE",
"70 544 OFFCURVE",
"99 511 OFFCURVE",
"104 467 CURVE"
);
},
{
closed = 1;
nodes = (
"425 622 LINE",
"423 681 OFFCURVE",
"415 716 OFFCURVE",
"389 741 CURVE SMOOTH",
"368 761 OFFCURVE",
"340 771 OFFCURVE",
"283 771 CURVE SMOOTH",
"212 771 LINE SMOOTH",
"165 771 OFFCURVE",
"144 778 OFFCURVE",
"128 792 CURVE SMOOTH",
"109 808 OFFCURVE",
"103 834 OFFCURVE",
"103 866 CURVE SMOOTH",
"103 879 OFFCURVE",
"104 892 OFFCURVE",
"106 907 CURVE",
"39 912 LINE",
"36 896 OFFCURVE",
"34 877 OFFCURVE",
"34 859 CURVE SMOOTH",
"34 808 OFFCURVE",
"47 766 OFFCURVE",
"78 739 CURVE SMOOTH",
"106 715 OFFCURVE",
"146 702 OFFCURVE",
"215 702 CURVE SMOOTH",
"284 702 LINE SMOOTH",
"341 702 OFFCURVE",
"355 673 OFFCURVE",
"358 622 CURVE"
);
}
);
width = 517;
}
);
unicode = 0988;
},
{
glyphname = ubeng;
lastChange = "2020-04-14 07:51:14 +0000";
layers = (
{
components = (
{
name = ddabeng;
}
);
layerId = "8680C114-EF70-46E9-96FB-C90A78B2DAE0";
paths = (
{
closed = 1;
nodes = (
"634 622 LINE",
"632 684 OFFCURVE",
"618 724 OFFCURVE",
"593 749 CURVE SMOOTH",
"561 780 OFFCURVE",
"520 790 OFFCURVE",
"441 790 CURVE SMOOTH",
"295 790 LINE SMOOTH",
"244 790 OFFCURVE",
"226 797 OFFCURVE",
"212 810 CURVE SMOOTH",
"197 824 OFFCURVE",
"192 847 OFFCURVE",
"192 875 CURVE SMOOTH",
"192 883 OFFCURVE",
"193 892 OFFCURVE",
"194 904 CURVE",
"69 912 LINE",
"65 888 OFFCURVE",
"64 874 OFFCURVE",
"64 854 CURVE SMOOTH",
"64 805 OFFCURVE",
"75 767 OFFCURVE",
"100 739 CURVE SMOOTH",
"136 699 OFFCURVE",
"197 680 OFFCURVE",
"298 680 CURVE SMOOTH",
"440 680 LINE SMOOTH",
"490 680 OFFCURVE",
"507 663 OFFCURVE",
"509 622 CURVE"
);
}
);
width = 741;
},
{
components = (
{
name = ddabeng;
}
);
layerId = UUID0;
paths = (
{
closed = 1;
nodes = (
"580 622 LINE",
"578 677 OFFCURVE",
"567 712 OFFCURVE",
"544 734 CURVE SMOOTH",
"515 762 OFFCURVE",
"478 771 OFFCURVE",
"407 771 CURVE SMOOTH",
"283 771 LINE SMOOTH",
"216 771 OFFCURVE",
"186 781 OFFCURVE",
"167 802 CURVE SMOOTH",
"153 817 OFFCURVE",
"148 840 OFFCURVE",
"148 869 CURVE SMOOTH",
"148 879 OFFCURVE",
"149 891 OFFCURVE",
"152 907 CURVE",
"78 912 LINE",
"75 893 OFFCURVE",
"73 876 OFFCURVE",
"73 859 CURVE SMOOTH",
"73 805 OFFCURVE",
"91 763 OFFCURVE",
"127 736 CURVE SMOOTH",
"160 711 OFFCURVE",
"201 699 OFFCURVE",
"288 699 CURVE SMOOTH",
"428 699 LINE SMOOTH",
"484 699 OFFCURVE",
"506 677 OFFCURVE",
"508 622 CURVE"
);
}
);
width = 712;
},
{
components = (
{
name = ddabeng;
}
);
layerId = "46A56A9B-0135-45C3-BDA6-6C6C4BC92BD5";
paths = (
{
closed = 1;
nodes = (
"548 622 LINE",
"545 679 OFFCURVE",
"529 713 OFFCURVE",
"497 733 CURVE SMOOTH",
"476 746 OFFCURVE",
"451 752 OFFCURVE",
"408 752 CURVE SMOOTH",
"261 752 LINE SMOOTH",
"187 752 OFFCURVE",
"150 759 OFFCURVE",
"127 785 CURVE SMOOTH",
"112 802 OFFCURVE",
"104 828 OFFCURVE",
"104 863 CURVE SMOOTH",
"104 877 OFFCURVE",
"105 893 OFFCURVE",
"108 910 CURVE",
"81 912 LINE",
"78 895 OFFCURVE",
"77 878 OFFCURVE",
"77 862 CURVE SMOOTH",
"77 825 OFFCURVE",
"86 795 OFFCURVE",
"102 774 CURVE SMOOTH",
"133 734 OFFCURVE",
"188 726 OFFCURVE",
"263 726 CURVE SMOOTH",
"409 726 LINE SMOOTH",
"498 726 OFFCURVE",
"518 690 OFFCURVE",
"522 622 CURVE"
);
}
);
width = 679;
},
{
components = (
{
name = ddabeng;
}
);
layerId = "22409DE3-74E9-441F-9C04-63D5519B89AC";
paths = (
{
closed = 1;
nodes = (
"675 622 LINE",
"671 698 OFFCURVE",
"656 745 OFFCURVE",
"621 774 CURVE SMOOTH",
"585 803 OFFCURVE",
"545 812 OFFCURVE",
"464 812 CURVE SMOOTH",
"335 812 LINE SMOOTH",
"287 812 OFFCURVE",
"268 815 OFFCURVE",
"254 826 CURVE SMOOTH",
"241 836 OFFCURVE",
"236 851 OFFCURVE",
"236 877 CURVE SMOOTH",
"236 883 OFFCURVE",
"237 893 OFFCURVE",
"239 905 CURVE",
"74 915 LINE",
"70 891 OFFCURVE",
"68 872 OFFCURVE",
"68 853 CURVE SMOOTH",
"68 799 OFFCURVE",
"80 760 OFFCURVE",
"104 733 CURVE SMOOTH",
"143 689 OFFCURVE",
"205 675 OFFCURVE",
"320 675 CURVE SMOOTH",
"450 675 LINE SMOOTH",
"494 675 OFFCURVE",
"505 659 OFFCURVE",
"508 622 CURVE"
);
}
);
width = 782;
},
{
components = (
{
name = ddabeng;
}
);
layerId = "F0143EB7-DEA3-4B38-8B70-DEA25CF19AA9";
paths = (
{
closed = 1;
nodes = (
"432 622 LINE",
"430 681 OFFCURVE",
"422 716 OFFCURVE",
"396 741 CURVE SMOOTH",
"375 761 OFFCURVE",
"347 771 OFFCURVE",
"290 771 CURVE SMOOTH",
"237 771 LINE SMOOTH",
"190 771 OFFCURVE",
"169 778 OFFCURVE",
"153 792 CURVE SMOOTH",
"134 808 OFFCURVE",
"128 834 OFFCURVE",
"128 866 CURVE SMOOTH",
"128 879 OFFCURVE",
"129 892 OFFCURVE",
"131 907 CURVE",
"64 912 LINE",
"61 896 OFFCURVE",
"59 877 OFFCURVE",
"59 859 CURVE SMOOTH",
"59 808 OFFCURVE",
"72 766 OFFCURVE",
"103 739 CURVE SMOOTH",
"131 715 OFFCURVE",
"171 702 OFFCURVE",
"240 702 CURVE SMOOTH",
"291 702 LINE SMOOTH",
"348 702 OFFCURVE",
"362 673 OFFCURVE",
"365 622 CURVE"
);
}
);
width = 525;
}
);
unicode = 0989;
},
{
glyphname = uubeng;
lastChange = "2020-04-14 07:51:14 +0000";
layers = (
{
layerId = "8680C114-EF70-46E9-96FB-C90A78B2DAE0";
paths = (
{
closed = 1;
nodes = (
"-10 622 LINE",
"-10 512 LINE",
"416 512 LINE",
"416 400 LINE SMOOTH",
"416 337 OFFCURVE",
"427 299 OFFCURVE",
"450 274 CURVE SMOOTH",
"472 249 OFFCURVE",
"506 236 OFFCURVE",
"549 236 CURVE SMOOTH",
"604 236 OFFCURVE",
"668 260 OFFCURVE",
"719 316 CURVE",
"700 317 LINE",
"707 302 OFFCURVE",
"712 283 OFFCURVE",
"712 260 CURVE SMOOTH",
"712 183 OFFCURVE",
"662 134 OFFCURVE",
"572 134 CURVE SMOOTH",
"452 134 OFFCURVE",
"367 193 OFFCURVE",
"304 438 CURVE",
"190 403 LINE",
"225 290 OFFCURVE",
"281 200 OFFCURVE",
"337 139 CURVE",
"334 136 LINE",
"259 188 OFFCURVE",
"184 273 OFFCURVE",
"128 433 CURVE",
"16 395 LINE",
"126 114 OFFCURVE",
"299 20 OFFCURVE",
"550 20 CURVE SMOOTH",
"762 20 OFFCURVE",
"843 118 OFFCURVE",
"843 240 CURVE SMOOTH",
"843 318 OFFCURVE",
"820 379 OFFCURVE",
"775 445 CURVE",
"664 423 LINE",
"632 378 OFFCURVE",
"600 347 OFFCURVE",
"574 347 CURVE SMOOTH",
"553 347 OFFCURVE",
"548 363 OFFCURVE",
"548 383 CURVE SMOOTH",
"548 512 LINE",
"889 512 LINE",
"889 622 LINE"
);
},
{
closed = 1;
nodes = (
"772 622 LINE",
"770 684 OFFCURVE",
"756 724 OFFCURVE",
"731 749 CURVE SMOOTH",
"699 780 OFFCURVE",
"658 790 OFFCURVE",
"579 790 CURVE SMOOTH",
"404 790 LINE SMOOTH",
"353 790 OFFCURVE",
"335 797 OFFCURVE",
"321 810 CURVE SMOOTH",
"306 824 OFFCURVE",
"301 847 OFFCURVE",
"301 875 CURVE SMOOTH",
"301 883 OFFCURVE",
"302 892 OFFCURVE",
"303 904 CURVE",
"178 912 LINE",
"174 888 OFFCURVE",
"173 874 OFFCURVE",
"173 854 CURVE SMOOTH",
"173 805 OFFCURVE",
"184 767 OFFCURVE",
"209 739 CURVE SMOOTH",
"245 699 OFFCURVE",
"306 680 OFFCURVE",
"407 680 CURVE SMOOTH",
"578 680 LINE SMOOTH",
"628 680 OFFCURVE",
"645 663 OFFCURVE",
"647 622 CURVE"
);
}
);
width = 879;
},
{
layerId = UUID0;
paths = (
{
closed = 1;
nodes = (
"-10 622 LINE",
"-10 551 LINE",
"419 551 LINE",
"419 393 LINE SMOOTH",
"419 313 OFFCURVE",
"436 287 OFFCURVE",
"457 268 CURVE SMOOTH",
"476 251 OFFCURVE",
"503 242 OFFCURVE",
"534 242 CURVE SMOOTH",
"601 242 OFFCURVE",
"663 301 OFFCURVE",
"707 370 CURVE",
"680 368 LINE",
"699 345 OFFCURVE",
"720 305 OFFCURVE",
"720 244 CURVE SMOOTH",
"720 166 OFFCURVE",
"668 100 OFFCURVE",
"555 100 CURVE SMOOTH",
"411 100 OFFCURVE",
"341 209 OFFCURVE",
"274 461 CURVE",
"199 440 LINE",
"232 317 OFFCURVE",
"289 184 OFFCURVE",
"372 109 CURVE",
"369 106 LINE",
"223 192 OFFCURVE",
"156 312 OFFCURVE",
"104 458 CURVE",
"29 435 LINE",
"150 120 OFFCURVE",
"329 24 OFFCURVE",
"548 24 CURVE SMOOTH",
"720 24 OFFCURVE",
"796 123 OFFCURVE",
"796 245 CURVE SMOOTH",
"796 312 OFFCURVE",
"772 379 OFFCURVE",
"729 442 CURVE",
"669 433 LINE",
"612 350 OFFCURVE",
"571 316 OFFCURVE",
"533 316 CURVE SMOOTH",
"507 316 OFFCURVE",
"496 333 OFFCURVE",
"496 372 CURVE SMOOTH",
"496 551 LINE",
"863 551 LINE",
"863 622 LINE"
);
},
{
closed = 1;
nodes = (
"721 622 LINE",
"719 677 OFFCURVE",
"708 712 OFFCURVE",
"685 734 CURVE SMOOTH",
"656 762 OFFCURVE",
"619 771 OFFCURVE",
"548 771 CURVE SMOOTH",
"378 771 LINE SMOOTH",
"312 771 OFFCURVE",
"281 781 OFFCURVE",
"262 802 CURVE SMOOTH",
"248 817 OFFCURVE",
"243 840 OFFCURVE",
"243 869 CURVE SMOOTH",
"243 880 OFFCURVE",
"244 892 OFFCURVE",
"247 907 CURVE",
"173 912 LINE",
"170 893 OFFCURVE",
"168 876 OFFCURVE",
"168 859 CURVE SMOOTH",
"168 805 OFFCURVE",
"186 763 OFFCURVE",
"222 736 CURVE SMOOTH",
"255 711 OFFCURVE",
"296 699 OFFCURVE",
"384 699 CURVE SMOOTH",
"569 699 LINE SMOOTH",
"625 699 OFFCURVE",
"647 677 OFFCURVE",
"649 622 CURVE"
);
}
);
width = 853;
},
{
layerId = "46A56A9B-0135-45C3-BDA6-6C6C4BC92BD5";
paths = (
{
closed = 1;
nodes = (
"-10 622 LINE",
"-10 596 LINE",
"363 596 LINE",
"363 390 LINE SMOOTH",
"363 343 OFFCURVE",
"370 315 OFFCURVE",
"388 298 CURVE SMOOTH",
"401 285 OFFCURVE",
"421 279 OFFCURVE",
"443 279 CURVE SMOOTH",
"495 279 OFFCURVE",
"558 311 OFFCURVE",
"619 429 CURVE",
"605 433 LINE",
"641 381 OFFCURVE",
"657 319 OFFCURVE",
"657 260 CURVE SMOOTH",
"657 152 OFFCURVE",
"595 79 OFFCURVE",
"479 79 CURVE SMOOTH",
"322 79 OFFCURVE",
"241 235 OFFCURVE",
"175 475 CURVE",
"149 468 LINE",
"208 253 OFFCURVE",
"271 140 OFFCURVE",
"370 86 CURVE",
"369 84 LINE",
"230 138 OFFCURVE",
"126 257 OFFCURVE",
"58 470 CURVE",
"32 463 LINE",
"112 211 OFFCURVE",
"256 53 OFFCURVE",
"473 53 CURVE SMOOTH",
"611 53 OFFCURVE",
"684 140 OFFCURVE",
"684 262 CURVE SMOOTH",
"684 332 OFFCURVE",
"663 395 OFFCURVE",
"625 449 CURVE",
"599 445 LINE",
"540 333 OFFCURVE",
"489 305 OFFCURVE",
"443 305 CURVE SMOOTH",
"400 305 OFFCURVE",
"389 329 OFFCURVE",
"389 391 CURVE SMOOTH",
"389 596 LINE",
"764 596 LINE",
"764 622 LINE"
);
},
{
closed = 1;
nodes = (
"623 622 LINE",
"620 679 OFFCURVE",
"604 713 OFFCURVE",
"572 733 CURVE SMOOTH",
"551 746 OFFCURVE",
"526 752 OFFCURVE",
"483 752 CURVE SMOOTH",
"316 752 LINE SMOOTH",
"242 752 OFFCURVE",
"205 759 OFFCURVE",
"182 785 CURVE SMOOTH",
"167 802 OFFCURVE",
"159 828 OFFCURVE",
"159 863 CURVE SMOOTH",
"159 877 OFFCURVE",
"160 893 OFFCURVE",
"163 910 CURVE",
"136 912 LINE",
"133 895 OFFCURVE",
"132 878 OFFCURVE",
"132 862 CURVE SMOOTH",
"132 825 OFFCURVE",
"141 795 OFFCURVE",
"157 774 CURVE SMOOTH",
"188 734 OFFCURVE",
"243 726 OFFCURVE",
"318 726 CURVE SMOOTH",
"484 726 LINE SMOOTH",
"573 726 OFFCURVE",
"593 690 OFFCURVE",
"597 622 CURVE"
);
}
);
width = 754;
},
{
layerId = "22409DE3-74E9-441F-9C04-63D5519B89AC";
paths = (
{
closed = 1;
nodes = (
"-10 622 LINE",
"-10 484 LINE",
"411 484 LINE",
"411 397 LINE SMOOTH",
"411 338 OFFCURVE",
"425 299 OFFCURVE",
"450 271 CURVE SMOOTH",
"478 240 OFFCURVE",
"523 227 OFFCURVE",
"578 227 CURVE SMOOTH",
"633 227 OFFCURVE",
"683 242 OFFCURVE",
"732 277 CURVE",
"711 280 LINE",
"713 272 OFFCURVE",
"714 264 OFFCURVE",
"714 255 CURVE SMOOTH",
"714 187 OFFCURVE",
"656 158 OFFCURVE",
"587 158 CURVE SMOOTH",
"503 158 OFFCURVE",
"407 192 OFFCURVE",
"340 423 CURVE",
"198 380 LINE",
"236 277 OFFCURVE",
"292 203 OFFCURVE",
"339 154 CURVE",
"336 150 LINE",
"254 215 OFFCURVE",
"194 303 OFFCURVE",
"149 414 CURVE",
"13 364 LINE",
"116 128 OFFCURVE",
"283 17 OFFCURVE",
"579 17 CURVE SMOOTH",
"799 17 OFFCURVE",
"885 110 OFFCURVE",
"885 238 CURVE SMOOTH",
"885 319 OFFCURVE",
"859 372 OFFCURVE",
"808 443 CURVE",
"683 421 LINE",
"662 383 OFFCURVE",
"637 362 OFFCURVE",
"612 362 CURVE SMOOTH",
"593 362 OFFCURVE",
"586 373 OFFCURVE",
"586 396 CURVE SMOOTH",
"586 484 LINE",
"923 484 LINE",
"923 622 LINE"
);
},
{
closed = 1;
nodes = (
"806 622 LINE",
"802 698 OFFCURVE",
"787 745 OFFCURVE",
"752 774 CURVE SMOOTH",
"716 803 OFFCURVE",
"676 812 OFFCURVE",
"595 812 CURVE SMOOTH",
"445 812 LINE SMOOTH",
"397 812 OFFCURVE",
"378 815 OFFCURVE",
"364 826 CURVE SMOOTH",
"351 836 OFFCURVE",
"346 851 OFFCURVE",
"346 877 CURVE SMOOTH",
"346 883 OFFCURVE",
"347 893 OFFCURVE",
"349 905 CURVE",
"184 915 LINE",
"180 891 OFFCURVE",
"178 872 OFFCURVE",
"178 853 CURVE SMOOTH",
"178 799 OFFCURVE",
"190 760 OFFCURVE",
"214 733 CURVE SMOOTH",
"253 689 OFFCURVE",
"315 675 OFFCURVE",
"430 675 CURVE SMOOTH",
"581 675 LINE SMOOTH",
"625 675 OFFCURVE",
"636 659 OFFCURVE",
"639 622 CURVE"
);
}
);
width = 913;
},
{
layerId = "F0143EB7-DEA3-4B38-8B70-DEA25CF19AA9";
paths = (
{
closed = 1;
nodes = (
"-6 622 LINE",
"-6 554 LINE",
"310 554 LINE",
"310 369 LINE SMOOTH",
"310 315 OFFCURVE",
"318 290 OFFCURVE",
"336 270 CURVE SMOOTH",
"351 254 OFFCURVE",
"374 245 OFFCURVE",
"399 245 CURVE SMOOTH",
"451 245 OFFCURVE",
"495 285 OFFCURVE",
"531 372 CURVE",
"506 363 LINE",
"516 341 OFFCURVE",
"526 299 OFFCURVE",
"526 243 CURVE SMOOTH",
"526 145 OFFCURVE",
"485 95 OFFCURVE",
"415 95 CURVE SMOOTH",
"304 95 OFFCURVE",
"258 228 OFFCURVE",
"221 462 CURVE",
"152 449 LINE",
"182 268 OFFCURVE",
"225 163 OFFCURVE",
"293 97 CURVE",
"291 94 LINE",
"187 161 OFFCURVE",
"131 280 OFFCURVE",
"86 456 CURVE",
"18 439 LINE",
"106 123 OFFCURVE",
"242 24 OFFCURVE",
"403 24 CURVE SMOOTH",
"532 24 OFFCURVE",
"597 108 OFFCURVE",
"597 245 CURVE SMOOTH",
"597 313 OFFCURVE",
"579 376 OFFCURVE",
"552 438 CURVE",
"490 429 LINE",
"464 353 OFFCURVE",
"428 315 OFFCURVE",
"404 315 CURVE SMOOTH",
"388 315 OFFCURVE",
"381 327 OFFCURVE",
"381 350 CURVE SMOOTH",
"381 554 LINE",
"643 554 LINE",
"643 622 LINE"
);
},
{
closed = 1;
nodes = (
"544 622 LINE",
"542 681 OFFCURVE",
"534 716 OFFCURVE",
"508 741 CURVE SMOOTH",
"487 761 OFFCURVE",
"459 771 OFFCURVE",
"402 771 CURVE SMOOTH",
"293 771 LINE SMOOTH",
"246 771 OFFCURVE",
"225 778 OFFCURVE",
"209 792 CURVE SMOOTH",
"190 808 OFFCURVE",
"184 834 OFFCURVE",
"184 866 CURVE SMOOTH",
"184 879 OFFCURVE",
"185 892 OFFCURVE",
"187 907 CURVE",
"120 912 LINE",
"117 896 OFFCURVE",
"115 877 OFFCURVE",
"115 859 CURVE SMOOTH",
"115 808 OFFCURVE",
"128 766 OFFCURVE",
"159 739 CURVE SMOOTH",
"187 715 OFFCURVE",
"227 702 OFFCURVE",
"296 702 CURVE SMOOTH",
"403 702 LINE SMOOTH",
"460 702 OFFCURVE",
"474 673 OFFCURVE",
"477 622 CURVE"
);
}
);
width = 637;
}
);
unicode = 098A;
},
{
glyphname = rvocalicbeng;
lastChange = "2020-04-14 07:51:14 +0000";
layers = (
{
layerId = "8680C114-EF70-46E9-96FB-C90A78B2DAE0";
paths = (
{
closed = 1;
nodes = (
"492 688 LINE",
"492 472 LINE",
"365 428 OFFCURVE",
"231 372 OFFCURVE",
"124 312 CURVE",
"174 194 LINE",
"323 166 OFFCURVE",
"436 81 OFFCURVE",
"492 0 CURVE",
"624 0 LINE",
"624 622 LINE",
"600 688 LINE"
);
},
{
closed = 1;
nodes = (
"492 224 LINE",
"492 191 OFFCURVE",
"494 166 OFFCURVE",
"496 145 CURVE",
"441 203 OFFCURVE",
"356 252 OFFCURVE",
"283 268 CURVE",
"357 307 OFFCURVE",
"414 331 OFFCURVE",
"492 356 CURVE"
);
},
{
closed = 1;
nodes = (
"495 471 LINE",
"475 527 OFFCURVE",
"434 589 OFFCURVE",
"408 625 CURVE",
"302 548 LINE",
"342 521 OFFCURVE",
"379 472 OFFCURVE",
"399 430 CURVE"
);
},
{
closed = 1;
nodes = (
"291 421 OFFCURVE",
"352 469 OFFCURVE",
"426 569 CURVE",
"408 625 LINE",
"309 603 LINE",
"276 547 OFFCURVE",
"242 532 OFFCURVE",
"213 532 CURVE SMOOTH",
"190 532 OFFCURVE",
"174 542 OFFCURVE",
"174 566 CURVE SMOOTH",
"174 578 OFFCURVE",
"177 588 OFFCURVE",
"183 600 CURVE",
"65 628 LINE",
"53 604 OFFCURVE",
"44 575 OFFCURVE",
"44 543 CURVE SMOOTH",
"44 467 OFFCURVE",
"101 421 OFFCURVE",
"191 421 CURVE SMOOTH"
);
},
{
closed = 1;
nodes = (
"717 688 LINE",
"717 273 LINE SMOOTH",
"717 240 OFFCURVE",
"718 209 OFFCURVE",
"720 186 CURVE",
"738 197 LINE",
"680 266 OFFCURVE",
"602 313 OFFCURVE",
"529 336 CURVE",
"521 232 LINE",
"603 196 OFFCURVE",
"669 143 OFFCURVE",
"717 74 CURVE",
"849 74 LINE",
"849 622 LINE",
"825 688 LINE"
);
}
);
width = 932;
},
{
layerId = UUID0;
paths = (
{
closed = 1;
nodes = (
"477 688 LINE",
"477 477 LINE",
"353 439 OFFCURVE",
"230 381 OFFCURVE",
"116 316 CURVE",
"155 224 LINE",
"298 202 OFFCURVE",
"421 106 OFFCURVE",
"477 0 CURVE",
"554 0 LINE",
"554 622 LINE",
"530 688 LINE"
);
},
{
closed = 1;
nodes = (
"477 187 LINE",
"477 154 OFFCURVE",
"479 131 OFFCURVE",
"480 108 CURVE",
"425 197 OFFCURVE",
"301 263 OFFCURVE",
"209 284 CURVE",
"292 331 OFFCURVE",
"391 374 OFFCURVE",
"477 402 CURVE"
);
},
{
closed = 1;
nodes = (
"479 474 LINE",
"454 530 OFFCURVE",
"411 589 OFFCURVE",
"374 625 CURVE",
"320 573 LINE",
"360 545 OFFCURVE",
"396 496 OFFCURVE",
"417 455 CURVE"
);
},
{
closed = 1;
nodes = (
"271 430 OFFCURVE",
"335 493 OFFCURVE",
"378 574 CURVE",
"374 625 LINE",
"316 612 LINE",
"269 518 OFFCURVE",
"221 501 OFFCURVE",
"182 501 CURVE SMOOTH",
"151 501 OFFCURVE",
"130 517 OFFCURVE",
"130 552 CURVE SMOOTH",
"130 573 OFFCURVE",
"138 593 OFFCURVE",
"147 607 CURVE",
"71 628 LINE",
"59 608 OFFCURVE",
"49 579 OFFCURVE",
"49 548 CURVE SMOOTH",
"49 474 OFFCURVE",
"102 430 OFFCURVE",
"183 430 CURVE SMOOTH"
);
},
{
closed = 1;
nodes = (
"685 688 LINE",
"685 257 LINE SMOOTH",
"685 214 OFFCURVE",
"687 188 OFFCURVE",
"690 157 CURVE",
"697 160 LINE",
"673 215 OFFCURVE",
"603 286 OFFCURVE",
"546 318 CURVE",
"521 255 LINE",
"585 212 OFFCURVE",
"646 152 OFFCURVE",
"685 73 CURVE",
"762 73 LINE",
"762 622 LINE",
"738 688 LINE"
);
}
);
width = 853;
},
{
layerId = "46A56A9B-0135-45C3-BDA6-6C6C4BC92BD5";
paths = (
{
closed = 1;
nodes = (
"463 676 LINE",
"463 494 LINE",
"344 451 OFFCURVE",
"225 390 OFFCURVE",
"105 316 CURVE",
"119 282 LINE",
"279 244 OFFCURVE",
"404 136 OFFCURVE",
"463 0 CURVE",
"489 0 LINE",
"489 622 LINE",
"484 676 LINE"
);
},
{
closed = 1;
nodes = (
"463 168 LINE",
"463 108 OFFCURVE",
"465 74 OFFCURVE",
"467 42 CURVE",
"414 171 OFFCURVE",
"274 268 OFFCURVE",
"134 305 CURVE",
"227 362 OFFCURVE",
"368 433 OFFCURVE",
"463 468 CURVE"
);
},
{
closed = 1;
nodes = (
"468 475 LINE",
"439 531 OFFCURVE",
"384 589 OFFCURVE",
"341 625 CURVE",
"325 604 LINE",
"363 575 OFFCURVE",
"415 517 OFFCURVE",
"438 477 CURVE"
);
},
{
closed = 1;
nodes = (
"241 446 OFFCURVE",
"301 506 OFFCURVE",
"339 601 CURVE",
"341 625 LINE",
"319 620 LINE",
"273 502 OFFCURVE",
"213 472 OFFCURVE",
"157 472 CURVE SMOOTH",
"117 472 OFFCURVE",
"82 495 OFFCURVE",
"82 549 CURVE SMOOTH",
"82 573 OFFCURVE",
"89 599 OFFCURVE",
"100 620 CURVE",
"75 628 LINE",
"64 607 OFFCURVE",
"55 580 OFFCURVE",
"55 549 CURVE SMOOTH",
"55 485 OFFCURVE",
"98 446 OFFCURVE",
"157 446 CURVE SMOOTH"
);
},
{
closed = 1;
nodes = (
"656 676 LINE",
"656 240 LINE SMOOTH",
"656 180 OFFCURVE",
"658 133 OFFCURVE",
"662 95 CURVE",
"668 95 LINE",
"621 215 OFFCURVE",
"537 287 OFFCURVE",
"483 322 CURVE",
"481 293 LINE",
"553 241 OFFCURVE",
"614 167 OFFCURVE",
"656 72 CURVE",
"682 72 LINE",
"682 622 LINE",
"677 676 LINE"
);
}
);
width = 781;
},
{
layerId = "22409DE3-74E9-441F-9C04-63D5519B89AC";
paths = (
{
closed = 1;
nodes = (
"506 692 LINE",
"506 447 LINE",
"395 419 OFFCURVE",
"272 379 OFFCURVE",
"151 319 CURVE",
"213 164 LINE",
"370 133 OFFCURVE",
"448 62 OFFCURVE",
"504 0 CURVE",
"679 0 LINE",
"679 622 LINE",
"654 692 LINE"
);
},
{
closed = 1;
nodes = (
"504 252 LINE",
"504 219 OFFCURVE",
"505 193 OFFCURVE",
"507 171 CURVE",
"451 216 OFFCURVE",
"411 235 OFFCURVE",
"346 255 CURVE",
"410 284 OFFCURVE",
"449 300 OFFCURVE",
"504 314 CURVE"
);
},
{
closed = 1;
nodes = (
"517 446 LINE",
"493 513 OFFCURVE",
"464 575 OFFCURVE",
"431 625 CURVE",
"296 532 LINE",
"336 499 OFFCURVE",
"368 455 OFFCURVE",
"387 412 CURVE"
);
},
{
closed = 1;
nodes = (
"305 410 OFFCURVE",
"360 448 OFFCURVE",
"458 565 CURVE",
"431 625 LINE",
"310 598 LINE",
"287 560 OFFCURVE",
"263 545 OFFCURVE",
"239 545 CURVE SMOOTH",
"218 545 OFFCURVE",
"212 556 OFFCURVE",
"212 572 CURVE SMOOTH",
"212 581 OFFCURVE",
"214 589 OFFCURVE",
"219 600 CURVE",
"64 628 LINE",
"52 601 OFFCURVE",
"44 572 OFFCURVE",
"44 544 CURVE SMOOTH",
"44 462 OFFCURVE",
"102 410 OFFCURVE",
"206 410 CURVE SMOOTH"
);
},
{
closed = 1;
nodes = (
"756 692 LINE",
"756 308 LINE SMOOTH",
"756 280 OFFCURVE",
"759 242 OFFCURVE",
"762 216 CURVE",
"789 214 LINE",
"748 264 OFFCURVE",
"682 308 OFFCURVE",
"600 331 CURVE",
"570 214 LINE",
"661 172 OFFCURVE",
"707 134 OFFCURVE",
"756 75 CURVE",
"931 75 LINE",
"931 622 LINE",
"906 692 LINE"
);
}
);
width = 1003;
},
{
layerId = "F0143EB7-DEA3-4B38-8B70-DEA25CF19AA9";
paths = (
{
closed = 1;
nodes = (
"350 688 LINE",
"350 479 LINE",
"261 440 OFFCURVE",
"164 379 OFFCURVE",
"85 316 CURVE",
"116 231 LINE",
"220 202 OFFCURVE",
"309 108 OFFCURVE",
"349 0 CURVE",
"421 0 LINE",
"421 622 LINE",
"403 688 LINE"
);
},
{
closed = 1;
nodes = (
"350 191 LINE",
"350 158 OFFCURVE",
"350 135 OFFCURVE",
"352 112 CURVE",
"309 207 OFFCURVE",
"244 257 OFFCURVE",
"164 288 CURVE",
"224 334 OFFCURVE",
"291 376 OFFCURVE",
"350 404 CURVE"
);
},
{
closed = 1;
nodes = (
"352 472 LINE",
"329 534 OFFCURVE",
"301 589 OFFCURVE",
"280 625 CURVE",
"224 573 LINE",
"256 544 OFFCURVE",
"283 485 OFFCURVE",
"302 440 CURVE"
);
},
{
closed = 1;
nodes = (
"211 430 OFFCURVE",
"249 488 OFFCURVE",
"280 574 CURVE",
"280 625 LINE",
"227 612 LINE",
"198 511 OFFCURVE",
"168 498 OFFCURVE",
"143 498 CURVE SMOOTH",
"123 498 OFFCURVE",
"110 514 OFFCURVE",
"110 541 CURVE SMOOTH",
"110 566 OFFCURVE",
"118 592 OFFCURVE",
"125 607 CURVE",
"58 628 LINE",
"48 604 OFFCURVE",
"38 574 OFFCURVE",
"38 539 CURVE SMOOTH",
"38 474 OFFCURVE",
"78 430 OFFCURVE",
"140 430 CURVE SMOOTH"
);
},
{
closed = 1;
nodes = (
"511 688 LINE",
"511 259 LINE SMOOTH",
"511 227 OFFCURVE",
"513 182 OFFCURVE",
"516 152 CURVE",
"521 165 LINE",
"499 226 OFFCURVE",
"460 283 OFFCURVE",
"408 326 CURVE",
"387 263 LINE",
"437 221 OFFCURVE",
"481 149 OFFCURVE",
"511 73 CURVE",
"582 73 LINE",
"582 622 LINE",
"565 688 LINE"
);
}
);
width = 645;
}
);
unicode = 098B;
},
{
glyphname = lvocalicbeng;
lastChange = "2020-04-14 07:51:14 +0000";
layers = (
{
layerId = "8680C114-EF70-46E9-96FB-C90A78B2DAE0";
paths = (
{
closed = 1;
nodes = (
"97 330 OFFCURVE",
"33 285 OFFCURVE",
"33 205 CURVE SMOOTH",
"33 180 OFFCURVE",
"39 157 OFFCURVE",
"48 132 CURVE",
"170 158 LINE",
"166 167 OFFCURVE",
"164 175 OFFCURVE",
"164 186 CURVE SMOOTH",
"164 207 OFFCURVE",
"177 223 OFFCURVE",
"208 223 CURVE SMOOTH",
"244 223 OFFCURVE",
"263 203 OFFCURVE",
"263 173 CURVE SMOOTH",
"263 141 OFFCURVE",
"235 118 OFFCURVE",
"167 107 CURVE",
"189 0 LINE",
"210 0 LINE SMOOTH",
"430 0 OFFCURVE",
"618 58 OFFCURVE",
"618 237 CURVE SMOOTH",
"618 327 OFFCURVE",
"588 431 OFFCURVE",
"355 499 CURVE SMOOTH",
"198 544 OFFCURVE",
"179 562 OFFCURVE",
"179 592 CURVE SMOOTH",
"179 611 OFFCURVE",
"187 622 OFFCURVE",
"211 650 CURVE",
"121 715 LINE",
"72 672 OFFCURVE",
"44 622 OFFCURVE",
"44 581 CURVE SMOOTH",
"44 500 OFFCURVE",
"86 448 OFFCURVE",
"250 400 CURVE SMOOTH",
"440 344 OFFCURVE",
"481 306 OFFCURVE",
"481 232 CURVE SMOOTH",
"481 171 OFFCURVE",
"434 125 OFFCURVE",
"332 111 CURVE",
"330 62 LINE",
"366 93 OFFCURVE",
"389 136 OFFCURVE",
"389 192 CURVE SMOOTH",
"389 271 OFFCURVE",
"317 330 OFFCURVE",
"208 330 CURVE SMOOTH"
);
}
);
width = 652;
},
{
layerId = UUID0;
paths = (
{
closed = 1;
nodes = (
"107 315 OFFCURVE",
"56 271 OFFCURVE",
"56 207 CURVE SMOOTH",
"56 182 OFFCURVE",
"62 159 OFFCURVE",
"73 135 CURVE",
"148 152 LINE",
"141 165 OFFCURVE",
"137 183 OFFCURVE",
"137 196 CURVE SMOOTH",
"137 224 OFFCURVE",
"157 245 OFFCURVE",
"207 245 CURVE SMOOTH",
"264 245 OFFCURVE",
"292 214 OFFCURVE",
"292 169 CURVE SMOOTH",
"292 120 OFFCURVE",
"257 89 OFFCURVE",
"196 68 CURVE",
"219 0 LINE",
"238 0 LINE SMOOTH",
"426 0 OFFCURVE",
"594 58 OFFCURVE",
"594 222 CURVE SMOOTH",
"594 323 OFFCURVE",
"551 395 OFFCURVE",
"341 464 CURVE SMOOTH",
"163 522 OFFCURVE",
"144 549 OFFCURVE",
"144 588 CURVE SMOOTH",
"144 609 OFFCURVE",
"159 631 OFFCURVE",
"195 665 CURVE",
"141 706 LINE",
"93 663 OFFCURVE",
"63 622 OFFCURVE",
"63 576 CURVE SMOOTH",
"63 496 OFFCURVE",
"114 458 OFFCURVE",
"298 394 CURVE SMOOTH",
"472 333 OFFCURVE",
"512 293 OFFCURVE",
"512 221 CURVE SMOOTH",
"512 135 OFFCURVE",
"437 85 OFFCURVE",
"312 72 CURVE",
"314 62 LINE",
"352 95 OFFCURVE",
"369 129 OFFCURVE",
"369 181 CURVE SMOOTH",
"369 259 OFFCURVE",
"299 315 OFFCURVE",
"204 315 CURVE SMOOTH"
);
}
);
width = 639;
},
{
layerId = "46A56A9B-0135-45C3-BDA6-6C6C4BC92BD5";
paths = (
{
closed = 1;
nodes = (
"106 301 OFFCURVE",
"66 253 OFFCURVE",
"66 195 CURVE SMOOTH",
"66 178 OFFCURVE",
"70 151 OFFCURVE",
"79 131 CURVE",
"105 137 LINE",
"97 154 OFFCURVE",
"93 178 OFFCURVE",
"93 196 CURVE SMOOTH",
"93 238 OFFCURVE",
"117 275 OFFCURVE",
"189 275 CURVE SMOOTH",
"266 275 OFFCURVE",
"301 227 OFFCURVE",
"301 167 CURVE SMOOTH",
"301 101 OFFCURVE",
"253 55 OFFCURVE",
"185 20 CURVE",
"192 0 LINE",
"201 0 LINE SMOOTH",
"387 0 OFFCURVE",
"547 63 OFFCURVE",
"547 223 CURVE SMOOTH",
"547 325 OFFCURVE",
"494 378 OFFCURVE",
"316 439 CURVE SMOOTH",
"112 509 OFFCURVE",
"101 534 OFFCURVE",
"101 580 CURVE SMOOTH",
"101 614 OFFCURVE",
"120 645 OFFCURVE",
"165 683 CURVE",
"146 701 LINE",
"96 656 OFFCURVE",
"74 621 OFFCURVE",
"74 582 CURVE SMOOTH",
"74 509 OFFCURVE",
"120 477 OFFCURVE",
"298 418 CURVE SMOOTH",
"484 356 OFFCURVE",
"520 308 OFFCURVE",
"520 220 CURVE SMOOTH",
"520 102 OFFCURVE",
"412 28 OFFCURVE",
"209 25 CURVE",
"213 11 LINE",
"277 44 OFFCURVE",
"328 89 OFFCURVE",
"328 168 CURVE SMOOTH",
"328 247 OFFCURVE",
"274 301 OFFCURVE",
"188 301 CURVE SMOOTH"
);
}
);
width = 596;
},
{
layerId = "22409DE3-74E9-441F-9C04-63D5519B89AC";
paths = (
{
closed = 1;
nodes = (
"111 342 OFFCURVE",
"29 296 OFFCURVE",
"29 203 CURVE SMOOTH",
"29 178 OFFCURVE",
"34 156 OFFCURVE",
"42 131 CURVE",
"202 161 LINE",
"200 167 OFFCURVE",
"199 173 OFFCURVE",
"199 182 CURVE SMOOTH",
"199 196 OFFCURVE",
"209 209 OFFCURVE",
"231 209 CURVE SMOOTH",
"253 209 OFFCURVE",
"265 199 OFFCURVE",
"265 182 CURVE SMOOTH",
"265 157 OFFCURVE",
"242 139 OFFCURVE",
"169 136 CURVE",
"190 0 LINE",
"213 0 LINE SMOOTH",
"457 0 OFFCURVE",
"660 58 OFFCURVE",
"660 254 CURVE SMOOTH",
"660 341 OFFCURVE",
"638 446 OFFCURVE",
"393 520 CURVE SMOOTH",
"247 564 OFFCURVE",
"230 572 OFFCURVE",
"230 595 CURVE SMOOTH",
"230 608 OFFCURVE",
"236 620 OFFCURVE",
"255 641 CURVE",
"130 722 LINE",
"78 674 OFFCURVE",
"51 633 OFFCURVE",
"51 579 CURVE SMOOTH",
"51 503 OFFCURVE",
"90 441 OFFCURVE",
"261 393 CURVE SMOOTH",
"439 343 OFFCURVE",
"480 308 OFFCURVE",
"480 241 CURVE SMOOTH",
"480 199 OFFCURVE",
"453 155 OFFCURVE",
"371 141 CURVE",
"366 62 LINE",
"400 94 OFFCURVE",
"428 141 OFFCURVE",
"428 200 CURVE SMOOTH",
"428 280 OFFCURVE",
"350 342 OFFCURVE",
"228 342 CURVE SMOOTH"
);
}
);
width = 686;
},
{
layerId = "F0143EB7-DEA3-4B38-8B70-DEA25CF19AA9";
paths = (
{
closed = 1;
nodes = (
"82 314 OFFCURVE",
"40 270 OFFCURVE",
"40 210 CURVE SMOOTH",
"40 184 OFFCURVE",
"45 158 OFFCURVE",
"53 136 CURVE",
"121 149 LINE",
"116 162 OFFCURVE",
"112 183 OFFCURVE",
"112 199 CURVE SMOOTH",
"112 227 OFFCURVE",
"127 246 OFFCURVE",
"154 246 CURVE SMOOTH",
"191 246 OFFCURVE",
"205 215 OFFCURVE",
"205 178 CURVE SMOOTH",
"205 122 OFFCURVE",
"175 84 OFFCURVE",
"129 66 CURVE",
"146 0 LINE",
"171 0 LINE SMOOTH",
"313 0 OFFCURVE",
"438 54 OFFCURVE",
"438 223 CURVE SMOOTH",
"438 323 OFFCURVE",
"401 386 OFFCURVE",
"258 456 CURVE SMOOTH",
"125 520 OFFCURVE",
"119 548 OFFCURVE",
"119 582 CURVE SMOOTH",
"119 609 OFFCURVE",
"136 635 OFFCURVE",
"160 663 CURVE",
"106 702 LINE",
"69 659 OFFCURVE",
"44 620 OFFCURVE",
"44 572 CURVE SMOOTH",
"44 496 OFFCURVE",
"83 458 OFFCURVE",
"210 394 CURVE SMOOTH",
"331 333 OFFCURVE",
"364 290 OFFCURVE",
"364 216 CURVE SMOOTH",
"364 134 OFFCURVE",
"313 84 OFFCURVE",
"226 70 CURVE",
"224 61 LINE",
"256 93 OFFCURVE",
"275 129 OFFCURVE",
"275 186 CURVE SMOOTH",
"275 260 OFFCURVE",
"226 314 OFFCURVE",
"153 314 CURVE SMOOTH"
);
}
);
width = 470;
}
);
unicode = 098C;
},
{
glyphname = ebeng;
lastChange = "2020-04-14 07:51:14 +0000";
layers = (
{
layerId = "8680C114-EF70-46E9-96FB-C90A78B2DAE0";
paths = (
{
closed = 1;
nodes = (
"381 628 OFFCURVE",
"259 495 OFFCURVE",
"259 386 CURVE SMOOTH",
"259 298 OFFCURVE",
"321 258 OFFCURVE",
"403 258 CURVE SMOOTH",
"440 258 OFFCURVE",
"465 262 OFFCURVE",
"482 268 CURVE",
"476 375 LINE",
"463 373 OFFCURVE",
"453 372 OFFCURVE",
"439 372 CURVE SMOOTH",
"396 372 OFFCURVE",
"389 386 OFFCURVE",
"389 404 CURVE SMOOTH",
"389 438 OFFCURVE",
"449 518 OFFCURVE",
"520 518 CURVE SMOOTH",
"540 518 OFFCURVE",
"553 514 OFFCURVE",
"563 504 CURVE SMOOTH",
"575 492 OFFCURVE",
"580 477 OFFCURVE",
"580 435 CURVE SMOOTH",
"580 130 LINE",
"540 170 OFFCURVE",
"507 180 OFFCURVE",
"454 180 CURVE SMOOTH",
"403 180 OFFCURVE",
"353 166 OFFCURVE",
"291 166 CURVE SMOOTH",
"226 166 OFFCURVE",
"162 178 OFFCURVE",
"162 277 CURVE SMOOTH",
"162 315 OFFCURVE",
"167 341 OFFCURVE",
"172 360 CURVE",
"43 377 LINE",
"37 347 OFFCURVE",
"31 305 OFFCURVE",
"31 271 CURVE SMOOTH",
"31 79 OFFCURVE",
"158 52 OFFCURVE",
"272 52 CURVE SMOOTH",
"348 52 OFFCURVE",
"397 67 OFFCURVE",
"471 67 CURVE SMOOTH",
"534 67 OFFCURVE",
"560 48 OFFCURVE",
"582 0 CURVE",
"712 0 LINE",
"712 462 LINE SMOOTH",
"712 536 OFFCURVE",
"692 569 OFFCURVE",
"665 591 CURVE SMOOTH",
"634 615 OFFCURVE",
"597 628 OFFCURVE",
"533 628 CURVE SMOOTH"
);
}
);
width = 797;
},
{
layerId = UUID0;
paths = (
{
closed = 1;
nodes = (
"374 628 OFFCURVE",
"254 499 OFFCURVE",
"254 392 CURVE SMOOTH",
"254 309 OFFCURVE",
"311 270 OFFCURVE",
"376 270 CURVE SMOOTH",
"405 270 OFFCURVE",
"427 273 OFFCURVE",
"441 278 CURVE",
"434 348 LINE",
"419 346 OFFCURVE",
"407 345 OFFCURVE",
"392 345 CURVE SMOOTH",
"341 345 OFFCURVE",
"333 373 OFFCURVE",
"333 393 CURVE SMOOTH",
"333 459 OFFCURVE",
"418 557 OFFCURVE",
"514 557 CURVE SMOOTH",
"540 557 OFFCURVE",
"557 552 OFFCURVE",
"569 542 CURVE SMOOTH",
"583 529 OFFCURVE",
"590 512 OFFCURVE",
"590 463 CURVE SMOOTH",
"590 106 LINE",
"561 146 OFFCURVE",
"518 161 OFFCURVE",
"461 161 CURVE SMOOTH",
"391 161 OFFCURVE",
"343 144 OFFCURVE",
"276 144 CURVE SMOOTH",
"202 144 OFFCURVE",
"124 162 OFFCURVE",
"124 280 CURVE SMOOTH",
"124 319 OFFCURVE",
"130 346 OFFCURVE",
"135 366 CURVE",
"58 377 LINE",
"52 348 OFFCURVE",
"46 310 OFFCURVE",
"46 278 CURVE SMOOTH",
"46 97 OFFCURVE",
"182 70 OFFCURVE",
"272 70 CURVE SMOOTH",
"359 70 OFFCURVE",
"409 87 OFFCURVE",
"481 87 CURVE SMOOTH",
"541 87 OFFCURVE",
"575 60 OFFCURVE",
"592 0 CURVE",
"667 0 LINE",
"667 490 LINE SMOOTH",
"667 545 OFFCURVE",
"651 573 OFFCURVE",
"626 594 CURVE SMOOTH",
"600 616 OFFCURVE",
"565 628 OFFCURVE",
"511 628 CURVE SMOOTH"
);
}
);
width = 758;
},
{
layerId = "46A56A9B-0135-45C3-BDA6-6C6C4BC92BD5";
paths = (
{
closed = 1;
nodes = (
"376 628 OFFCURVE",
"253 504 OFFCURVE",
"253 398 CURVE SMOOTH",
"253 319 OFFCURVE",
"299 285 OFFCURVE",
"364 285 CURVE SMOOTH",
"386 285 OFFCURVE",
"401 287 OFFCURVE",
"415 291 CURVE",
"411 316 LINE",
"396 312 OFFCURVE",
"380 311 OFFCURVE",
"365 311 CURVE SMOOTH",
"292 311 OFFCURVE",
"280 353 OFFCURVE",
"280 398 CURVE SMOOTH",
"280 484 OFFCURVE",
"383 602 OFFCURVE",
"498 602 CURVE SMOOTH",
"527 602 OFFCURVE",
"550 595 OFFCURVE",
"566 582 CURVE SMOOTH",
"587 564 OFFCURVE",
"595 534 OFFCURVE",
"595 484 CURVE SMOOTH",
"595 55 LINE",
"574 108 OFFCURVE",
"536 139 OFFCURVE",
"470 139 CURVE SMOOTH",
"402 139 OFFCURVE",
"334 118 OFFCURVE",
"254 118 CURVE SMOOTH",
"169 118 OFFCURVE",
"79 141 OFFCURVE",
"79 281 CURVE SMOOTH",
"79 314 OFFCURVE",
"85 345 OFFCURVE",
"91 371 CURVE",
"65 375 LINE",
"58 348 OFFCURVE",
"52 314 OFFCURVE",
"52 281 CURVE SMOOTH",
"52 124 OFFCURVE",
"159 92 OFFCURVE",
"255 92 CURVE SMOOTH",
"352 92 OFFCURVE",
"396 113 OFFCURVE",
"471 113 CURVE SMOOTH",
"550 113 OFFCURVE",
"573 66 OFFCURVE",
"595 0 CURVE",
"621 0 LINE",
"621 494 LINE SMOOTH",
"621 553 OFFCURVE",
"607 582 OFFCURVE",
"581 603 CURVE SMOOTH",
"558 622 OFFCURVE",
"526 628 OFFCURVE",
"498 628 CURVE SMOOTH"
);
}
);
width = 720;
},
{
layerId = "22409DE3-74E9-441F-9C04-63D5519B89AC";
paths = (
{
closed = 1;
nodes = (
"399 628 OFFCURVE",
"268 492 OFFCURVE",
"268 382 CURVE SMOOTH",
"268 290 OFFCURVE",
"334 246 OFFCURVE",
"423 246 CURVE SMOOTH",
"466 246 OFFCURVE",
"494 250 OFFCURVE",
"519 256 CURVE",
"511 389 LINE",
"500 387 OFFCURVE",
"487 386 OFFCURVE",
"476 386 CURVE SMOOTH",
"448 386 OFFCURVE",
"440 396 OFFCURVE",
"440 412 CURVE SMOOTH",
"440 443 OFFCURVE",
"491 490 OFFCURVE",
"534 490 CURVE SMOOTH",
"548 490 OFFCURVE",
"560 486 OFFCURVE",
"567 477 CURVE SMOOTH",
"576 466 OFFCURVE",
"579 450 OFFCURVE",
"579 425 CURVE SMOOTH",
"579 150 LINE",
"536 188 OFFCURVE",
"507 195 OFFCURVE",
"461 195 CURVE SMOOTH",
"415 195 OFFCURVE",
"365 183 OFFCURVE",
"305 183 CURVE SMOOTH",
"239 183 OFFCURVE",
"201 202 OFFCURVE",
"201 275 CURVE SMOOTH",
"201 304 OFFCURVE",
"204 330 OFFCURVE",
"210 355 CURVE",
"42 379 LINE",
"33 346 OFFCURVE",
"28 301 OFFCURVE",
"28 265 CURVE SMOOTH",
"28 81 OFFCURVE",
"152 41 OFFCURVE",
"279 41 CURVE SMOOTH",
"359 41 OFFCURVE",
"418 54 OFFCURVE",
"484 54 CURVE SMOOTH",
"540 54 OFFCURVE",
"559 37 OFFCURVE",
"582 0 CURVE",
"754 0 LINE",
"754 443 LINE SMOOTH",
"754 533 OFFCURVE",
"727 568 OFFCURVE",
"698 590 CURVE SMOOTH",
"664 616 OFFCURVE",
"630 628 OFFCURVE",
"558 628 CURVE SMOOTH"
);
}
);
width = 827;
},
{
layerId = "F0143EB7-DEA3-4B38-8B70-DEA25CF19AA9";
paths = (
{
closed = 1;
nodes = (
"273 628 OFFCURVE",
"190 499 OFFCURVE",
"190 389 CURVE SMOOTH",
"190 310 OFFCURVE",
"232 271 OFFCURVE",
"287 271 CURVE SMOOTH",
"309 271 OFFCURVE",
"323 272 OFFCURVE",
"336 277 CURVE",
"329 345 LINE",
"319 344 OFFCURVE",
"311 343 OFFCURVE",
"303 343 CURVE SMOOTH",
"267 343 OFFCURVE",
"261 369 OFFCURVE",
"261 393 CURVE SMOOTH",
"261 461 OFFCURVE",
"318 560 OFFCURVE",
"378 560 CURVE SMOOTH",
"394 560 OFFCURVE",
"407 554 OFFCURVE",
"414 544 CURVE SMOOTH",
"423 531 OFFCURVE",
"425 512 OFFCURVE",
"425 473 CURVE SMOOTH",
"425 108 LINE",
"394 148 OFFCURVE",
"368 157 OFFCURVE",
"334 157 CURVE SMOOTH",
"293 157 OFFCURVE",
"254 142 OFFCURVE",
"206 142 CURVE SMOOTH",
"148 142 OFFCURVE",
"108 167 OFFCURVE",
"108 260 CURVE SMOOTH",
"108 284 OFFCURVE",
"111 319 OFFCURVE",
"117 345 CURVE",
"48 355 LINE",
"40 320 OFFCURVE",
"37 288 OFFCURVE",
"37 260 CURVE SMOOTH",
"37 108 OFFCURVE",
"130 71 OFFCURVE",
"197 71 CURVE SMOOTH",
"260 71 OFFCURVE",
"295 86 OFFCURVE",
"343 86 CURVE SMOOTH",
"391 86 OFFCURVE",
"412 55 OFFCURVE",
"427 0 CURVE",
"496 0 LINE",
"496 479 LINE SMOOTH",
"496 547 OFFCURVE",
"486 577 OFFCURVE",
"464 599 CURVE SMOOTH",
"445 618 OFFCURVE",
"420 628 OFFCURVE",
"382 628 CURVE SMOOTH"
);
}
);
width = 560;
}
);
unicode = 098F;
},
{
glyphname = aibeng;
lastChange = "2020-04-14 07:51:14 +0000";
layers = (
{
layerId = "8680C114-EF70-46E9-96FB-C90A78B2DAE0";
paths = (
{
closed = 1;
nodes = (
"381 628 OFFCURVE",
"259 495 OFFCURVE",
"259 386 CURVE SMOOTH",
"259 298 OFFCURVE",
"321 258 OFFCURVE",
"403 258 CURVE SMOOTH",
"440 258 OFFCURVE",
"465 262 OFFCURVE",
"482 268 CURVE",
"476 375 LINE",
"463 373 OFFCURVE",
"453 372 OFFCURVE",
"439 372 CURVE SMOOTH",
"396 372 OFFCURVE",
"389 386 OFFCURVE",
"389 404 CURVE SMOOTH",
"389 438 OFFCURVE",
"449 518 OFFCURVE",
"520 518 CURVE SMOOTH",
"540 518 OFFCURVE",
"554 514 OFFCURVE",
"563 504 CURVE SMOOTH",
"575 493 OFFCURVE",
"580 477 OFFCURVE",
"580 435 CURVE SMOOTH",
"580 130 LINE",
"540 170 OFFCURVE",
"507 180 OFFCURVE",
"454 180 CURVE SMOOTH",
"403 180 OFFCURVE",
"353 166 OFFCURVE",
"291 166 CURVE SMOOTH",
"226 166 OFFCURVE",
"162 178 OFFCURVE",
"162 277 CURVE SMOOTH",
"162 315 OFFCURVE",
"167 341 OFFCURVE",
"172 360 CURVE",
"43 377 LINE",
"37 347 OFFCURVE",
"31 305 OFFCURVE",
"31 271 CURVE SMOOTH",
"31 79 OFFCURVE",
"158 52 OFFCURVE",
"272 52 CURVE SMOOTH",
"348 52 OFFCURVE",
"397 67 OFFCURVE",
"471 67 CURVE SMOOTH",
"534 67 OFFCURVE",
"560 48 OFFCURVE",
"582 0 CURVE",
"712 0 LINE",
"712 462 LINE SMOOTH",
"712 536 OFFCURVE",
"692 569 OFFCURVE",
"665 591 CURVE SMOOTH",
"634 615 OFFCURVE",
"597 628 OFFCURVE",
"533 628 CURVE SMOOTH"
);
},
{
closed = 1;
nodes = (
"882 636 OFFCURVE",
"865 680 OFFCURVE",
"832 714 CURVE SMOOTH",
"797 751 OFFCURVE",
"741 775 OFFCURVE",
"645 788 CURVE SMOOTH",
"521 804 LINE SMOOTH",
"489 808 OFFCURVE",
"466 814 OFFCURVE",
"451 827 CURVE SMOOTH",
"439 838 OFFCURVE",
"433 854 OFFCURVE",
"433 878 CURVE SMOOTH",
"433 888 OFFCURVE",
"434 901 OFFCURVE",
"436 911 CURVE",
"309 917 LINE",
"305 904 OFFCURVE",
"302 884 OFFCURVE",
"302 866 CURVE SMOOTH",
"302 759 OFFCURVE",
"351 709 OFFCURVE",
"482 692 CURVE SMOOTH",
"604 676 LINE SMOOTH",
"646 670 OFFCURVE",
"684 661 OFFCURVE",
"711 643 CURVE SMOOTH",
"735 627 OFFCURVE",
"750 604 OFFCURVE",
"750 571 CURVE SMOOTH",
"750 512 OFFCURVE",
"704 483 OFFCURVE",
"656 465 CURVE",
"665 335 LINE",
"780 384 OFFCURVE",
"882 453 OFFCURVE",
"882 581 CURVE SMOOTH"
);
}
);
width = 919;
},
{
layerId = UUID0;
paths = (
{
closed = 1;
nodes = (
"374 628 OFFCURVE",
"254 499 OFFCURVE",
"254 392 CURVE SMOOTH",
"254 309 OFFCURVE",
"311 270 OFFCURVE",
"376 270 CURVE SMOOTH",
"405 270 OFFCURVE",
"427 273 OFFCURVE",
"441 278 CURVE",
"434 348 LINE",
"419 346 OFFCURVE",
"407 345 OFFCURVE",
"392 345 CURVE SMOOTH",
"341 345 OFFCURVE",
"333 373 OFFCURVE",
"333 393 CURVE SMOOTH",
"333 459 OFFCURVE",
"418 557 OFFCURVE",
"514 557 CURVE SMOOTH",
"540 557 OFFCURVE",
"557 552 OFFCURVE",
"569 542 CURVE SMOOTH",
"583 529 OFFCURVE",
"590 512 OFFCURVE",
"590 463 CURVE SMOOTH",
"590 106 LINE",
"561 146 OFFCURVE",
"518 161 OFFCURVE",
"461 161 CURVE SMOOTH",
"391 161 OFFCURVE",
"343 144 OFFCURVE",
"276 144 CURVE SMOOTH",
"202 144 OFFCURVE",
"124 162 OFFCURVE",
"124 280 CURVE SMOOTH",
"124 319 OFFCURVE",
"130 346 OFFCURVE",
"135 366 CURVE",
"58 377 LINE",
"52 348 OFFCURVE",
"46 310 OFFCURVE",
"46 278 CURVE SMOOTH",
"46 97 OFFCURVE",
"182 70 OFFCURVE",
"272 70 CURVE SMOOTH",
"359 70 OFFCURVE",
"409 87 OFFCURVE",
"481 87 CURVE SMOOTH",
"541 87 OFFCURVE",
"575 60 OFFCURVE",
"592 0 CURVE",
"667 0 LINE",
"667 490 LINE SMOOTH",
"667 545 OFFCURVE",
"651 573 OFFCURVE",
"626 594 CURVE SMOOTH",
"600 616 OFFCURVE",
"565 628 OFFCURVE",
"511 628 CURVE SMOOTH"
);
},
{
closed = 1;
nodes = (
"831 627 OFFCURVE",
"812 671 OFFCURVE",
"779 702 CURVE SMOOTH",
"744 734 OFFCURVE",
"693 753 OFFCURVE",
"605 765 CURVE SMOOTH",
"474 783 LINE SMOOTH",
"437 788 OFFCURVE",
"414 798 OFFCURVE",
"400 814 CURVE SMOOTH",
"386 831 OFFCURVE",
"380 851 OFFCURVE",
"380 878 CURVE SMOOTH",
"380 888 OFFCURVE",
"381 903 OFFCURVE",
"383 913 CURVE",
"309 917 LINE",
"307 905 OFFCURVE",
"305 887 OFFCURVE",
"305 875 CURVE SMOOTH",
"305 773 OFFCURVE",
"358 724 OFFCURVE",
"482 707 CURVE SMOOTH",
"586 693 LINE SMOOTH",
"658 683 OFFCURVE",
"695 670 OFFCURVE",
"720 649 CURVE SMOOTH",
"741 630 OFFCURVE",
"753 606 OFFCURVE",
"753 573 CURVE SMOOTH",
"753 506 OFFCURVE",
"705 471 OFFCURVE",
"657 449 CURVE",
"657 370 LINE",
"750 410 OFFCURVE",
"831 467 OFFCURVE",
"831 575 CURVE SMOOTH"
);
}
);
width = 873;
},
{
layerId = "46A56A9B-0135-45C3-BDA6-6C6C4BC92BD5";
paths = (
{
closed = 1;
nodes = (
"376 628 OFFCURVE",
"253 504 OFFCURVE",
"253 398 CURVE SMOOTH",
"253 319 OFFCURVE",
"299 285 OFFCURVE",
"364 285 CURVE SMOOTH",
"386 285 OFFCURVE",
"401 287 OFFCURVE",
"415 291 CURVE",
"411 316 LINE",
"396 312 OFFCURVE",
"380 311 OFFCURVE",
"365 311 CURVE SMOOTH",
"292 311 OFFCURVE",
"280 353 OFFCURVE",
"280 398 CURVE SMOOTH",
"280 484 OFFCURVE",
"383 602 OFFCURVE",
"498 602 CURVE SMOOTH",
"527 602 OFFCURVE",
"550 595 OFFCURVE",
"566 582 CURVE SMOOTH",
"587 564 OFFCURVE",
"595 534 OFFCURVE",
"595 484 CURVE SMOOTH",
"595 55 LINE",
"574 108 OFFCURVE",
"536 139 OFFCURVE",
"470 139 CURVE SMOOTH",
"402 139 OFFCURVE",
"334 118 OFFCURVE",
"254 118 CURVE SMOOTH",
"169 118 OFFCURVE",
"79 141 OFFCURVE",
"79 281 CURVE SMOOTH",
"79 314 OFFCURVE",
"85 345 OFFCURVE",
"91 371 CURVE",
"65 375 LINE",
"58 348 OFFCURVE",
"52 314 OFFCURVE",
"52 281 CURVE SMOOTH",
"52 124 OFFCURVE",
"159 92 OFFCURVE",
"255 92 CURVE SMOOTH",
"352 92 OFFCURVE",
"396 113 OFFCURVE",
"471 113 CURVE SMOOTH",
"550 113 OFFCURVE",
"573 66 OFFCURVE",
"595 0 CURVE",
"621 0 LINE",
"621 494 LINE SMOOTH",
"621 553 OFFCURVE",
"607 582 OFFCURVE",
"581 603 CURVE SMOOTH",
"558 622 OFFCURVE",
"526 628 OFFCURVE",
"498 628 CURVE SMOOTH"
);
},
{
closed = 1;
nodes = (
"783 633 OFFCURVE",
"763 670 OFFCURVE",
"733 695 CURVE SMOOTH",
"697 724 OFFCURVE",
"650 738 OFFCURVE",
"577 748 CURVE SMOOTH",
"446 767 LINE SMOOTH",
"401 773 OFFCURVE",
"375 783 OFFCURVE",
"357 802 CURVE SMOOTH",
"341 819 OFFCURVE",
"334 841 OFFCURVE",
"334 879 CURVE SMOOTH",
"334 889 OFFCURVE",
"335 906 OFFCURVE",
"337 915 CURVE",
"310 917 LINE",
"308 905 OFFCURVE",
"307 889 OFFCURVE",
"307 880 CURVE SMOOTH",
"307 781 OFFCURVE",
"363 753 OFFCURVE",
"443 741 CURVE SMOOTH",
"575 722 LINE SMOOTH",
"651 711 OFFCURVE",
"689 697 OFFCURVE",
"716 675 CURVE SMOOTH",
"744 652 OFFCURVE",
"756 621 OFFCURVE",
"756 581 CURVE SMOOTH",
"756 493 OFFCURVE",
"682 448 OFFCURVE",
"615 421 CURVE",
"615 395 LINE",
"695 427 OFFCURVE",
"783 476 OFFCURVE",
"783 579 CURVE SMOOTH"
);
}
);
width = 834;
},
{
layerId = "22409DE3-74E9-441F-9C04-63D5519B89AC";
paths = (
{
closed = 1;
nodes = (
"399 628 OFFCURVE",
"268 492 OFFCURVE",
"268 382 CURVE SMOOTH",
"268 290 OFFCURVE",
"334 246 OFFCURVE",
"423 246 CURVE SMOOTH",
"466 246 OFFCURVE",
"494 250 OFFCURVE",
"519 256 CURVE",
"511 389 LINE",
"500 387 OFFCURVE",
"487 386 OFFCURVE",
"476 386 CURVE SMOOTH",
"448 386 OFFCURVE",
"440 396 OFFCURVE",
"440 412 CURVE SMOOTH",
"440 443 OFFCURVE",
"491 490 OFFCURVE",
"534 490 CURVE SMOOTH",
"548 490 OFFCURVE",
"560 486 OFFCURVE",
"567 477 CURVE SMOOTH",
"576 466 OFFCURVE",
"579 450 OFFCURVE",
"579 425 CURVE SMOOTH",
"579 150 LINE",
"536 188 OFFCURVE",
"507 195 OFFCURVE",
"461 195 CURVE SMOOTH",
"415 195 OFFCURVE",
"365 183 OFFCURVE",
"305 183 CURVE SMOOTH",
"239 183 OFFCURVE",
"201 202 OFFCURVE",
"201 275 CURVE SMOOTH",
"201 304 OFFCURVE",
"204 330 OFFCURVE",
"210 355 CURVE",
"42 379 LINE",
"33 346 OFFCURVE",
"28 301 OFFCURVE",
"28 265 CURVE SMOOTH",
"28 81 OFFCURVE",
"152 41 OFFCURVE",
"279 41 CURVE SMOOTH",
"359 41 OFFCURVE",
"418 54 OFFCURVE",
"484 54 CURVE SMOOTH",
"540 54 OFFCURVE",
"559 37 OFFCURVE",
"582 0 CURVE",
"754 0 LINE",
"754 443 LINE SMOOTH",
"754 530 OFFCURVE",
"727 568 OFFCURVE",
"698 590 CURVE SMOOTH",
"664 616 OFFCURVE",
"630 628 OFFCURVE",
"558 628 CURVE SMOOTH"
);
},
{
closed = 1;
nodes = (
"936 648 OFFCURVE",
"913 698 OFFCURVE",
"873 732 CURVE SMOOTH",
"828 770 OFFCURVE",
"775 790 OFFCURVE",
"657 807 CURVE SMOOTH",
"573 819 LINE SMOOTH",
"531 825 OFFCURVE",
"506 830 OFFCURVE",
"492 843 CURVE SMOOTH",
"484 851 OFFCURVE",
"480 861 OFFCURVE",
"480 877 CURVE SMOOTH",
"480 885 OFFCURVE",
"480 895 OFFCURVE",
"482 907 CURVE",
"317 917 LINE",
"314 903 OFFCURVE",
"312 882 OFFCURVE",
"312 868 CURVE SMOOTH",
"312 746 OFFCURVE",
"376 696 OFFCURVE",
"507 679 CURVE SMOOTH",
"616 665 LINE SMOOTH",
"675 657 OFFCURVE",
"707 648 OFFCURVE",
"731 632 CURVE SMOOTH",
"752 618 OFFCURVE",
"763 597 OFFCURVE",
"763 572 CURVE SMOOTH",
"763 510 OFFCURVE",
"719 485 OFFCURVE",
"671 471 CURVE",
"686 306 LINE",
"827 364 OFFCURVE",
"936 454 OFFCURVE",
"936 588 CURVE SMOOTH"
);
}
);
width = 976;
},
{
layerId = "F0143EB7-DEA3-4B38-8B70-DEA25CF19AA9";
paths = (
{
closed = 1;
nodes = (
"273 628 OFFCURVE",
"190 499 OFFCURVE",
"190 389 CURVE SMOOTH",
"190 310 OFFCURVE",
"232 271 OFFCURVE",
"287 271 CURVE SMOOTH",
"309 271 OFFCURVE",
"323 272 OFFCURVE",
"336 277 CURVE",
"329 345 LINE",
"319 344 OFFCURVE",
"311 343 OFFCURVE",
"303 343 CURVE SMOOTH",
"267 343 OFFCURVE",
"261 369 OFFCURVE",
"261 393 CURVE SMOOTH",
"261 461 OFFCURVE",
"318 560 OFFCURVE",
"378 560 CURVE SMOOTH",
"394 560 OFFCURVE",
"407 554 OFFCURVE",
"414 544 CURVE SMOOTH",
"423 531 OFFCURVE",
"425 512 OFFCURVE",
"425 473 CURVE SMOOTH",
"425 108 LINE",
"394 148 OFFCURVE",
"368 157 OFFCURVE",
"334 157 CURVE SMOOTH",
"293 157 OFFCURVE",
"254 142 OFFCURVE",
"206 142 CURVE SMOOTH",
"148 142 OFFCURVE",
"108 167 OFFCURVE",
"108 260 CURVE SMOOTH",
"108 284 OFFCURVE",
"111 319 OFFCURVE",
"117 345 CURVE",
"48 355 LINE",
"40 320 OFFCURVE",
"37 288 OFFCURVE",
"37 260 CURVE SMOOTH",
"37 108 OFFCURVE",
"130 71 OFFCURVE",
"197 71 CURVE SMOOTH",
"260 71 OFFCURVE",
"295 86 OFFCURVE",
"343 86 CURVE SMOOTH",
"391 86 OFFCURVE",
"412 55 OFFCURVE",
"427 0 CURVE",
"496 0 LINE",
"496 479 LINE SMOOTH",
"496 547 OFFCURVE",
"486 577 OFFCURVE",
"464 599 CURVE SMOOTH",
"445 618 OFFCURVE",
"420 628 OFFCURVE",
"382 628 CURVE SMOOTH"
);
},
{
closed = 1;
nodes = (
"620 631 OFFCURVE",
"610 668 OFFCURVE",
"582 698 CURVE SMOOTH",
"554 727 OFFCURVE",
"514 748 OFFCURVE",
"448 762 CURVE SMOOTH",
"384 776 LINE SMOOTH",
"351 783 OFFCURVE",
"329 792 OFFCURVE",
"317 803 CURVE SMOOTH",
"296 821 OFFCURVE",
"293 846 OFFCURVE",
"293 877 CURVE SMOOTH",
"293 887 OFFCURVE",
"294 902 OFFCURVE",
"296 913 CURVE",
"228 917 LINE",
"226 903 OFFCURVE",
"224 887 OFFCURVE",
"224 873 CURVE SMOOTH",
"224 783 OFFCURVE",
"259 730 OFFCURVE",
"369 708 CURVE SMOOTH",
"425 697 LINE SMOOTH",
"461 689 OFFCURVE",
"496 679 OFFCURVE",
"517 660 CURVE SMOOTH",
"538 641 OFFCURVE",
"549 614 OFFCURVE",
"549 580 CURVE SMOOTH",
"549 521 OFFCURVE",
"520 483 OFFCURVE",
"479 458 CURVE",
"480 382 LINE",
"555 421 OFFCURVE",
"620 482 OFFCURVE",
"620 585 CURVE SMOOTH"
);
}
);
width = 657;
}
);
unicode = 0990;
},
{
glyphname = obeng;
lastChange = "2020-04-14 07:51:14 +0000";
layers = (
{
layerId = "8680C114-EF70-46E9-96FB-C90A78B2DAE0";
paths = (
{
closed = 1;
nodes = (
"387 629 OFFCURVE",
"251 537 OFFCURVE",
"251 424 CURVE SMOOTH",
"251 357 OFFCURVE",
"301 301 OFFCURVE",
"403 290 CURVE",
"430 401 LINE",
"392 406 OFFCURVE",
"386 418 OFFCURVE",
"386 433 CURVE SMOOTH",
"386 466 OFFCURVE",
"455 521 OFFCURVE",
"527 521 CURVE SMOOTH",
"567 521 OFFCURVE",
"587 502 OFFCURVE",
"587 472 CURVE SMOOTH",
"587 417 OFFCURVE",
"532 387 OFFCURVE",
"466 364 CURVE",
"512 256 LINE",
"631 299 OFFCURVE",
"722 372 OFFCURVE",
"722 475 CURVE SMOOTH",
"722 571 OFFCURVE",
"654 629 OFFCURVE",
"531 629 CURVE SMOOTH"
);
},
{
closed = 1;
nodes = (
"731 282 OFFCURVE",
"690 334 OFFCURVE",
"634 371 CURVE",
"515 318 LINE",
"560 303 OFFCURVE",
"597 275 OFFCURVE",
"597 230 CURVE SMOOTH",
"597 172 OFFCURVE",
"540 141 OFFCURVE",
"471 141 CURVE SMOOTH",
"319 141 OFFCURVE",
"223 234 OFFCURVE",
"141 507 CURVE",
"16 472 LINE",
"116 125 OFFCURVE",
"271 26 OFFCURVE",
"483 26 CURVE SMOOTH",
"636 26 OFFCURVE",
"731 102 OFFCURVE",
"731 216 CURVE SMOOTH"
);
}
);
width = 780;
},
{
layerId = UUID0;
paths = (
{
closed = 1;
nodes = (
"371 629 OFFCURVE",
"251 521 OFFCURVE",
"251 431 CURVE SMOOTH",
"251 374 OFFCURVE",
"289 335 OFFCURVE",
"365 321 CURVE",
"386 395 LINE",
"339 402 OFFCURVE",
"331 418 OFFCURVE",
"331 439 CURVE SMOOTH",
"331 484 OFFCURVE",
"413 558 OFFCURVE",
"509 558 CURVE SMOOTH",
"562 558 OFFCURVE",
"591 531 OFFCURVE",
"591 482 CURVE SMOOTH",
"591 419 OFFCURVE",
"538 383 OFFCURVE",
"449 354 CURVE",
"480 282 LINE",
"591 323 OFFCURVE",
"671 386 OFFCURVE",
"671 483 CURVE SMOOTH",
"671 574 OFFCURVE",
"611 629 OFFCURVE",
"509 629 CURVE SMOOTH"
);
},
{
closed = 1;
nodes = (
"681 289 OFFCURVE",
"648 341 OFFCURVE",
"589 373 CURVE",
"509 338 LINE",
"562 315 OFFCURVE",
"600 280 OFFCURVE",
"600 228 CURVE SMOOTH",
"600 152 OFFCURVE",
"539 118 OFFCURVE",
"455 118 CURVE SMOOTH",
"286 118 OFFCURVE",
"183 242 OFFCURVE",
"103 529 CURVE",
"28 507 LINE",
"117 168 OFFCURVE",
"265 42 OFFCURVE",
"453 42 CURVE SMOOTH",
"593 42 OFFCURVE",
"681 114 OFFCURVE",
"681 225 CURVE SMOOTH"
);
}
);
width = 738;
},
{
layerId = "46A56A9B-0135-45C3-BDA6-6C6C4BC92BD5";
paths = (
{
closed = 1;
nodes = (
"372 629 OFFCURVE",
"262 528 OFFCURVE",
"262 443 CURVE SMOOTH",
"262 389 OFFCURVE",
"292 358 OFFCURVE",
"353 348 CURVE",
"360 373 LINE",
"301 383 OFFCURVE",
"289 407 OFFCURVE",
"289 443 CURVE SMOOTH",
"289 511 OFFCURVE",
"381 603 OFFCURVE",
"492 603 CURVE SMOOTH",
"563 603 OFFCURVE",
"597 563 OFFCURVE",
"597 499 CURVE SMOOTH",
"597 427 OFFCURVE",
"549 375 OFFCURVE",
"439 338 CURVE",
"448 314 LINE",
"565 356 OFFCURVE",
"624 413 OFFCURVE",
"624 499 CURVE SMOOTH",
"624 577 OFFCURVE",
"577 629 OFFCURVE",
"492 629 CURVE SMOOTH"
);
},
{
closed = 1;
nodes = (
"632 295 OFFCURVE",
"592 340 OFFCURVE",
"535 369 CURVE",
"511 353 LINE",
"571 325 OFFCURVE",
"605 285 OFFCURVE",
"605 226 CURVE SMOOTH",
"605 135 OFFCURVE",
"542 88 OFFCURVE",
"441 88 CURVE SMOOTH",
"257 88 OFFCURVE",
"151 251 OFFCURVE",
"61 548 CURVE",
"35 541 LINE",
"135 211 OFFCURVE",
"254 62 OFFCURVE",
"442 62 CURVE SMOOTH",
"557 62 OFFCURVE",
"632 124 OFFCURVE",
"632 226 CURVE SMOOTH"
);
}
);
width = 699;
},
{
layerId = "22409DE3-74E9-441F-9C04-63D5519B89AC";
paths = (
{
closed = 1;
nodes = (
"419 629 OFFCURVE",
"272 543 OFFCURVE",
"272 419 CURVE SMOOTH",
"272 340 OFFCURVE",
"331 280 OFFCURVE",
"448 269 CURVE",
"478 404 LINE",
"453 406 OFFCURVE",
"448 418 OFFCURVE",
"448 428 CURVE SMOOTH",
"448 456 OFFCURVE",
"506 494 OFFCURVE",
"560 494 CURVE SMOOTH",
"590 494 OFFCURVE",
"604 480 OFFCURVE",
"604 459 CURVE SMOOTH",
"604 419 OFFCURVE",
"572 398 OFFCURVE",
"501 373 CURVE",
"553 247 LINE",
"668 288 OFFCURVE",
"780 366 OFFCURVE",
"780 473 CURVE SMOOTH",
"780 567 OFFCURVE",
"707 629 OFFCURVE",
"568 629 CURVE SMOOTH"
);
},
{
closed = 1;
nodes = (
"792 289 OFFCURVE",
"751 339 OFFCURVE",
"687 378 CURVE",
"547 302 LINE",
"592 282 OFFCURVE",
"614 266 OFFCURVE",
"614 234 CURVE SMOOTH",
"614 187 OFFCURVE",
"567 169 OFFCURVE",
"503 169 CURVE SMOOTH",
"345 169 OFFCURVE",
"249 263 OFFCURVE",
"181 510 CURVE",
"16 463 LINE",
"118 125 OFFCURVE",
"296 24 OFFCURVE",
"514 24 CURVE SMOOTH",
"697 24 OFFCURVE",
"792 105 OFFCURVE",
"792 221 CURVE SMOOTH"
);
}
);
width = 830;
},
{
layerId = "F0143EB7-DEA3-4B38-8B70-DEA25CF19AA9";
paths = (
{
closed = 1;
nodes = (
"274 629 OFFCURVE",
"179 525 OFFCURVE",
"179 433 CURVE SMOOTH",
"179 371 OFFCURVE",
"209 335 OFFCURVE",
"277 325 CURVE",
"292 395 LINE",
"256 396 OFFCURVE",
"251 414 OFFCURVE",
"251 437 CURVE SMOOTH",
"251 485 OFFCURVE",
"303 560 OFFCURVE",
"368 560 CURVE SMOOTH",
"406 560 OFFCURVE",
"424 530 OFFCURVE",
"424 491 CURVE SMOOTH",
"424 425 OFFCURVE",
"377 387 OFFCURVE",
"318 350 CURVE",
"356 289 LINE",
"421 331 OFFCURVE",
"496 399 OFFCURVE",
"496 496 CURVE SMOOTH",
"496 577 OFFCURVE",
"450 629 OFFCURVE",
"371 629 CURVE SMOOTH"
);
},
{
closed = 1;
nodes = (
"503 283 OFFCURVE",
"467 339 OFFCURVE",
"420 376 CURVE",
"351 334 LINE",
"391 309 OFFCURVE",
"431 278 OFFCURVE",
"431 213 CURVE SMOOTH",
"431 149 OFFCURVE",
"393 116 OFFCURVE",
"330 116 CURVE SMOOTH",
"205 116 OFFCURVE",
"142 243 OFFCURVE",
"87 527 CURVE",
"17 512 LINE",
"79 173 OFFCURVE",
"175 43 OFFCURVE",
"333 43 CURVE SMOOTH",
"433 43 OFFCURVE",
"503 105 OFFCURVE",
"503 211 CURVE SMOOTH"
);
}
);
width = 541;
}
);
unicode = 0993;
},
{
glyphname = aubeng;
lastChange = "2020-04-14 07:51:14 +0000";
layers = (
{
layerId = "8680C114-EF70-46E9-96FB-C90A78B2DAE0";
paths = (
{
closed = 1;
nodes = (
"387 629 OFFCURVE",
"251 537 OFFCURVE",
"251 424 CURVE SMOOTH",
"251 357 OFFCURVE",
"301 301 OFFCURVE",
"403 290 CURVE",
"430 401 LINE",
"392 406 OFFCURVE",
"386 417 OFFCURVE",
"386 433 CURVE SMOOTH",
"386 466 OFFCURVE",
"455 521 OFFCURVE",
"527 521 CURVE SMOOTH",
"567 521 OFFCURVE",
"587 502 OFFCURVE",
"587 470 CURVE SMOOTH",
"587 417 OFFCURVE",
"532 387 OFFCURVE",
"466 364 CURVE",
"512 256 LINE",
"582 281 OFFCURVE",
"641 316 OFFCURVE",
"677 362 CURVE",
"698 393 LINE",
"712 417 OFFCURVE",
"719 445 OFFCURVE",
"719 475 CURVE SMOOTH",
"719 574 OFFCURVE",
"654 629 OFFCURVE",
"531 629 CURVE SMOOTH"
);
},
{
closed = 1;
nodes = (
"731 282 OFFCURVE",
"690 334 OFFCURVE",
"634 371 CURVE",
"515 318 LINE",
"560 303 OFFCURVE",
"597 275 OFFCURVE",
"597 230 CURVE SMOOTH",
"597 172 OFFCURVE",
"540 141 OFFCURVE",
"471 141 CURVE SMOOTH",
"319 141 OFFCURVE",
"223 234 OFFCURVE",
"141 507 CURVE",
"16 472 LINE",
"116 125 OFFCURVE",
"271 26 OFFCURVE",
"483 26 CURVE SMOOTH",
"636 26 OFFCURVE",
"731 102 OFFCURVE",
"731 216 CURVE SMOOTH"
);
},
{
closed = 1;
nodes = (
"891 636 OFFCURVE",
"875 681 OFFCURVE",
"842 715 CURVE SMOOTH",
"807 752 OFFCURVE",
"752 775 OFFCURVE",
"663 787 CURVE SMOOTH",
"530 804 LINE SMOOTH",
"495 808 OFFCURVE",
"475 814 OFFCURVE",
"460 827 CURVE SMOOTH",
"448 838 OFFCURVE",
"442 855 OFFCURVE",
"442 878 CURVE SMOOTH",
"442 888 OFFCURVE",
"443 903 OFFCURVE",
"445 911 CURVE",
"317 917 LINE",
"313 904 OFFCURVE",
"311 884 OFFCURVE",
"311 866 CURVE SMOOTH",
"311 759 OFFCURVE",
"359 709 OFFCURVE",
"491 692 CURVE SMOOTH",
"613 676 LINE SMOOTH",
"660 670 OFFCURVE",
"705 658 OFFCURVE",
"730 635 CURVE SMOOTH",
"748 619 OFFCURVE",
"759 599 OFFCURVE",
"759 571 CURVE SMOOTH",
"759 512 OFFCURVE",
"712 479 OFFCURVE",
"665 461 CURVE",
"650 322 LINE",
"793 385 OFFCURVE",
"891 453 OFFCURVE",
"891 581 CURVE SMOOTH"
);
}
);
width = 928;
},
{
layerId = UUID0;
paths = (
{
closed = 1;
nodes = (
"371 629 OFFCURVE",
"251 521 OFFCURVE",
"251 431 CURVE SMOOTH",
"251 374 OFFCURVE",
"289 335 OFFCURVE",
"365 321 CURVE",
"386 395 LINE",
"339 402 OFFCURVE",
"331 418 OFFCURVE",
"331 439 CURVE SMOOTH",
"331 484 OFFCURVE",
"413 558 OFFCURVE",
"509 558 CURVE SMOOTH",
"562 558 OFFCURVE",
"591 531 OFFCURVE",
"591 482 CURVE SMOOTH",
"591 419 OFFCURVE",
"538 383 OFFCURVE",
"449 354 CURVE",
"480 282 LINE",
"546 307 OFFCURVE",
"601 338 OFFCURVE",
"635 381 CURVE",
"632 402 LINE",
"654 428 OFFCURVE",
"670 457 OFFCURVE",
"670 488 CURVE SMOOTH",
"670 573 OFFCURVE",
"611 629 OFFCURVE",
"509 629 CURVE SMOOTH"
);
},
{
closed = 1;
nodes = (
"681 289 OFFCURVE",
"648 341 OFFCURVE",
"589 373 CURVE",
"509 338 LINE",
"562 315 OFFCURVE",
"600 280 OFFCURVE",
"600 228 CURVE SMOOTH",
"600 152 OFFCURVE",
"539 118 OFFCURVE",
"455 118 CURVE SMOOTH",
"286 118 OFFCURVE",
"183 242 OFFCURVE",
"103 529 CURVE",
"28 507 LINE",
"117 168 OFFCURVE",
"265 42 OFFCURVE",
"453 42 CURVE SMOOTH",
"593 42 OFFCURVE",
"681 114 OFFCURVE",
"681 225 CURVE SMOOTH"
);
},
{
closed = 1;
nodes = (
"832 633 OFFCURVE",
"811 679 OFFCURVE",
"771 710 CURVE SMOOTH",
"737 737 OFFCURVE",
"694 753 OFFCURVE",
"625 762 CURVE SMOOTH",
"484 781 LINE SMOOTH",
"436 788 OFFCURVE",
"414 798 OFFCURVE",
"400 814 CURVE SMOOTH",
"386 831 OFFCURVE",
"380 851 OFFCURVE",
"380 878 CURVE SMOOTH",
"380 888 OFFCURVE",
"381 901 OFFCURVE",
"383 913 CURVE",
"309 917 LINE",
"307 904 OFFCURVE",
"305 885 OFFCURVE",
"305 875 CURVE SMOOTH",
"305 773 OFFCURVE",
"355 725 OFFCURVE",
"482 707 CURVE SMOOTH",
"600 691 LINE SMOOTH",
"659 683 OFFCURVE",
"700 670 OFFCURVE",
"724 646 CURVE SMOOTH",
"743 627 OFFCURVE",
"754 604 OFFCURVE",
"754 570 CURVE SMOOTH",
"754 508 OFFCURVE",
"704 466 OFFCURVE",
"651 439 CURVE",
"597 343 LINE",
"738 398 OFFCURVE",
"832 460 OFFCURVE",
"832 577 CURVE SMOOTH"
);
}
);
width = 874;
},
{
layerId = "46A56A9B-0135-45C3-BDA6-6C6C4BC92BD5";
paths = (
{
closed = 1;
nodes = (
"372 629 OFFCURVE",
"262 528 OFFCURVE",
"262 443 CURVE SMOOTH",
"262 389 OFFCURVE",
"292 358 OFFCURVE",
"353 348 CURVE",
"360 373 LINE",
"301 383 OFFCURVE",
"289 407 OFFCURVE",
"289 443 CURVE SMOOTH",
"289 511 OFFCURVE",
"381 603 OFFCURVE",
"492 603 CURVE SMOOTH",
"563 603 OFFCURVE",
"597 563 OFFCURVE",
"597 499 CURVE SMOOTH",
"597 427 OFFCURVE",
"549 375 OFFCURVE",
"439 338 CURVE",
"448 314 LINE",
"503 334 OFFCURVE",
"546 357 OFFCURVE",
"575 385 CURVE",
"567 386 LINE",
"601 417 OFFCURVE",
"624 450 OFFCURVE",
"624 499 CURVE SMOOTH",
"624 577 OFFCURVE",
"577 629 OFFCURVE",
"492 629 CURVE SMOOTH"
);
},
{
closed = 1;
nodes = (
"632 295 OFFCURVE",
"592 340 OFFCURVE",
"535 369 CURVE",
"511 353 LINE",
"571 325 OFFCURVE",
"605 285 OFFCURVE",
"605 226 CURVE SMOOTH",
"605 135 OFFCURVE",
"542 88 OFFCURVE",
"441 88 CURVE SMOOTH",
"257 88 OFFCURVE",
"151 251 OFFCURVE",
"61 548 CURVE",
"35 541 LINE",
"135 211 OFFCURVE",
"254 62 OFFCURVE",
"442 62 CURVE SMOOTH",
"557 62 OFFCURVE",
"632 124 OFFCURVE",
"632 226 CURVE SMOOTH"
);
},
{
closed = 1;
nodes = (
"782 633 OFFCURVE",
"762 670 OFFCURVE",
"732 695 CURVE SMOOTH",
"696 724 OFFCURVE",
"649 738 OFFCURVE",
"576 748 CURVE SMOOTH",
"445 767 LINE SMOOTH",
"400 773 OFFCURVE",
"374 783 OFFCURVE",
"356 802 CURVE SMOOTH",
"340 819 OFFCURVE",
"333 841 OFFCURVE",
"333 879 CURVE SMOOTH",
"333 889 OFFCURVE",
"334 906 OFFCURVE",
"336 915 CURVE",
"309 917 LINE",
"307 905 OFFCURVE",
"306 889 OFFCURVE",
"306 880 CURVE SMOOTH",
"306 781 OFFCURVE",
"362 753 OFFCURVE",
"442 741 CURVE SMOOTH",
"574 722 LINE SMOOTH",
"650 711 OFFCURVE",
"688 697 OFFCURVE",
"715 675 CURVE SMOOTH",
"743 652 OFFCURVE",
"755 621 OFFCURVE",
"755 581 CURVE SMOOTH",
"755 496 OFFCURVE",
"691 451 OFFCURVE",
"559 385 CURVE",
"536 355 LINE",
"700 421 OFFCURVE",
"782 478 OFFCURVE",
"782 579 CURVE SMOOTH"
);
}
);
width = 833;
},
{
layerId = "22409DE3-74E9-441F-9C04-63D5519B89AC";
paths = (
{
closed = 1;
nodes = (
"419 629 OFFCURVE",
"272 543 OFFCURVE",
"272 419 CURVE SMOOTH",
"272 340 OFFCURVE",
"331 280 OFFCURVE",
"448 269 CURVE",
"478 404 LINE",
"453 406 OFFCURVE",
"448 418 OFFCURVE",
"448 428 CURVE SMOOTH",
"448 456 OFFCURVE",
"506 494 OFFCURVE",
"560 494 CURVE SMOOTH",
"590 494 OFFCURVE",
"604 480 OFFCURVE",
"604 459 CURVE SMOOTH",
"604 419 OFFCURVE",
"572 398 OFFCURVE",
"501 373 CURVE",
"553 247 LINE",
"631 275 OFFCURVE",
"703 320 OFFCURVE",
"741 379 CURVE",
"758 420 LINE",
"764 437 OFFCURVE",
"767 454 OFFCURVE",
"767 473 CURVE SMOOTH",
"767 575 OFFCURVE",
"707 629 OFFCURVE",
"568 629 CURVE SMOOTH"
);
},
{
closed = 1;
nodes = (
"792 289 OFFCURVE",
"751 339 OFFCURVE",
"687 378 CURVE",
"547 302 LINE",
"592 282 OFFCURVE",
"614 266 OFFCURVE",
"614 234 CURVE SMOOTH",
"614 187 OFFCURVE",
"567 169 OFFCURVE",
"503 169 CURVE SMOOTH",
"345 169 OFFCURVE",
"249 263 OFFCURVE",
"181 510 CURVE",
"16 463 LINE",
"118 125 OFFCURVE",
"296 24 OFFCURVE",
"514 24 CURVE SMOOTH",
"697 24 OFFCURVE",
"792 105 OFFCURVE",
"792 221 CURVE SMOOTH"
);
},
{
closed = 1;
nodes = (
"956 648 OFFCURVE",
"933 698 OFFCURVE",
"893 732 CURVE SMOOTH",
"848 770 OFFCURVE",
"795 790 OFFCURVE",
"677 807 CURVE SMOOTH",
"593 819 LINE SMOOTH",
"551 825 OFFCURVE",
"526 830 OFFCURVE",
"512 843 CURVE SMOOTH",
"504 851 OFFCURVE",
"500 861 OFFCURVE",
"500 877 CURVE SMOOTH",
"500 885 OFFCURVE",
"500 895 OFFCURVE",
"502 907 CURVE",
"337 917 LINE",
"334 903 OFFCURVE",
"332 882 OFFCURVE",
"332 868 CURVE SMOOTH",
"332 746 OFFCURVE",
"396 696 OFFCURVE",
"527 679 CURVE SMOOTH",
"636 665 LINE SMOOTH",
"695 657 OFFCURVE",
"727 648 OFFCURVE",
"751 632 CURVE SMOOTH",
"772 618 OFFCURVE",
"783 597 OFFCURVE",
"783 572 CURVE SMOOTH",
"783 511 OFFCURVE",
"754 486 OFFCURVE",
"699 462 CURVE",
"706 306 LINE",
"847 364 OFFCURVE",
"956 454 OFFCURVE",
"956 588 CURVE SMOOTH"
);
}
);
width = 996;
},
{
layerId = "F0143EB7-DEA3-4B38-8B70-DEA25CF19AA9";
paths = (
{
closed = 1;
nodes = (
"274 629 OFFCURVE",
"179 525 OFFCURVE",
"179 433 CURVE SMOOTH",
"179 371 OFFCURVE",
"209 335 OFFCURVE",
"277 325 CURVE",
"292 395 LINE",
"256 396 OFFCURVE",
"251 414 OFFCURVE",
"251 437 CURVE SMOOTH",
"251 485 OFFCURVE",
"303 560 OFFCURVE",
"368 560 CURVE SMOOTH",
"406 560 OFFCURVE",
"424 530 OFFCURVE",
"424 491 CURVE SMOOTH",
"424 425 OFFCURVE",
"377 387 OFFCURVE",
"318 350 CURVE",
"356 289 LINE",
"399 317 OFFCURVE",
"446 356 OFFCURVE",
"473 407 CURVE",
"479 433 LINE",
"486 449 OFFCURVE",
"495 472 OFFCURVE",
"495 503 CURVE SMOOTH",
"495 575 OFFCURVE",
"450 629 OFFCURVE",
"371 629 CURVE SMOOTH"
);
},
{
closed = 1;
nodes = (
"503 283 OFFCURVE",
"467 339 OFFCURVE",
"420 376 CURVE",
"351 334 LINE",
"391 309 OFFCURVE",
"431 278 OFFCURVE",
"431 213 CURVE SMOOTH",
"431 149 OFFCURVE",
"393 116 OFFCURVE",
"330 116 CURVE SMOOTH",
"205 116 OFFCURVE",
"142 243 OFFCURVE",
"87 527 CURVE",
"17 512 LINE",
"79 173 OFFCURVE",
"175 43 OFFCURVE",
"333 43 CURVE SMOOTH",
"433 43 OFFCURVE",
"503 105 OFFCURVE",
"503 211 CURVE SMOOTH"
);
},
{
closed = 1;
nodes = (
"619 631 OFFCURVE",
"609 668 OFFCURVE",
"581 698 CURVE SMOOTH",
"553 727 OFFCURVE",
"513 748 OFFCURVE",
"447 762 CURVE SMOOTH",
"383 776 LINE SMOOTH",
"350 783 OFFCURVE",
"328 792 OFFCURVE",
"316 803 CURVE SMOOTH",
"295 821 OFFCURVE",
"292 846 OFFCURVE",
"292 877 CURVE SMOOTH",
"292 887 OFFCURVE",
"293 902 OFFCURVE",
"295 913 CURVE",
"227 917 LINE",
"225 903 OFFCURVE",
"223 887 OFFCURVE",
"223 873 CURVE SMOOTH",
"223 783 OFFCURVE",
"258 730 OFFCURVE",
"368 708 CURVE SMOOTH",
"424 697 LINE SMOOTH",
"460 689 OFFCURVE",
"495 679 OFFCURVE",
"516 660 CURVE SMOOTH",
"537 641 OFFCURVE",
"548 614 OFFCURVE",
"548 580 CURVE SMOOTH",
"548 521 OFFCURVE",
"518 486 OFFCURVE",
"478 449 CURVE",
"431 350 LINE",
"555 420 OFFCURVE",
"619 477 OFFCURVE",
"619 585 CURVE SMOOTH"
);
}
);
width = 656;
}
);
unicode = 0994;
},
{
glyphname = kabeng;
lastChange = "2020-04-14 07:51:14 +0000";
layers = (
{
layerId = "8680C114-EF70-46E9-96FB-C90A78B2DAE0";
paths = (
{
closed = 1;
nodes = (
"-10 622 LINE",
"-10 512 LINE",
"414 512 LINE",
"414 466 LINE",
"433 495 LINE",
"291 458 OFFCURVE",
"138 389 OFFCURVE",
"16 321 CURVE",
"66 203 LINE",
"215 178 OFFCURVE",
"336 108 OFFCURVE",
"411 0 CURVE",
"543 0 LINE",
"543 411 LINE",
"541 452 LINE",
"541 512 LINE",
"867 512 LINE",
"867 622 LINE"
);
},
{
closed = 1;
nodes = (
"411 204 LINE SMOOTH",
"411 171 OFFCURVE",
"413 141 OFFCURVE",
"415 117 CURVE",
"433 128 LINE",
"364 210 OFFCURVE",
"266 262 OFFCURVE",
"184 278 CURVE",
"270 319 OFFCURVE",
"344 351 OFFCURVE",
"432 377 CURVE",
"411 399 LINE"
);
},
{
closed = 1;
nodes = (
"825 389 OFFCURVE",
"691 471 OFFCURVE",
"527 493 CURVE",
"527 384 LINE",
"637 365 OFFCURVE",
"696 329 OFFCURVE",
"696 284 CURVE SMOOTH",
"696 260 OFFCURVE",
"686 241 OFFCURVE",
"638 241 CURVE SMOOTH",
"622 241 OFFCURVE",
"613 242 OFFCURVE",
"606 243 CURVE",
"602 133 LINE",
"622 129 OFFCURVE",
"645 127 OFFCURVE",
"673 127 CURVE SMOOTH",
"790 127 OFFCURVE",
"825 192 OFFCURVE",
"825 258 CURVE SMOOTH"
);
}
);
width = 857;
},
{
layerId = UUID0;
paths = (
{
closed = 1;
nodes = (
"-10 622 LINE",
"-10 551 LINE",
"415 551 LINE",
"415 475 LINE",
"437 517 LINE",
"291 472 OFFCURVE",
"166 414 OFFCURVE",
"37 339 CURVE",
"76 243 LINE",
"222 224 OFFCURVE",
"357 118 OFFCURVE",
"415 0 CURVE",
"492 0 LINE",
"492 473 LINE",
"492 489 LINE",
"492 551 LINE",
"817 551 LINE",
"817 622 LINE"
);
},
{
closed = 1;
nodes = (
"415 189 LINE SMOOTH",
"415 146 OFFCURVE",
"417 119 OFFCURVE",
"420 88 CURVE",
"428 90 LINE",
"379 194 OFFCURVE",
"242 282 OFFCURVE",
"130 304 CURVE",
"216 351 OFFCURVE",
"333 409 OFFCURVE",
"436 438 CURVE",
"415 467 LINE"
);
},
{
closed = 1;
nodes = (
"761 410 OFFCURVE",
"635 496 OFFCURVE",
"482 513 CURVE",
"479 438 LINE",
"614 419 OFFCURVE",
"683 366 OFFCURVE",
"683 296 CURVE SMOOTH",
"683 261 OFFCURVE",
"670 233 OFFCURVE",
"606 233 CURVE SMOOTH",
"591 233 OFFCURVE",
"580 234 OFFCURVE",
"572 235 CURVE",
"566 163 LINE",
"584 159 OFFCURVE",
"604 158 OFFCURVE",
"625 158 CURVE SMOOTH",
"725 158 OFFCURVE",
"761 222 OFFCURVE",
"761 288 CURVE SMOOTH"
);
}
);
width = 807;
},
{
layerId = "46A56A9B-0135-45C3-BDA6-6C6C4BC92BD5";
paths = (
{
closed = 1;
nodes = (
"-10 622 LINE",
"-10 596 LINE",
"414 596 LINE",
"414 520 LINE",
"421 527 LINE",
"290 479 OFFCURVE",
"165 416 OFFCURVE",
"41 336 CURVE",
"55 302 LINE",
"215 264 OFFCURVE",
"341 164 OFFCURVE",
"414 0 CURVE",
"440 0 LINE",
"440 511 LINE",
"440 519 LINE",
"440 596 LINE",
"769 596 LINE",
"769 622 LINE"
);
},
{
closed = 1;
nodes = (
"414 168 LINE SMOOTH",
"414 112 OFFCURVE",
"416 55 OFFCURVE",
"420 23 CURVE",
"426 23 LINE",
"357 198 OFFCURVE",
"210 288 OFFCURVE",
"70 325 CURVE",
"183 395 OFFCURVE",
"318 465 OFFCURVE",
"426 503 CURVE",
"414 511 LINE"
);
},
{
closed = 1;
nodes = (
"704 419 OFFCURVE",
"601 506 OFFCURVE",
"429 527 CURVE",
"429 501 LINE",
"584 482 OFFCURVE",
"677 406 OFFCURVE",
"677 312 CURVE SMOOTH",
"677 262 OFFCURVE",
"658 225 OFFCURVE",
"577 225 CURVE SMOOTH",
"562 225 OFFCURVE",
"549 227 OFFCURVE",
"537 229 CURVE",
"535 203 LINE",
"549 200 OFFCURVE",
"559 199 OFFCURVE",
"577 199 CURVE SMOOTH",
"667 199 OFFCURVE",
"704 245 OFFCURVE",
"704 312 CURVE SMOOTH"
);
}
);
width = 759;
},
{
layerId = "22409DE3-74E9-441F-9C04-63D5519B89AC";
paths = (
{
closed = 1;
nodes = (
"-10 622 LINE",
"-10 484 LINE",
"392 484 LINE",
"392 441 LINE",
"409 468 LINE",
"274 437 OFFCURVE",
"144 393 OFFCURVE",
"14 327 CURVE",
"77 170 LINE",
"219 143 OFFCURVE",
"303 95 OFFCURVE",
"386 0 CURVE",
"561 0 LINE",
"561 359 LINE",
"558 418 LINE",
"558 484 LINE",
"888 484 LINE",
"888 622 LINE"
);
},
{
closed = 1;
nodes = (
"386 233 LINE SMOOTH",
"386 203 OFFCURVE",
"389 167 OFFCURVE",
"392 141 CURVE",
"419 139 LINE",
"372 199 OFFCURVE",
"282 247 OFFCURVE",
"214 260 CURVE",
"276 289 OFFCURVE",
"334 311 OFFCURVE",
"404 328 CURVE",
"386 337 LINE"
);
},
{
closed = 1;
nodes = (
"852 368 OFFCURVE",
"719 449 OFFCURVE",
"548 465 CURVE",
"550 333 LINE",
"642 319 OFFCURVE",
"679 296 OFFCURVE",
"679 268 CURVE SMOOTH",
"679 252 OFFCURVE",
"668 241 OFFCURVE",
"645 241 CURVE SMOOTH",
"632 241 OFFCURVE",
"620 242 OFFCURVE",
"611 244 CURVE",
"605 106 LINE",
"630 101 OFFCURVE",
"659 99 OFFCURVE",
"690 99 CURVE SMOOTH",
"818 99 OFFCURVE",
"852 163 OFFCURVE",
"852 241 CURVE SMOOTH"
);
}
);
width = 878;
},
{
layerId = "F0143EB7-DEA3-4B38-8B70-DEA25CF19AA9";
paths = (
{
closed = 1;
nodes = (
"-6 622 LINE",
"-6 554 LINE",
"299 554 LINE",
"299 478 LINE",
"314 524 LINE",
"211 478 OFFCURVE",
"114 411 OFFCURVE",
"23 336 CURVE",
"55 251 LINE",
"169 219 OFFCURVE",
"251 121 OFFCURVE",
"299 0 CURVE",
"370 0 LINE",
"370 481 LINE",
"370 497 LINE",
"370 554 LINE",
"607 554 LINE",
"607 622 LINE"
);
},
{
closed = 1;
nodes = (
"299 186 LINE SMOOTH",
"299 154 OFFCURVE",
"301 109 OFFCURVE",
"304 79 CURVE",
"309 92 LINE",
"268 205 OFFCURVE",
"190 275 OFFCURVE",
"103 308 CURVE",
"167 363 OFFCURVE",
"253 415 OFFCURVE",
"316 447 CURVE",
"299 470 LINE"
);
},
{
closed = 1;
nodes = (
"566 403 OFFCURVE",
"474 500 OFFCURVE",
"361 520 CURVE",
"360 450 LINE",
"444 427 OFFCURVE",
"495 368 OFFCURVE",
"495 291 CURVE SMOOTH",
"495 261 OFFCURVE",
"487 232 OFFCURVE",
"448 232 CURVE SMOOTH",
"438 232 OFFCURVE",
"428 233 OFFCURVE",
"422 234 CURVE",
"419 165 LINE",
"432 162 OFFCURVE",
"449 161 OFFCURVE",
"465 161 CURVE SMOOTH",
"541 161 OFFCURVE",
"566 223 OFFCURVE",
"566 289 CURVE SMOOTH"
);
}
);
width = 601;
}
);
unicode = 0995;
},
{
glyphname = khabeng;
lastChange = "2020-04-14 07:51:14 +0000";
layers = (
{
layerId = "8680C114-EF70-46E9-96FB-C90A78B2DAE0";
paths = (
{
closed = 1;
nodes = (
"662 622 LINE",
"639 688 LINE",
"531 688 LINE",
"531 242 LINE SMOOTH",
"531 207 OFFCURVE",
"531 176 OFFCURVE",
"533 146 CURVE",
"461 208 OFFCURVE",
"386 271 OFFCURVE",
"192 291 CURVE",
"133 315 LINE",
"166 199 LINE",
"333 172 OFFCURVE",
"437 113 OFFCURVE",
"531 0 CURVE",
"663 0 LINE",
"663 512 LINE",
"759 512 LINE",
"759 622 LINE"
);
},
{
closed = 1;
nodes = (
"475 526 OFFCURVE",
"446 583 OFFCURVE",
"407 625 CURVE",
"282 542 LINE",
"315 517 OFFCURVE",
"346 489 OFFCURVE",
"346 449 CURVE SMOOTH",
"346 381 OFFCURVE",
"278 342 OFFCURVE",
"133 315 CURVE",
"153 268 LINE",
"236 248 LINE",
"401 268 OFFCURVE",
"475 353 OFFCURVE",
"475 462 CURVE SMOOTH"
);
},
{
closed = 1;
nodes = (
"303 421 OFFCURVE",
"360 483 OFFCURVE",
"420 587 CURVE",
"407 625 LINE",
"314 604 LINE",
"275 548 OFFCURVE",
"251 532 OFFCURVE",
"213 532 CURVE SMOOTH",
"190 532 OFFCURVE",
"174 542 OFFCURVE",
"174 566 CURVE SMOOTH",
"174 578 OFFCURVE",
"177 588 OFFCURVE",
"183 600 CURVE",
"65 628 LINE",
"53 604 OFFCURVE",
"44 575 OFFCURVE",
"44 543 CURVE SMOOTH",
"44 467 OFFCURVE",
"101 421 OFFCURVE",
"191 421 CURVE SMOOTH"
);
}
);
width = 749;
},
{
layerId = UUID0;
paths = (
{
closed = 1;
nodes = (
"600 622 LINE",
"577 688 LINE",
"524 688 LINE",
"524 193 LINE SMOOTH",
"524 157 OFFCURVE",
"524 127 OFFCURVE",
"526 97 CURVE",
"471 173 OFFCURVE",
"375 264 OFFCURVE",
"190 296 CURVE",
"142 331 LINE",
"166 238 LINE",
"336 208 OFFCURVE",
"448 110 OFFCURVE",
"524 0 CURVE",
"601 0 LINE",
"601 551 LINE",
"706 551 LINE",
"706 622 LINE"
);
},
{
closed = 1;
nodes = (
"450 530 OFFCURVE",
"416 583 OFFCURVE",
"371 625 CURVE SMOOTH",
"316 571 LINE",
"357 539 OFFCURVE",
"375 507 OFFCURVE",
"375 466 CURVE SMOOTH",
"375 391 OFFCURVE",
"303 343 OFFCURVE",
"142 331 CURVE",
"162 285 LINE",
"209 276 LINE",
"347 292 OFFCURVE",
"450 353 OFFCURVE",
"450 470 CURVE SMOOTH"
);
},
{
closed = 1;
nodes = (
"269 430 OFFCURVE",
"333 487 OFFCURVE",
"373 575 CURVE",
"371 625 LINE",
"316 612 LINE",
"269 518 OFFCURVE",
"221 501 OFFCURVE",
"182 501 CURVE SMOOTH",
"151 501 OFFCURVE",
"130 517 OFFCURVE",
"130 552 CURVE SMOOTH",
"130 573 OFFCURVE",
"138 593 OFFCURVE",
"147 607 CURVE",
"71 628 LINE",
"59 608 OFFCURVE",
"49 579 OFFCURVE",
"49 548 CURVE SMOOTH",
"49 474 OFFCURVE",
"101 430 OFFCURVE",
"182 430 CURVE SMOOTH"
);
}
);
width = 696;
},
{
layerId = "46A56A9B-0135-45C3-BDA6-6C6C4BC92BD5";
paths = (
{
closed = 1;
nodes = (
"544 622 LINE",
"539 676 LINE",
"518 676 LINE",
"518 136 LINE SMOOTH",
"518 99 OFFCURVE",
"518 70 OFFCURVE",
"520 40 CURVE",
"473 138 OFFCURVE",
"361 250 OFFCURVE",
"184 292 CURVE",
"159 312 LINE",
"166 270 LINE",
"346 232 OFFCURVE",
"459 114 OFFCURVE",
"518 0 CURVE",
"544 0 LINE",
"544 596 LINE",
"659 596 LINE",
"659 622 LINE"
);
},
{
closed = 1;
nodes = (
"417 530 OFFCURVE",
"384 577 OFFCURVE",
"337 625 CURVE",
"318 605 LINE",
"357 567 OFFCURVE",
"390 528 OFFCURVE",
"390 464 CURVE SMOOTH",
"390 383 OFFCURVE",
"332 330 OFFCURVE",
"159 312 CURVE",
"171 284 LINE",
"178 290 LINE",
"330 309 OFFCURVE",
"417 355 OFFCURVE",
"417 465 CURVE SMOOTH"
);
},
{
closed = 1;
nodes = (
"241 446 OFFCURVE",
"301 506 OFFCURVE",
"339 601 CURVE",
"337 625 LINE",
"319 620 LINE",
"273 502 OFFCURVE",
"213 472 OFFCURVE",
"157 472 CURVE SMOOTH",
"117 472 OFFCURVE",
"82 495 OFFCURVE",
"82 549 CURVE SMOOTH",
"82 573 OFFCURVE",
"89 599 OFFCURVE",
"100 620 CURVE",
"75 628 LINE",
"64 607 OFFCURVE",
"55 580 OFFCURVE",
"55 549 CURVE SMOOTH",
"55 485 OFFCURVE",
"98 446 OFFCURVE",
"157 446 CURVE SMOOTH"
);
}
);
width = 649;
},
{
layerId = "22409DE3-74E9-441F-9C04-63D5519B89AC";
paths = (
{
closed = 1;
nodes = (
"724 622 LINE",
"699 692 LINE",
"549 692 LINE",
"549 273 LINE SMOOTH",
"549 238 OFFCURVE",
"549 207 OFFCURVE",
"551 177 CURVE",
"484 230 OFFCURVE",
"419 267 OFFCURVE",
"279 286 CURVE",
"158 333 LINE",
"201 184 LINE",
"374 148 OFFCURVE",
"451 107 OFFCURVE",
"549 0 CURVE",
"724 0 LINE",
"724 484 LINE",
"809 484 LINE",
"809 622 LINE"
);
},
{
closed = 1;
nodes = (
"508 523 OFFCURVE",
"475 586 OFFCURVE",
"436 625 CURVE",
"267 523 LINE",
"300 504 OFFCURVE",
"338 471 OFFCURVE",
"338 439 CURVE SMOOTH",
"338 382 OFFCURVE",
"264 355 OFFCURVE",
"158 333 CURVE",
"180 272 LINE",
"271 242 LINE",
"456 266 OFFCURVE",
"508 353 OFFCURVE",
"508 456 CURVE SMOOTH"
);
},
{
closed = 1;
nodes = (
"321 410 OFFCURVE",
"369 473 OFFCURVE",
"438 567 CURVE",
"436 625 LINE",
"310 598 LINE",
"287 560 OFFCURVE",
"263 545 OFFCURVE",
"239 545 CURVE SMOOTH",
"218 545 OFFCURVE",
"212 556 OFFCURVE",
"212 572 CURVE SMOOTH",
"212 581 OFFCURVE",
"214 589 OFFCURVE",
"219 600 CURVE",
"64 628 LINE",
"52 601 OFFCURVE",
"44 572 OFFCURVE",
"44 544 CURVE SMOOTH",
"44 462 OFFCURVE",
"102 410 OFFCURVE",
"206 410 CURVE SMOOTH"
);
}
);
width = 799;
},
{
layerId = "F0143EB7-DEA3-4B38-8B70-DEA25CF19AA9";
paths = (
{
closed = 1;
nodes = (
"446 622 LINE",
"430 687 LINE",
"376 687 LINE",
"376 193 LINE SMOOTH",
"376 157 OFFCURVE",
"377 127 OFFCURVE",
"379 97 CURVE",
"335 184 OFFCURVE",
"268 269 OFFCURVE",
"137 304 CURVE",
"93 329 LINE",
"115 245 LINE",
"242 207 OFFCURVE",
"316 116 OFFCURVE",
"376 0 CURVE",
"447 0 LINE",
"447 554 LINE",
"521 554 LINE",
"521 622 LINE"
);
},
{
closed = 1;
nodes = (
"328 531 OFFCURVE",
"302 585 OFFCURVE",
"275 625 CURVE",
"225 577 LINE",
"254 532 OFFCURVE",
"260 510 OFFCURVE",
"260 467 CURVE SMOOTH",
"260 392 OFFCURVE",
"199 343 OFFCURVE",
"93 329 CURVE",
"113 286 LINE",
"149 279 LINE",
"255 294 OFFCURVE",
"328 358 OFFCURVE",
"328 467 CURVE SMOOTH"
);
},
{
closed = 1;
nodes = (
"210 430 OFFCURVE",
"245 488 OFFCURVE",
"277 574 CURVE",
"275 625 LINE",
"226 612 LINE",
"197 511 OFFCURVE",
"167 498 OFFCURVE",
"142 498 CURVE SMOOTH",
"122 498 OFFCURVE",
"109 514 OFFCURVE",
"109 541 CURVE SMOOTH",
"109 566 OFFCURVE",
"117 592 OFFCURVE",
"124 607 CURVE",
"57 628 LINE",
"47 604 OFFCURVE",
"37 574 OFFCURVE",
"37 539 CURVE SMOOTH",
"37 474 OFFCURVE",
"77 430 OFFCURVE",
"139 430 CURVE SMOOTH"
);
}
);
width = 515;
}
);
unicode = 0996;
},
{
glyphname = gabeng;
lastChange = "2020-04-14 07:51:14 +0000";
layers = (
{
layerId = "8680C114-EF70-46E9-96FB-C90A78B2DAE0";
paths = (
{
closed = 1;
nodes = (
"614 0 LINE",
"614 512 LINE",
"710 512 LINE",
"710 622 LINE",
"613 622 LINE",
"591 688 LINE",
"482 688 LINE",
"482 585 LINE SMOOTH",
"482 541 OFFCURVE",
"486 511 OFFCURVE",
"486 495 CURVE",
"530 483 LINE",
"436 577 OFFCURVE",
"366 629 OFFCURVE",
"270 629 CURVE SMOOTH",
"164 629 OFFCURVE",
"85 553 OFFCURVE",
"15 451 CURVE",
"120 367 LINE",
"154 385 OFFCURVE",
"181 393 OFFCURVE",
"208 393 CURVE SMOOTH",
"241 393 OFFCURVE",
"254 379 OFFCURVE",
"254 357 CURVE SMOOTH",
"254 319 OFFCURVE",
"204 288 OFFCURVE",
"127 253 CURVE",
"203 146 LINE",
"321 212 OFFCURVE",
"379 276 OFFCURVE",
"379 356 CURVE SMOOTH",
"379 426 OFFCURVE",
"330 482 OFFCURVE",
"241 482 CURVE SMOOTH",
"192 482 OFFCURVE",
"161 469 OFFCURVE",
"134 452 CURVE",
"146 450 LINE",
"181 486 OFFCURVE",
"212 519 OFFCURVE",
"275 519 CURVE SMOOTH",
"373 519 OFFCURVE",
"447 436 OFFCURVE",
"507 360 CURVE",
"482 403 LINE",
"482 0 LINE"
);
}
);
width = 700;
},
{
layerId = UUID0;
paths = (
{
closed = 1;
nodes = (
"561 0 LINE",
"561 551 LINE",
"666 551 LINE",
"666 622 LINE",
"560 622 LINE",
"537 688 LINE",
"484 688 LINE",
"484 585 LINE SMOOTH",
"484 545 OFFCURVE",
"486 501 OFFCURVE",
"489 483 CURVE",
"507 472 LINE",
"426 576 OFFCURVE",
"354 629 OFFCURVE",
"255 629 CURVE SMOOTH",
"156 629 OFFCURVE",
"83 562 OFFCURVE",
"22 458 CURVE",
"103 392 LINE",
"137 409 OFFCURVE",
"165 417 OFFCURVE",
"200 417 CURVE SMOOTH",
"243 417 OFFCURVE",
"266 394 OFFCURVE",
"266 365 CURVE SMOOTH",
"266 312 OFFCURVE",
"204 275 OFFCURVE",
"131 245 CURVE",
"182 172 LINE",
"294 232 OFFCURVE",
"346 290 OFFCURVE",
"346 369 CURVE SMOOTH",
"346 423 OFFCURVE",
"308 487 OFFCURVE",
"216 487 CURVE SMOOTH",
"165 487 OFFCURVE",
"124 474 OFFCURVE",
"106 457 CURVE",
"120 465 LINE",
"153 513 OFFCURVE",
"192 556 OFFCURVE",
"263 556 CURVE SMOOTH",
"348 556 OFFCURVE",
"412 495 OFFCURVE",
"505 362 CURVE",
"484 425 LINE",
"484 0 LINE"
);
}
);
width = 656;
},
{
layerId = "46A56A9B-0135-45C3-BDA6-6C6C4BC92BD5";
paths = (
{
closed = 1;
nodes = (
"495 0 LINE",
"495 596 LINE",
"610 596 LINE",
"610 622 LINE",
"495 622 LINE",
"490 676 LINE",
"469 676 LINE",
"469 546 LINE SMOOTH",
"469 510 OFFCURVE",
"470 473 OFFCURVE",
"472 451 CURVE",
"494 441 LINE",
"415 561 OFFCURVE",
"355 629 OFFCURVE",
"248 629 CURVE SMOOTH",
"155 629 OFFCURVE",
"87 559 OFFCURVE",
"23 453 CURVE",
"54 428 LINE",
"92 451 OFFCURVE",
"130 467 OFFCURVE",
"179 467 CURVE SMOOTH",
"236 467 OFFCURVE",
"268 438 OFFCURVE",
"268 389 CURVE SMOOTH",
"268 322 OFFCURVE",
"220 280 OFFCURVE",
"118 241 CURVE",
"129 217 LINE",
"243 264 OFFCURVE",
"295 311 OFFCURVE",
"295 390 CURVE SMOOTH",
"295 433 OFFCURVE",
"267 493 OFFCURVE",
"181 493 CURVE SMOOTH",
"121 493 OFFCURVE",
"81 472 OFFCURVE",
"43 448 CURVE",
"49 448 LINE",
"106 537 OFFCURVE",
"163 603 OFFCURVE",
"247 603 CURVE SMOOTH",
"326 603 OFFCURVE",
"378 572 OFFCURVE",
"490 410 CURVE",
"469 446 LINE",
"469 0 LINE"
);
}
);
width = 600;
},
{
layerId = "22409DE3-74E9-441F-9C04-63D5519B89AC";
paths = (
{
closed = 1;
nodes = (
"672 0 LINE",
"672 484 LINE",
"757 484 LINE",
"757 622 LINE",
"671 622 LINE",
"647 692 LINE",
"497 692 LINE",
"497 614 LINE SMOOTH",
"497 575 OFFCURVE",
"498 530 OFFCURVE",
"500 514 CURVE",
"541 490 LINE",
"452 586 OFFCURVE",
"383 629 OFFCURVE",
"293 629 CURVE SMOOTH",
"169 629 OFFCURVE",
"93 555 OFFCURVE",
"15 452 CURVE",
"139 347 LINE",
"169 364 OFFCURVE",
"189 372 OFFCURVE",
"215 372 CURVE SMOOTH",
"233 372 OFFCURVE",
"243 362 OFFCURVE",
"243 346 CURVE SMOOTH",
"243 319 OFFCURVE",
"220 302 OFFCURVE",
"135 262 CURVE",
"228 132 LINE",
"347 191 OFFCURVE",
"412 269 OFFCURVE",
"412 350 CURVE SMOOTH",
"412 429 OFFCURVE",
"358 475 OFFCURVE",
"277 475 CURVE SMOOTH",
"228 475 OFFCURVE",
"201 464 OFFCURVE",
"168 447 CURVE",
"174 439 LINE",
"208 473 OFFCURVE",
"234 497 OFFCURVE",
"299 497 CURVE SMOOTH",
"383 497 OFFCURVE",
"445 426 OFFCURVE",
"503 357 CURVE",
"497 403 LINE",
"497 0 LINE"
);
}
);
width = 747;
},
{
layerId = "F0143EB7-DEA3-4B38-8B70-DEA25CF19AA9";
paths = (
{
closed = 1;
nodes = (
"422 0 LINE",
"422 554 LINE",
"496 554 LINE",
"496 622 LINE",
"422 622 LINE",
"405 687 LINE",
"351 687 LINE",
"351 611 LINE SMOOTH",
"351 571 OFFCURVE",
"352 537 OFFCURVE",
"356 509 CURVE",
"368 511 LINE",
"304 601 OFFCURVE",
"263 629 OFFCURVE",
"197 629 CURVE SMOOTH",
"115 629 OFFCURVE",
"64 563 OFFCURVE",
"14 461 CURVE",
"80 400 LINE",
"101 412 OFFCURVE",
"127 420 OFFCURVE",
"152 420 CURVE SMOOTH",
"181 420 OFFCURVE",
"204 405 OFFCURVE",
"204 372 CURVE SMOOTH",
"204 324 OFFCURVE",
"160 290 OFFCURVE",
"99 262 CURVE",
"144 194 LINE",
"229 245 OFFCURVE",
"277 295 OFFCURVE",
"277 373 CURVE SMOOTH",
"277 433 OFFCURVE",
"240 487 OFFCURVE",
"162 487 CURVE SMOOTH",
"133 487 OFFCURVE",
"106 477 OFFCURVE",
"82 461 CURVE",
"90 458 LINE",
"117 515 OFFCURVE",
"152 559 OFFCURVE",
"200 559 CURVE SMOOTH",
"267 559 OFFCURVE",
"310 499 OFFCURVE",
"370 399 CURVE",
"351 449 LINE",
"351 0 LINE"
);
}
);
width = 490;
}
);
unicode = 0997;
},
{
glyphname = ghabeng;
lastChange = "2020-04-14 07:51:14 +0000";
layers = (
{
layerId = "8680C114-EF70-46E9-96FB-C90A78B2DAE0";
paths = (
{
closed = 1;
nodes = (
"-10 622 LINE",
"-10 512 LINE",
"444 512 LINE",
"444 202 LINE SMOOTH",
"444 179 OFFCURVE",
"446 155 OFFCURVE",
"446 135 CURVE",
"378 197 OFFCURVE",
"300 232 OFFCURVE",
"208 252 CURVE",
"208 233 LINE",
"260 268 OFFCURVE",
"321 300 OFFCURVE",
"386 332 CURVE",
"328 419 LINE",
"290 396 OFFCURVE",
"263 388 OFFCURVE",
"232 388 CURVE SMOOTH",
"205 388 OFFCURVE",
"175 399 OFFCURVE",
"175 439 CURVE SMOOTH",
"175 479 OFFCURVE",
"206 512 OFFCURVE",
"282 542 CURVE",
"154 574 LINE",
"78 529 OFFCURVE",
"39 493 OFFCURVE",
"39 429 CURVE SMOOTH",
"39 368 OFFCURVE",
"86 311 OFFCURVE",
"197 311 CURVE SMOOTH",
"199 311 OFFCURVE",
"206 311 OFFCURVE",
"217 312 CURVE",
"176 333 LINE",
"135 309 OFFCURVE",
"98 286 OFFCURVE",
"60 259 CURVE",
"102 167 LINE",
"260 145 OFFCURVE",
"378 83 OFFCURVE",
"444 0 CURVE",
"576 0 LINE",
"576 512 LINE",
"672 512 LINE",
"672 622 LINE"
);
}
);
width = 662;
},
{
layerId = UUID0;
paths = (
{
closed = 1;
nodes = (
"-10 622 LINE",
"-10 551 LINE",
"459 551 LINE",
"459 165 LINE SMOOTH",
"459 140 OFFCURVE",
"460 114 OFFCURVE",
"461 92 CURVE",
"387 171 OFFCURVE",
"297 228 OFFCURVE",
"144 251 CURVE",
"157 234 LINE",
"215 279 OFFCURVE",
"302 338 OFFCURVE",
"374 381 CURVE",
"331 441 LINE",
"288 412 OFFCURVE",
"253 404 OFFCURVE",
"224 404 CURVE SMOOTH",
"177 404 OFFCURVE",
"137 422 OFFCURVE",
"137 472 CURVE SMOOTH",
"137 513 OFFCURVE",
"167 551 OFFCURVE",
"240 581 CURVE",
"171 616 LINE",
"95 568 OFFCURVE",
"56 529 OFFCURVE",
"56 469 CURVE SMOOTH",
"56 390 OFFCURVE",
"119 343 OFFCURVE",
"234 343 CURVE SMOOTH",
"246 343 OFFCURVE",
"259 345 OFFCURVE",
"276 350 CURVE",
"219 358 LINE",
"170 328 OFFCURVE",
"127 300 OFFCURVE",
"83 266 CURVE",
"118 179 LINE",
"270 169 OFFCURVE",
"396 85 OFFCURVE",
"459 0 CURVE",
"536 0 LINE",
"536 551 LINE",
"641 551 LINE",
"641 622 LINE"
);
}
);
width = 631;
},
{
layerId = "46A56A9B-0135-45C3-BDA6-6C6C4BC92BD5";
paths = (
{
closed = 1;
nodes = (
"-10 622 LINE",
"-10 596 LINE",
"464 596 LINE",
"464 111 LINE SMOOTH",
"464 84 OFFCURVE",
"464 56 OFFCURVE",
"466 33 CURVE",
"396 147 OFFCURVE",
"280 233 OFFCURVE",
"101 260 CURVE",
"105 251 LINE",
"164 299 OFFCURVE",
"265 374 OFFCURVE",
"344 426 CURVE",
"328 447 LINE",
"282 413 OFFCURVE",
"245 404 OFFCURVE",
"203 404 CURVE SMOOTH",
"129 404 OFFCURVE",
"90 432 OFFCURVE",
"90 494 CURVE SMOOTH",
"90 528 OFFCURVE",
"106 571 OFFCURVE",
"176 609 CURVE",
"150 619 LINE",
"89 586 OFFCURVE",
"63 541 OFFCURVE",
"63 494 CURVE SMOOTH",
"63 428 OFFCURVE",
"103 379 OFFCURVE",
"202 379 CURVE SMOOTH",
"231 379 OFFCURVE",
"252 386 OFFCURVE",
"273 397 CURVE",
"281 402 LINE",
"211 369 OFFCURVE",
"137 310 OFFCURVE",
"86 267 CURVE",
"99 235 LINE",
"276 209 OFFCURVE",
"383 119 OFFCURVE",
"464 0 CURVE",
"490 0 LINE",
"490 596 LINE",
"605 596 LINE",
"605 622 LINE"
);
}
);
width = 595;
},
{
layerId = "22409DE3-74E9-441F-9C04-63D5519B89AC";
paths = (
{
closed = 1;
nodes = (
"-10 622 LINE",
"-10 484 LINE",
"439 484 LINE",
"439 229 LINE SMOOTH",
"439 192 OFFCURVE",
"440 169 OFFCURVE",
"441 152 CURVE",
"377 201 OFFCURVE",
"303 226 OFFCURVE",
"230 239 CURVE",
"240 216 LINE",
"290 247 OFFCURVE",
"342 272 OFFCURVE",
"405 298 CURVE",
"339 412 LINE",
"304 392 OFFCURVE",
"281 384 OFFCURVE",
"257 384 CURVE SMOOTH",
"229 384 OFFCURVE",
"215 399 OFFCURVE",
"215 423 CURVE SMOOTH",
"215 453 OFFCURVE",
"237 478 OFFCURVE",
"287 507 CURVE",
"144 557 LINE",
"68 514 OFFCURVE",
"36 475 OFFCURVE",
"36 414 CURVE SMOOTH",
"36 342 OFFCURVE",
"93 293 OFFCURVE",
"190 293 CURVE SMOOTH",
"206 293 OFFCURVE",
"219 294 OFFCURVE",
"232 296 CURVE",
"168 313 LINE",
"123 294 OFFCURVE",
"80 269 OFFCURVE",
"47 246 CURVE",
"96 136 LINE",
"255 118 OFFCURVE",
"351 73 OFFCURVE",
"439 0 CURVE",
"614 0 LINE",
"614 484 LINE",
"699 484 LINE",
"699 622 LINE"
);
}
);
width = 689;
},
{
layerId = "F0143EB7-DEA3-4B38-8B70-DEA25CF19AA9";
paths = (
{
closed = 1;
nodes = (
"-6 622 LINE",
"-6 554 LINE",
"328 554 LINE",
"328 173 LINE SMOOTH",
"328 138 OFFCURVE",
"329 112 OFFCURVE",
"330 90 CURVE",
"278 170 OFFCURVE",
"201 231 OFFCURVE",
"110 255 CURVE",
"109 230 LINE",
"161 278 OFFCURVE",
"230 334 OFFCURVE",
"294 382 CURVE",
"246 437 LINE",
"221 416 OFFCURVE",
"200 404 OFFCURVE",
"176 404 CURVE SMOOTH",
"141 404 OFFCURVE",
"114 423 OFFCURVE",
"114 464 CURVE SMOOTH",
"114 514 OFFCURVE",
"148 553 OFFCURVE",
"200 583 CURVE",
"147 615 LINE",
"86 574 OFFCURVE",
"40 531 OFFCURVE",
"40 459 CURVE SMOOTH",
"40 387 OFFCURVE",
"93 347 OFFCURVE",
"172 347 CURVE SMOOTH",
"186 347 OFFCURVE",
"203 349 OFFCURVE",
"215 354 CURVE",
"195 385 LINE",
"154 356 OFFCURVE",
"83 301 OFFCURVE",
"52 269 CURVE",
"84 191 LINE",
"194 159 OFFCURVE",
"275 93 OFFCURVE",
"328 0 CURVE",
"399 0 LINE",
"399 554 LINE",
"473 554 LINE",
"473 622 LINE"
);
}
);
width = 467;
}
);
unicode = 0998;
},
{
glyphname = ngabeng;
lastChange = "2020-04-14 07:51:14 +0000";
layers = (
{
layerId = "8680C114-EF70-46E9-96FB-C90A78B2DAE0";
paths = (
{
closed = 1;
nodes = (
"621 4 OFFCURVE",
"715 94 OFFCURVE",
"715 224 CURVE SMOOTH",
"715 286 OFFCURVE",
"693 353 OFFCURVE",
"659 401 CURVE",
"541 390 LINE",
"494 348 OFFCURVE",
"468 331 OFFCURVE",
"429 331 CURVE SMOOTH",
"407 331 OFFCURVE",
"403 346 OFFCURVE",
"403 369 CURVE SMOOTH",
"403 458 LINE SMOOTH",
"403 502 OFFCURVE",
"422 542 OFFCURVE",
"465 542 CURVE SMOOTH",
"486 542 OFFCURVE",
"500 532 OFFCURVE",
"500 513 CURVE SMOOTH",
"500 492 OFFCURVE",
"479 474 OFFCURVE",
"435 474 CURVE SMOOTH",
"341 474 OFFCURVE",
"270 543 OFFCURVE",
"210 623 CURVE",
"118 557 LINE",
"183 473 OFFCURVE",
"267 388 OFFCURVE",
"436 388 CURVE SMOOTH",
"534 388 OFFCURVE",
"614 427 OFFCURVE",
"614 509 CURVE SMOOTH",
"614 582 OFFCURVE",
"565 628 OFFCURVE",
"471 628 CURVE SMOOTH",
"354 628 OFFCURVE",
"274 555 OFFCURVE",
"274 421 CURVE SMOOTH",
"274 375 LINE SMOOTH",
"274 311 OFFCURVE",
"290 269 OFFCURVE",
"321 245 CURVE SMOOTH",
"342 228 OFFCURVE",
"372 220 OFFCURVE",
"409 220 CURVE SMOOTH",
"488 220 OFFCURVE",
"557 255 OFFCURVE",
"619 321 CURVE",
"539 346 LINE",
"571 304 OFFCURVE",
"583 270 OFFCURVE",
"583 235 CURVE SMOOTH",
"583 159 OFFCURVE",
"522 118 OFFCURVE",
"428 118 CURVE SMOOTH",
"296 118 OFFCURVE",
"205 213 OFFCURVE",
"141 449 CURVE",
"16 414 LINE",
"103 91 OFFCURVE",
"258 4 OFFCURVE",
"439 4 CURVE SMOOTH"
);
}
);
width = 751;
},
{
layerId = UUID0;
paths = (
{
closed = 1;
nodes = (
"583 9 OFFCURVE",
"667 99 OFFCURVE",
"667 215 CURVE SMOOTH",
"667 275 OFFCURVE",
"647 334 OFFCURVE",
"616 383 CURVE",
"546 380 LINE",
"482 308 OFFCURVE",
"445 282 OFFCURVE",
"399 282 CURVE SMOOTH",
"367 282 OFFCURVE",
"357 304 OFFCURVE",
"357 337 CURVE SMOOTH",
"357 438 LINE SMOOTH",
"357 508 OFFCURVE",
"392 563 OFFCURVE",
"455 563 CURVE SMOOTH",
"488 563 OFFCURVE",
"509 547 OFFCURVE",
"509 520 CURVE SMOOTH",
"509 489 OFFCURVE",
"487 464 OFFCURVE",
"432 464 CURVE SMOOTH",
"314 464 OFFCURVE",
"243 541 OFFCURVE",
"179 623 CURVE",
"118 582 LINE",
"185 487 OFFCURVE",
"292 398 OFFCURVE",
"431 398 CURVE SMOOTH",
"511 398 OFFCURVE",
"584 439 OFFCURVE",
"584 519 CURVE SMOOTH",
"584 592 OFFCURVE",
"529 629 OFFCURVE",
"456 629 CURVE SMOOTH",
"364 629 OFFCURVE",
"284 567 OFFCURVE",
"284 443 CURVE SMOOTH",
"284 352 LINE SMOOTH",
"284 279 OFFCURVE",
"301 252 OFFCURVE",
"324 233 CURVE SMOOTH",
"343 217 OFFCURVE",
"371 209 OFFCURVE",
"402 209 CURVE SMOOTH",
"456 209 OFFCURVE",
"519 239 OFFCURVE",
"594 333 CURVE",
"548 347 LINE",
"585 289 OFFCURVE",
"592 254 OFFCURVE",
"592 217 CURVE SMOOTH",
"592 135 OFFCURVE",
"525 85 OFFCURVE",
"418 85 CURVE SMOOTH",
"269 85 OFFCURVE",
"179 178 OFFCURVE",
"105 461 CURVE",
"29 440 LINE",
"117 110 OFFCURVE",
"242 9 OFFCURVE",
"419 9 CURVE SMOOTH"
);
}
);
width = 723;
},
{
layerId = "46A56A9B-0135-45C3-BDA6-6C6C4BC92BD5";
paths = (
{
closed = 1;
nodes = (
"535 38 OFFCURVE",
"614 116 OFFCURVE",
"614 227 CURVE SMOOTH",
"614 295 OFFCURVE",
"593 344 OFFCURVE",
"567 385 CURVE",
"540 383 LINE",
"472 284 OFFCURVE",
"415 271 OFFCURVE",
"369 271 CURVE SMOOTH",
"325 271 OFFCURVE",
"315 295 OFFCURVE",
"315 357 CURVE SMOOTH",
"315 423 LINE SMOOTH",
"315 544 OFFCURVE",
"366 601 OFFCURVE",
"437 601 CURVE SMOOTH",
"484 601 OFFCURVE",
"516 578 OFFCURVE",
"516 532 CURVE SMOOTH",
"516 490 OFFCURVE",
"488 456 OFFCURVE",
"415 456 CURVE SMOOTH",
"284 456 OFFCURVE",
"211 530 OFFCURVE",
"144 623 CURVE",
"123 607 LINE",
"200 498 OFFCURVE",
"290 430 OFFCURVE",
"415 430 CURVE SMOOTH",
"487 430 OFFCURVE",
"543 465 OFFCURVE",
"543 533 CURVE SMOOTH",
"543 588 OFFCURVE",
"503 627 OFFCURVE",
"436 627 CURVE SMOOTH",
"361 627 OFFCURVE",
"289 573 OFFCURVE",
"289 433 CURVE SMOOTH",
"289 356 LINE SMOOTH",
"289 309 OFFCURVE",
"296 281 OFFCURVE",
"314 264 CURVE SMOOTH",
"327 251 OFFCURVE",
"347 245 OFFCURVE",
"369 245 CURVE SMOOTH",
"417 245 OFFCURVE",
"492 263 OFFCURVE",
"561 368 CURVE",
"545 372 LINE",
"574 325 OFFCURVE",
"587 280 OFFCURVE",
"587 229 CURVE SMOOTH",
"587 126 OFFCURVE",
"521 64 OFFCURVE",
"399 64 CURVE SMOOTH",
"239 64 OFFCURVE",
"151 160 OFFCURVE",
"61 466 CURVE",
"35 459 LINE",
"130 140 OFFCURVE",
"226 38 OFFCURVE",
"400 38 CURVE SMOOTH"
);
}
);
width = 682;
},
{
layerId = "22409DE3-74E9-441F-9C04-63D5519B89AC";
paths = (
{
closed = 1;
nodes = (
"663 0 OFFCURVE",
"767 84 OFFCURVE",
"767 224 CURVE SMOOTH",
"767 290 OFFCURVE",
"744 348 OFFCURVE",
"701 405 CURVE",
"566 388 LINE",
"536 357 OFFCURVE",
"508 334 OFFCURVE",
"476 334 CURVE SMOOTH",
"457 334 OFFCURVE",
"450 342 OFFCURVE",
"450 375 CURVE SMOOTH",
"450 472 LINE SMOOTH",
"450 506 OFFCURVE",
"465 528 OFFCURVE",
"488 528 CURVE SMOOTH",
"503 528 OFFCURVE",
"511 520 OFFCURVE",
"511 509 CURVE SMOOTH",
"511 494 OFFCURVE",
"496 482 OFFCURVE",
"463 482 CURVE SMOOTH",
"375 482 OFFCURVE",
"307 544 OFFCURVE",
"249 623 CURVE",
"136 540 LINE",
"197 463 OFFCURVE",
"288 380 OFFCURVE",
"452 380 CURVE SMOOTH",
"560 380 OFFCURVE",
"656 418 OFFCURVE",
"656 509 CURVE SMOOTH",
"656 583 OFFCURVE",
"601 631 OFFCURVE",
"494 631 CURVE SMOOTH",
"352 631 OFFCURVE",
"279 538 OFFCURVE",
"279 419 CURVE SMOOTH",
"279 378 LINE SMOOTH",
"279 310 OFFCURVE",
"294 271 OFFCURVE",
"319 243 CURVE SMOOTH",
"347 212 OFFCURVE",
"392 199 OFFCURVE",
"442 199 CURVE SMOOTH",
"526 199 OFFCURVE",
"599 231 OFFCURVE",
"656 291 CURVE",
"554 324 LINE",
"581 298 OFFCURVE",
"596 268 OFFCURVE",
"596 236 CURVE SMOOTH",
"596 172 OFFCURVE",
"534 145 OFFCURVE",
"452 145 CURVE SMOOTH",
"307 145 OFFCURVE",
"226 233 OFFCURVE",
"174 439 CURVE",
"13 396 LINE",
"102 81 OFFCURVE",
"280 0 OFFCURVE",
"467 0 CURVE SMOOTH"
);
}
);
width = 793;
},
{
layerId = "F0143EB7-DEA3-4B38-8B70-DEA25CF19AA9";
paths = (
{
closed = 1;
nodes = (
"441 9 OFFCURVE",
"499 99 OFFCURVE",
"499 213 CURVE SMOOTH",
"499 272 OFFCURVE",
"479 336 OFFCURVE",
"456 387 CURVE",
"399 382 LINE",
"359 312 OFFCURVE",
"330 279 OFFCURVE",
"297 279 CURVE SMOOTH",
"277 279 OFFCURVE",
"271 291 OFFCURVE",
"271 314 CURVE SMOOTH",
"271 445 LINE SMOOTH",
"271 493 OFFCURVE",
"281 566 OFFCURVE",
"328 566 CURVE SMOOTH",
"354 566 OFFCURVE",
"368 548 OFFCURVE",
"368 518 CURVE SMOOTH",
"368 483 OFFCURVE",
"350 462 OFFCURVE",
"315 462 CURVE SMOOTH",
"226 462 OFFCURVE",
"184 526 OFFCURVE",
"137 623 CURVE",
"79 591 LINE",
"126 496 OFFCURVE",
"201 399 OFFCURVE",
"315 399 CURVE SMOOTH",
"382 399 OFFCURVE",
"436 440 OFFCURVE",
"436 520 CURVE SMOOTH",
"436 588 OFFCURVE",
"395 629 OFFCURVE",
"332 629 CURVE SMOOTH",
"259 629 OFFCURVE",
"202 570 OFFCURVE",
"202 444 CURVE SMOOTH",
"202 335 LINE SMOOTH",
"202 285 OFFCURVE",
"209 256 OFFCURVE",
"228 234 CURVE SMOOTH",
"242 218 OFFCURVE",
"262 209 OFFCURVE",
"293 209 CURVE SMOOTH",
"339 209 OFFCURVE",
"388 237 OFFCURVE",
"438 333 CURVE",
"396 346 LINE",
"418 299 OFFCURVE",
"428 261 OFFCURVE",
"428 212 CURVE SMOOTH",
"428 123 OFFCURVE",
"383 82 OFFCURVE",
"311 82 CURVE SMOOTH",
"195 82 OFFCURVE",
"143 175 OFFCURVE",
"88 460 CURVE",
"18 445 LINE",
"81 114 OFFCURVE",
"159 9 OFFCURVE",
"314 9 CURVE SMOOTH"
);
}
);
width = 535;
}
);
unicode = 0999;
},
{
glyphname = cabeng;
lastChange = "2020-04-14 07:51:14 +0000";
layers = (
{
layerId = "8680C114-EF70-46E9-96FB-C90A78B2DAE0";
paths = (
{
closed = 1;
nodes = (
"-10 622 LINE",
"-10 512 LINE",
"81 512 LINE",
"81 220 LINE SMOOTH",
"81 122 OFFCURVE",
"104 83 OFFCURVE",
"133 58 CURVE SMOOTH",
"160 34 OFFCURVE",
"195 20 OFFCURVE",
"267 20 CURVE SMOOTH",
"345 20 OFFCURVE",
"417 52 OFFCURVE",
"470 104 CURVE SMOOTH",
"521 154 OFFCURVE",
"554 216 OFFCURVE",
"554 297 CURVE SMOOTH",
"554 327 OFFCURVE",
"544 360 OFFCURVE",
"526 380 CURVE SMOOTH",
"500 409 OFFCURVE",
"466 422 OFFCURVE",
"396 422 CURVE SMOOTH",
"376 422 LINE SMOOTH",
"305 422 OFFCURVE",
"243 453 OFFCURVE",
"206 513 CURVE",
"198 390 LINE",
"212 371 OFFCURVE",
"233 353 OFFCURVE",
"258 338 CURVE SMOOTH",
"298 315 OFFCURVE",
"325 309 OFFCURVE",
"365 309 CURVE SMOOTH",
"375 309 LINE SMOOTH",
"404 309 OFFCURVE",
"424 298 OFFCURVE",
"424 268 CURVE SMOOTH",
"424 236 OFFCURVE",
"407 205 OFFCURVE",
"378 178 CURVE SMOOTH",
"343 145 OFFCURVE",
"311 130 OFFCURVE",
"275 130 CURVE SMOOTH",
"252 130 OFFCURVE",
"238 135 OFFCURVE",
"229 145 CURVE SMOOTH",
"218 156 OFFCURVE",
"213 173 OFFCURVE",
"213 219 CURVE SMOOTH",
"213 342 LINE",
"213 358 OFFCURVE",
"212 374 OFFCURVE",
"211 390 CURVE",
"213 487 LINE",
"213 512 LINE",
"603 512 LINE",
"603 622 LINE"
);
}
);
width = 593;
},
{
layerId = UUID0;
paths = (
{
closed = 1;
nodes = (
"-10 622 LINE",
"-10 551 LINE",
"95 551 LINE",
"95 191 LINE SMOOTH",
"95 117 OFFCURVE",
"110 88 OFFCURVE",
"132 63 CURVE SMOOTH",
"154 40 OFFCURVE",
"189 24 OFFCURVE",
"238 24 CURVE SMOOTH",
"308 24 OFFCURVE",
"364 51 OFFCURVE",
"415 95 CURVE SMOOTH",
"473 145 OFFCURVE",
"517 224 OFFCURVE",
"517 306 CURVE SMOOTH",
"517 351 OFFCURVE",
"502 384 OFFCURVE",
"472 403 CURVE SMOOTH",
"451 416 OFFCURVE",
"427 423 OFFCURVE",
"377 423 CURVE SMOOTH",
"361 423 LINE SMOOTH",
"253 423 OFFCURVE",
"212 462 OFFCURVE",
"171 534 CURVE",
"161 447 LINE",
"177 418 OFFCURVE",
"204 394 OFFCURVE",
"235 377 CURVE SMOOTH",
"270 359 OFFCURVE",
"301 349 OFFCURVE",
"363 349 CURVE SMOOTH",
"368 349 LINE SMOOTH",
"412 349 OFFCURVE",
"438 340 OFFCURVE",
"438 296 CURVE SMOOTH",
"438 247 OFFCURVE",
"416 202 OFFCURVE",
"379 162 CURVE SMOOTH",
"343 124 OFFCURVE",
"297 96 OFFCURVE",
"244 96 CURVE SMOOTH",
"217 96 OFFCURVE",
"202 102 OFFCURVE",
"189 117 CURVE SMOOTH",
"180 128 OFFCURVE",
"172 146 OFFCURVE",
"172 205 CURVE SMOOTH",
"172 378 LINE SMOOTH",
"172 406 OFFCURVE",
"170 441 OFFCURVE",
"168 458 CURVE",
"172 521 LINE",
"172 551 LINE",
"577 551 LINE",
"577 622 LINE"
);
}
);
width = 567;
},
{
layerId = "46A56A9B-0135-45C3-BDA6-6C6C4BC92BD5";
paths = (
{
closed = 1;
nodes = (
"-10 622 LINE",
"-10 596 LINE",
"105 596 LINE",
"105 188 LINE SMOOTH",
"105 117 OFFCURVE",
"114 84 OFFCURVE",
"144 60 CURVE SMOOTH",
"161 47 OFFCURVE",
"185 40 OFFCURVE",
"214 40 CURVE SMOOTH",
"280 40 OFFCURVE",
"338 71 OFFCURVE",
"383 118 CURVE SMOOTH",
"437 175 OFFCURVE",
"471 247 OFFCURVE",
"471 329 CURVE SMOOTH",
"471 366 OFFCURVE",
"461 390 OFFCURVE",
"442 406 CURVE SMOOTH",
"420 425 OFFCURVE",
"391 433 OFFCURVE",
"341 433 CURVE SMOOTH",
"334 433 LINE SMOOTH",
"209 433 OFFCURVE",
"170 492 OFFCURVE",
"124 580 CURVE",
"115 547 LINE",
"136 508 OFFCURVE",
"156 477 OFFCURVE",
"182 454 CURVE SMOOTH",
"218 422 OFFCURVE",
"263 407 OFFCURVE",
"343 407 CURVE SMOOTH",
"349 407 LINE SMOOTH",
"421 407 OFFCURVE",
"444 380 OFFCURVE",
"444 329 CURVE SMOOTH",
"444 258 OFFCURVE",
"414 186 OFFCURVE",
"364 135 CURVE SMOOTH",
"324 94 OFFCURVE",
"276 66 OFFCURVE",
"214 66 CURVE SMOOTH",
"187 66 OFFCURVE",
"168 72 OFFCURVE",
"156 84 CURVE SMOOTH",
"135 104 OFFCURVE",
"131 136 OFFCURVE",
"131 199 CURVE SMOOTH",
"131 443 LINE SMOOTH",
"131 488 OFFCURVE",
"130 526 OFFCURVE",
"127 544 CURVE",
"131 551 LINE",
"131 596 LINE",
"544 596 LINE",
"544 622 LINE"
);
}
);
width = 534;
},
{
layerId = "22409DE3-74E9-441F-9C04-63D5519B89AC";
paths = (
{
closed = 1;
nodes = (
"-10 622 LINE",
"-10 484 LINE",
"72 484 LINE",
"72 230 LINE SMOOTH",
"72 134 OFFCURVE",
"96 93 OFFCURVE",
"133 61 CURVE SMOOTH",
"167 31 OFFCURVE",
"219 18 OFFCURVE",
"281 18 CURVE SMOOTH",
"369 18 OFFCURVE",
"444 51 OFFCURVE",
"500 102 CURVE SMOOTH",
"551 149 OFFCURVE",
"584 210 OFFCURVE",
"584 282 CURVE SMOOTH",
"584 327 OFFCURVE",
"570 361 OFFCURVE",
"542 383 CURVE SMOOTH",
"514 405 OFFCURVE",
"477 414 OFFCURVE",
"419 414 CURVE SMOOTH",
"391 414 LINE SMOOTH",
"308 414 OFFCURVE",
"267 441 OFFCURVE",
"229 493 CURVE",
"207 365 LINE",
"228 338 OFFCURVE",
"251 317 OFFCURVE",
"277 301 CURVE SMOOTH",
"307 282 OFFCURVE",
"337 272 OFFCURVE",
"375 272 CURVE SMOOTH",
"382 272 LINE SMOOTH",
"404 272 OFFCURVE",
"411 261 OFFCURVE",
"411 247 CURVE SMOOTH",
"411 227 OFFCURVE",
"395 202 OFFCURVE",
"369 183 CURVE SMOOTH",
"348 168 OFFCURVE",
"323 156 OFFCURVE",
"291 156 CURVE SMOOTH",
"279 156 OFFCURVE",
"268 159 OFFCURVE",
"261 166 CURVE SMOOTH",
"252 174 OFFCURVE",
"247 185 OFFCURVE",
"247 214 CURVE SMOOTH",
"247 289 LINE SMOOTH",
"247 306 OFFCURVE",
"245 328 OFFCURVE",
"244 342 CURVE",
"243 461 LINE",
"243 484 LINE",
"622 484 LINE",
"622 622 LINE"
);
}
);
width = 612;
},
{
layerId = "F0143EB7-DEA3-4B38-8B70-DEA25CF19AA9";
paths = (
{
closed = 1;
nodes = (
"-6 622 LINE",
"-6 554 LINE",
"68 554 LINE",
"68 162 LINE SMOOTH",
"68 110 OFFCURVE",
"75 82 OFFCURVE",
"97 57 CURVE SMOOTH",
"115 36 OFFCURVE",
"145 24 OFFCURVE",
"183 24 CURVE SMOOTH",
"261 24 OFFCURVE",
"313 78 OFFCURVE",
"346 144 CURVE SMOOTH",
"373 198 OFFCURVE",
"386 257 OFFCURVE",
"386 310 CURVE SMOOTH",
"386 350 OFFCURVE",
"377 381 OFFCURVE",
"353 401 CURVE SMOOTH",
"336 415 OFFCURVE",
"311 423 OFFCURVE",
"269 423 CURVE SMOOTH",
"268 423 LINE SMOOTH",
"203 423 OFFCURVE",
"171 465 OFFCURVE",
"136 536 CURVE",
"131 450 LINE",
"141 425 OFFCURVE",
"155 404 OFFCURVE",
"173 387 CURVE SMOOTH",
"195 366 OFFCURVE",
"224 353 OFFCURVE",
"261 353 CURVE SMOOTH",
"263 353 LINE SMOOTH",
"295 353 OFFCURVE",
"312 339 OFFCURVE",
"312 302 CURVE SMOOTH",
"312 259 OFFCURVE",
"298 204 OFFCURVE",
"276 162 CURVE SMOOTH",
"256 124 OFFCURVE",
"227 92 OFFCURVE",
"186 92 CURVE SMOOTH",
"170 92 OFFCURVE",
"159 97 OFFCURVE",
"152 105 CURVE SMOOTH",
"142 117 OFFCURVE",
"139 132 OFFCURVE",
"139 166 CURVE SMOOTH",
"139 378 LINE SMOOTH",
"139 403 OFFCURVE",
"137 438 OFFCURVE",
"136 455 CURVE",
"139 523 LINE",
"139 554 LINE",
"435 554 LINE",
"435 622 LINE"
);
}
);
width = 429;
}
);
unicode = 099A;
},
{
glyphname = chabeng;
lastChange = "2020-04-14 07:51:14 +0000";
layers = (
{
layerId = "8680C114-EF70-46E9-96FB-C90A78B2DAE0";
paths = (
{
closed = 1;
nodes = (
"680 361 OFFCURVE",
"633 474 OFFCURVE",
"446 474 CURVE SMOOTH",
"420 474 OFFCURVE",
"398 473 OFFCURVE",
"382 471 CURVE",
"394 378 LINE",
"404 380 OFFCURVE",
"415 381 OFFCURVE",
"420 381 CURVE SMOOTH",
"505 381 OFFCURVE",
"549 347 OFFCURVE",
"549 285 CURVE SMOOTH",
"549 202 OFFCURVE",
"480 146 OFFCURVE",
"305 146 CURVE SMOOTH",
"247 146 OFFCURVE",
"198 151 OFFCURVE",
"165 157 CURVE",
"152 46 LINE",
"330 37 OFFCURVE",
"505 11 OFFCURVE",
"698 -56 CURVE",
"733 48 LINE",
"613 89 OFFCURVE",
"501 108 OFFCURVE",
"391 119 CURVE",
"415 64 LINE",
"547 76 OFFCURVE",
"680 141 OFFCURVE",
"680 293 CURVE SMOOTH"
);
},
{
closed = 1;
nodes = (
"382 192 OFFCURVE",
"487 269 OFFCURVE",
"487 370 CURVE SMOOTH",
"487 412 OFFCURVE",
"465 437 OFFCURVE",
"434 451 CURVE SMOOTH",
"416 460 OFFCURVE",
"416 471 OFFCURVE",
"398 471 CURVE SMOOTH",
"312 471 LINE SMOOTH",
"243 471 OFFCURVE",
"208 495 OFFCURVE",
"170 538 CURVE",
"153 450 LINE",
"190 407 OFFCURVE",
"241 378 OFFCURVE",
"299 378 CURVE SMOOTH",
"326 378 LINE SMOOTH",
"348 378 OFFCURVE",
"360 371 OFFCURVE",
"360 356 CURVE SMOOTH",
"360 327 OFFCURVE",
"311 293 OFFCURVE",
"250 293 CURVE SMOOTH",
"230 293 OFFCURVE",
"216 297 OFFCURVE",
"208 308 CURVE SMOOTH",
"203 314 OFFCURVE",
"199 324 OFFCURVE",
"199 350 CURVE SMOOTH",
"199 380 LINE SMOOTH",
"199 391 OFFCURVE",
"198 407 OFFCURVE",
"196 425 CURVE",
"199 488 LINE",
"199 525 LINE",
"72 525 LINE",
"72 362 LINE SMOOTH",
"72 296 OFFCURVE",
"83 268 OFFCURVE",
"101 243 CURVE SMOOTH",
"127 207 OFFCURVE",
"173 192 OFFCURVE",
"241 192 CURVE SMOOTH"
);
},
{
closed = 1;
nodes = (
"743 512 LINE",
"743 622 LINE",
"-10 622 LINE",
"-10 512 LINE"
);
}
);
width = 733;
},
{
layerId = UUID0;
paths = (
{
closed = 1;
nodes = (
"615 375 OFFCURVE",
"577 483 OFFCURVE",
"423 483 CURVE SMOOTH",
"409 483 OFFCURVE",
"385 482 OFFCURVE",
"372 481 CURVE",
"382 416 LINE",
"392 418 OFFCURVE",
"403 419 OFFCURVE",
"412 419 CURVE SMOOTH",
"491 419 OFFCURVE",
"538 381 OFFCURVE",
"538 310 CURVE SMOOTH",
"538 231 OFFCURVE",
"468 152 OFFCURVE",
"290 152 CURVE SMOOTH",
"231 152 OFFCURVE",
"191 158 OFFCURVE",
"152 166 CURVE",
"143 94 LINE",
"327 76 OFFCURVE",
"493 35 OFFCURVE",
"649 -49 CURVE",
"684 11 LINE",
"565 73 OFFCURVE",
"468 104 OFFCURVE",
"359 120 CURVE",
"380 97 LINE",
"491 108 OFFCURVE",
"615 164 OFFCURVE",
"615 310 CURVE SMOOTH"
);
},
{
closed = 1;
nodes = (
"353 217 OFFCURVE",
"450 290 OFFCURVE",
"450 388 CURVE SMOOTH",
"450 427 OFFCURVE",
"428 450 OFFCURVE",
"402 463 CURVE SMOOTH",
"386 471 OFFCURVE",
"386 481 OFFCURVE",
"372 481 CURVE SMOOTH",
"323 481 LINE SMOOTH",
"235 481 OFFCURVE",
"202 505 OFFCURVE",
"168 544 CURVE",
"155 480 LINE",
"191 439 OFFCURVE",
"246 413 OFFCURVE",
"316 413 CURVE SMOOTH",
"322 413 LINE SMOOTH",
"354 413 OFFCURVE",
"374 409 OFFCURVE",
"374 384 CURVE SMOOTH",
"374 342 OFFCURVE",
"318 286 OFFCURVE",
"233 286 CURVE SMOOTH",
"210 286 OFFCURVE",
"195 290 OFFCURVE",
"184 301 CURVE SMOOTH",
"174 311 OFFCURVE",
"168 324 OFFCURVE",
"168 359 CURVE SMOOTH",
"168 420 LINE SMOOTH",
"168 442 OFFCURVE",
"167 460 OFFCURVE",
"166 476 CURVE",
"168 521 LINE",
"168 559 LINE",
"91 559 LINE",
"91 359 LINE SMOOTH",
"91 296 OFFCURVE",
"105 269 OFFCURVE",
"125 249 CURVE SMOOTH",
"146 228 OFFCURVE",
"181 217 OFFCURVE",
"227 217 CURVE SMOOTH"
);
},
{
closed = 1;
nodes = (
"697 551 LINE",
"697 622 LINE",
"-10 622 LINE",
"-10 551 LINE"
);
}
);
width = 687;
},
{
layerId = "46A56A9B-0135-45C3-BDA6-6C6C4BC92BD5";
paths = (
{
closed = 1;
nodes = (
"568 402 OFFCURVE",
"523 483 OFFCURVE",
"390 483 CURVE SMOOTH",
"373 483 OFFCURVE",
"348 483 OFFCURVE",
"325 481 CURVE",
"350 456 LINE",
"361 457 OFFCURVE",
"372 458 OFFCURVE",
"392 458 CURVE SMOOTH",
"477 458 OFFCURVE",
"541 416 OFFCURVE",
"541 323 CURVE SMOOTH",
"541 228 OFFCURVE",
"467 136 OFFCURVE",
"270 136 CURVE SMOOTH",
"240 136 OFFCURVE",
"198 140 OFFCURVE",
"149 149 CURVE",
"146 123 LINE",
"336 100 OFFCURVE",
"476 63 OFFCURVE",
"628 -24 CURVE",
"642 -1 LINE",
"519 69 OFFCURVE",
"396 110 OFFCURVE",
"281 120 CURVE",
"289 116 LINE",
"464 116 OFFCURVE",
"568 200 OFFCURVE",
"568 323 CURVE SMOOTH"
);
},
{
closed = 1;
nodes = (
"322 245 OFFCURVE",
"403 329 OFFCURVE",
"403 403 CURVE SMOOTH",
"403 435 OFFCURVE",
"389 458 OFFCURVE",
"355 469 CURVE",
"352 478 OFFCURVE",
"348 481 OFFCURVE",
"346 481 CURVE",
"314 481 LINE SMOOTH",
"221 481 OFFCURVE",
"170 511 OFFCURVE",
"123 585 CURVE",
"117 557 LINE",
"150 495 OFFCURVE",
"213 455 OFFCURVE",
"316 455 CURVE SMOOTH",
"321 455 LINE SMOOTH",
"360 455 OFFCURVE",
"377 434 OFFCURVE",
"377 403 CURVE SMOOTH",
"377 344 OFFCURVE",
"312 271 OFFCURVE",
"211 271 CURVE SMOOTH",
"181 271 OFFCURVE",
"163 276 OFFCURVE",
"150 287 CURVE SMOOTH",
"133 301 OFFCURVE",
"126 322 OFFCURVE",
"126 371 CURVE SMOOTH",
"126 482 LINE SMOOTH",
"126 514 OFFCURVE",
"125 532 OFFCURVE",
"123 550 CURVE",
"126 564 LINE",
"126 599 LINE",
"100 599 LINE",
"100 371 LINE SMOOTH",
"100 311 OFFCURVE",
"112 285 OFFCURVE",
"133 267 CURVE SMOOTH",
"152 251 OFFCURVE",
"179 245 OFFCURVE",
"211 245 CURVE SMOOTH"
);
},
{
closed = 1;
nodes = (
"653 596 LINE",
"653 622 LINE",
"-10 622 LINE",
"-10 596 LINE"
);
}
);
width = 643;
},
{
layerId = "22409DE3-74E9-441F-9C04-63D5519B89AC";
paths = (
{
closed = 1;
nodes = (
"708 363 OFFCURVE",
"652 459 OFFCURVE",
"460 459 CURVE SMOOTH",
"412 459 OFFCURVE",
"383 456 OFFCURVE",
"365 454 CURVE",
"373 347 LINE",
"385 349 OFFCURVE",
"399 350 OFFCURVE",
"406 350 CURVE SMOOTH",
"489 350 OFFCURVE",
"532 321 OFFCURVE",
"532 268 CURVE SMOOTH",
"532 191 OFFCURVE",
"464 147 OFFCURVE",
"304 147 CURVE SMOOTH",
"234 147 OFFCURVE",
"179 152 OFFCURVE",
"141 157 CURVE",
"129 16 LINE",
"326 13 OFFCURVE",
"513 -8 OFFCURVE",
"721 -61 CURVE",
"761 78 LINE",
"662 105 OFFCURVE",
"506 119 OFFCURVE",
"391 123 CURVE",
"422 60 LINE",
"573 69 OFFCURVE",
"708 127 OFFCURVE",
"708 275 CURVE SMOOTH"
);
},
{
closed = 1;
nodes = (
"405 176 OFFCURVE",
"512 253 OFFCURVE",
"512 356 CURVE SMOOTH",
"512 395 OFFCURVE",
"490 413 OFFCURVE",
"459 434 CURVE SMOOTH",
"440 447 OFFCURVE",
"418 455 OFFCURVE",
"404 455 CURVE",
"322 455 LINE SMOOTH",
"243 455 OFFCURVE",
"214 476 OFFCURVE",
"178 524 CURVE",
"161 435 LINE",
"202 386 OFFCURVE",
"246 348 OFFCURVE",
"309 348 CURVE SMOOTH",
"330 348 LINE SMOOTH",
"340 348 OFFCURVE",
"345 343 OFFCURVE",
"345 337 CURVE SMOOTH",
"345 316 OFFCURVE",
"305 299 OFFCURVE",
"259 299 CURVE SMOOTH",
"245 299 OFFCURVE",
"236 301 OFFCURVE",
"230 307 CURVE SMOOTH",
"225 312 OFFCURVE",
"221 320 OFFCURVE",
"221 342 CURVE SMOOTH",
"221 355 LINE SMOOTH",
"221 362 OFFCURVE",
"221 373 OFFCURVE",
"220 385 CURVE",
"218 463 LINE",
"218 499 LINE",
"52 499 LINE",
"52 356 LINE SMOOTH",
"52 287 OFFCURVE",
"64 253 OFFCURVE",
"90 225 CURVE SMOOTH",
"121 192 OFFCURVE",
"173 176 OFFCURVE",
"251 176 CURVE SMOOTH"
);
},
{
closed = 1;
nodes = (
"775 484 LINE",
"775 622 LINE",
"-10 622 LINE",
"-10 484 LINE"
);
}
);
width = 765;
},
{
layerId = "F0143EB7-DEA3-4B38-8B70-DEA25CF19AA9";
paths = (
{
closed = 1;
nodes = (
"462 394 OFFCURVE",
"422 483 OFFCURVE",
"304 483 CURVE SMOOTH",
"296 483 OFFCURVE",
"278 483 OFFCURVE",
"264 482 CURVE",
"272 422 LINE",
"281 423 OFFCURVE",
"293 424 OFFCURVE",
"301 424 CURVE SMOOTH",
"357 424 OFFCURVE",
"391 380 OFFCURVE",
"391 305 CURVE SMOOTH",
"391 220 OFFCURVE",
"335 152 OFFCURVE",
"218 152 CURVE SMOOTH",
"181 152 OFFCURVE",
"144 157 OFFCURVE",
"116 164 CURVE",
"104 97 LINE",
"233 78 OFFCURVE",
"340 51 OFFCURVE",
"479 -34 CURVE",
"512 26 LINE",
"412 87 OFFCURVE",
"346 106 OFFCURVE",
"268 122 CURVE",
"272 103 LINE",
"359 112 OFFCURVE",
"462 167 OFFCURVE",
"462 306 CURVE SMOOTH"
);
},
{
closed = 1;
nodes = (
"261 218 OFFCURVE",
"335 291 OFFCURVE",
"335 389 CURVE SMOOTH",
"335 418 OFFCURVE",
"321 446 OFFCURVE",
"301 459 CURVE SMOOTH",
"289 467 OFFCURVE",
"287 482 OFFCURVE",
"276 482 CURVE SMOOTH",
"234 482 LINE SMOOTH",
"173 482 OFFCURVE",
"149 500 OFFCURVE",
"124 549 CURVE",
"115 482 LINE",
"141 441 OFFCURVE",
"177 416 OFFCURVE",
"227 416 CURVE SMOOTH",
"232 416 LINE SMOOTH",
"254 416 OFFCURVE",
"266 410 OFFCURVE",
"266 385 CURVE SMOOTH",
"266 343 OFFCURVE",
"228 285 OFFCURVE",
"174 285 CURVE SMOOTH",
"159 285 OFFCURVE",
"150 288 OFFCURVE",
"144 294 CURVE SMOOTH",
"134 303 OFFCURVE",
"132 321 OFFCURVE",
"132 351 CURVE SMOOTH",
"132 419 LINE SMOOTH",
"132 437 OFFCURVE",
"131 452 OFFCURVE",
"129 469 CURVE",
"132 523 LINE",
"132 562 LINE",
"61 562 LINE",
"61 349 LINE SMOOTH",
"61 292 OFFCURVE",
"68 263 OFFCURVE",
"90 242 CURVE SMOOTH",
"107 226 OFFCURVE",
"132 218 OFFCURVE",
"169 218 CURVE SMOOTH"
);
},
{
closed = 1;
nodes = (
"513 554 LINE",
"513 622 LINE",
"-6 622 LINE",
"-6 554 LINE"
);
}
);
width = 507;
}
);
unicode = 099B;
},
{
glyphname = jabeng;
lastChange = "2020-04-14 07:51:14 +0000";
layers = (
{
layerId = "8680C114-EF70-46E9-96FB-C90A78B2DAE0";
paths = (
{
closed = 1;
nodes = (
"626 30 OFFCURVE",
"695 136 OFFCURVE",
"695 236 CURVE SMOOTH",
"695 274 OFFCURVE",
"688 310 OFFCURVE",
"679 337 CURVE",
"533 380 LINE",
"497 353 OFFCURVE",
"473 338 OFFCURVE",
"437 338 CURVE SMOOTH",
"417 338 OFFCURVE",
"400 350 OFFCURVE",
"400 377 CURVE SMOOTH",
"400 423 OFFCURVE",
"468 475 OFFCURVE",
"587 516 CURVE",
"622 514 OFFCURVE",
"675 512 OFFCURVE",
"711 512 CURVE SMOOTH",
"1007 512 LINE",
"1007 622 LINE",
"-10 622 LINE",
"-10 512 LINE",
"302 512 LINE SMOOTH",
"329 512 OFFCURVE",
"347 512 OFFCURVE",
"372 513 CURVE",
"292 466 OFFCURVE",
"268 414 OFFCURVE",
"268 361 CURVE SMOOTH",
"268 269 OFFCURVE",
"331 228 OFFCURVE",
"418 228 CURVE SMOOTH",
"517 228 OFFCURVE",
"572 268 OFFCURVE",
"634 324 CURVE",
"542 329 LINE",
"552 309 OFFCURVE",
"565 281 OFFCURVE",
"565 236 CURVE SMOOTH",
"565 183 OFFCURVE",
"527 145 OFFCURVE",
"433 145 CURVE SMOOTH",
"297 145 OFFCURVE",
"210 221 OFFCURVE",
"141 463 CURVE",
"16 428 LINE",
"102 121 OFFCURVE",
"249 30 OFFCURVE",
"440 30 CURVE SMOOTH"
);
},
{
closed = 1;
nodes = (
"899 259 OFFCURVE",
"914 308 OFFCURVE",
"939 354 CURVE",
"878 453 LINE",
"857 451 OFFCURVE",
"845 450 OFFCURVE",
"830 450 CURVE SMOOTH",
"721 450 OFFCURVE",
"670 485 OFFCURVE",
"646 522 CURVE",
"508 509 LINE",
"555 425 OFFCURVE",
"638 365 OFFCURVE",
"788 343 CURVE",
"773 301 OFFCURVE",
"766 253 OFFCURVE",
"766 204 CURVE SMOOTH",
"766 122 OFFCURVE",
"778 61 OFFCURVE",
"803 -11 CURVE",
"932 16 LINE",
"910 81 OFFCURVE",
"899 144 OFFCURVE",
"899 197 CURVE SMOOTH"
);
}
);
width = 997;
},
{
layerId = UUID0;
paths = (
{
closed = 1;
nodes = (
"567 63 OFFCURVE",
"630 154 OFFCURVE",
"630 254 CURVE SMOOTH",
"630 297 OFFCURVE",
"621 338 OFFCURVE",
"609 365 CURVE",
"523 396 LINE",
"472 352 OFFCURVE",
"438 328 OFFCURVE",
"387 328 CURVE SMOOTH",
"360 328 OFFCURVE",
"335 343 OFFCURVE",
"335 380 CURVE SMOOTH",
"335 426 OFFCURVE",
"367 478 OFFCURVE",
"535 554 CURVE",
"558 553 OFFCURVE",
"582 551 OFFCURVE",
"614 551 CURVE SMOOTH",
"927 551 LINE",
"927 622 LINE",
"-10 622 LINE",
"-10 551 LINE",
"298 551 LINE SMOOTH",
"331 551 OFFCURVE",
"367 551 OFFCURVE",
"394 553 CURVE",
"295 507 OFFCURVE",
"258 442 OFFCURVE",
"258 384 CURVE SMOOTH",
"258 303 OFFCURVE",
"312 257 OFFCURVE",
"391 257 CURVE SMOOTH",
"472 257 OFFCURVE",
"534 300 OFFCURVE",
"590 358 CURVE",
"530 358 LINE",
"541 338 OFFCURVE",
"554 309 OFFCURVE",
"554 268 CURVE SMOOTH",
"554 181 OFFCURVE",
"502 139 OFFCURVE",
"404 139 CURVE SMOOTH",
"262 139 OFFCURVE",
"172 238 OFFCURVE",
"105 485 CURVE",
"29 465 LINE",
"111 165 OFFCURVE",
"244 63 OFFCURVE",
"401 63 CURVE SMOOTH"
);
},
{
closed = 1;
nodes = (
"801 280 OFFCURVE",
"813 332 OFFCURVE",
"845 392 CURVE",
"806 462 LINE",
"786 460 OFFCURVE",
"769 459 OFFCURVE",
"751 459 CURVE SMOOTH",
"637 459 OFFCURVE",
"582 501 OFFCURVE",
"551 559 CURVE",
"475 543 LINE",
"525 446 OFFCURVE",
"603 389 OFFCURVE",
"755 388 CURVE",
"738 349 OFFCURVE",
"723 293 OFFCURVE",
"723 222 CURVE SMOOTH",
"723 142 OFFCURVE",
"737 70 OFFCURVE",
"761 -7 CURVE",
"836 10 LINE",
"811 85 OFFCURVE",
"801 140 OFFCURVE",
"801 205 CURVE SMOOTH"
);
}
);
width = 917;
},
{
layerId = "46A56A9B-0135-45C3-BDA6-6C6C4BC92BD5";
paths = (
{
closed = 1;
nodes = (
"499 99 OFFCURVE",
"572 162 OFFCURVE",
"572 279 CURVE SMOOTH",
"572 320 OFFCURVE",
"560 371 OFFCURVE",
"545 400 CURVE",
"516 409 LINE",
"460 348 OFFCURVE",
"415 327 OFFCURVE",
"364 327 CURVE SMOOTH",
"304 327 OFFCURVE",
"285 363 OFFCURVE",
"285 406 CURVE SMOOTH",
"285 466 OFFCURVE",
"333 521 OFFCURVE",
"488 597 CURVE",
"507 596 OFFCURVE",
"547 596 OFFCURVE",
"583 596 CURVE SMOOTH",
"834 596 LINE",
"834 622 LINE",
"-10 622 LINE",
"-10 596 LINE",
"330 596 LINE SMOOTH",
"382 596 OFFCURVE",
"415 596 OFFCURVE",
"440 597 CURVE",
"321 539 OFFCURVE",
"258 480 OFFCURVE",
"258 407 CURVE SMOOTH",
"258 342 OFFCURVE",
"297 301 OFFCURVE",
"363 301 CURVE SMOOTH",
"431 301 OFFCURVE",
"482 334 OFFCURVE",
"536 394 CURVE",
"521 390 LINE",
"534 363 OFFCURVE",
"545 323 OFFCURVE",
"545 278 CURVE SMOOTH",
"545 171 OFFCURVE",
"481 125 OFFCURVE",
"378 125 CURVE SMOOTH",
"238 125 OFFCURVE",
"141 219 OFFCURVE",
"61 484 CURVE",
"35 477 LINE",
"115 210 OFFCURVE",
"220 99 OFFCURVE",
"379 99 CURVE SMOOTH"
);
},
{
closed = 1;
nodes = (
"709 313 OFFCURVE",
"726 388 OFFCURVE",
"752 444 CURVE",
"739 464 LINE",
"730 463 OFFCURVE",
"722 463 OFFCURVE",
"714 463 CURVE SMOOTH",
"563 463 OFFCURVE",
"521 529 OFFCURVE",
"488 600 CURVE",
"465 590 LINE",
"512 483 OFFCURVE",
"579 437 OFFCURVE",
"720 437 CURVE",
"700 393 OFFCURVE",
"683 314 OFFCURVE",
"683 235 CURVE SMOOTH",
"683 142 OFFCURVE",
"699 76 OFFCURVE",
"722 -3 CURVE",
"748 3 LINE",
"724 84 OFFCURVE",
"709 149 OFFCURVE",
"709 234 CURVE SMOOTH"
);
}
);
width = 824;
},
{
layerId = "22409DE3-74E9-441F-9C04-63D5519B89AC";
paths = (
{
closed = 1;
nodes = (
"671 18 OFFCURVE",
"744 125 OFFCURVE",
"744 234 CURVE SMOOTH",
"744 259 OFFCURVE",
"741 287 OFFCURVE",
"733 312 CURVE",
"551 368 LINE",
"528 352 OFFCURVE",
"506 341 OFFCURVE",
"485 341 CURVE SMOOTH",
"467 341 OFFCURVE",
"456 350 OFFCURVE",
"456 365 CURVE SMOOTH",
"456 408 OFFCURVE",
"532 444 OFFCURVE",
"652 490 CURVE",
"721 486 OFFCURVE",
"789 484 OFFCURVE",
"855 484 CURVE SMOOTH",
"1056 484 LINE",
"1056 622 LINE",
"-10 622 LINE",
"-10 484 LINE",
"290 484 LINE SMOOTH",
"317 484 OFFCURVE",
"351 485 OFFCURVE",
"376 487 CURVE",
"311 445 OFFCURVE",
"281 399 OFFCURVE",
"281 346 CURVE SMOOTH",
"281 246 OFFCURVE",
"359 208 OFFCURVE",
"456 208 CURVE SMOOTH",
"549 208 OFFCURVE",
"601 237 OFFCURVE",
"682 306 CURVE",
"548 310 LINE",
"564 291 OFFCURVE",
"576 265 OFFCURVE",
"576 239 CURVE SMOOTH",
"576 200 OFFCURVE",
"543 163 OFFCURVE",
"453 163 CURVE SMOOTH",
"319 163 OFFCURVE",
"225 243 OFFCURVE",
"174 450 CURVE",
"13 407 LINE",
"95 109 OFFCURVE",
"275 18 OFFCURVE",
"459 18 CURVE SMOOTH"
);
},
{
closed = 1;
nodes = (
"965 241 OFFCURVE",
"977 289 OFFCURVE",
"1002 340 CURVE",
"929 453 LINE",
"907 451 OFFCURVE",
"883 450 OFFCURVE",
"875 450 CURVE SMOOTH",
"771 450 OFFCURVE",
"735 473 OFFCURVE",
"710 507 CURVE",
"540 482 LINE",
"591 392 OFFCURVE",
"677 339 OFFCURVE",
"809 320 CURVE",
"795 273 OFFCURVE",
"789 222 OFFCURVE",
"789 182 CURVE SMOOTH",
"789 109 OFFCURVE",
"800 48 OFFCURVE",
"820 -14 CURVE",
"990 21 LINE",
"974 70 OFFCURVE",
"965 127 OFFCURVE",
"965 170 CURVE SMOOTH"
);
}
);
width = 1046;
},
{
layerId = "F0143EB7-DEA3-4B38-8B70-DEA25CF19AA9";
paths = (
{
closed = 1;
nodes = (
"422 65 OFFCURVE",
"469 155 OFFCURVE",
"469 257 CURVE SMOOTH",
"469 298 OFFCURVE",
"461 331 OFFCURVE",
"453 357 CURVE",
"375 383 LINE",
"346 344 OFFCURVE",
"328 327 OFFCURVE",
"297 327 CURVE SMOOTH",
"271 327 OFFCURVE",
"258 344 OFFCURVE",
"258 375 CURVE SMOOTH",
"258 427 OFFCURVE",
"296 480 OFFCURVE",
"399 557 CURVE",
"418 555 OFFCURVE",
"438 554 OFFCURVE",
"464 554 CURVE SMOOTH",
"685 554 LINE",
"685 622 LINE",
"-6 622 LINE",
"-6 554 LINE",
"235 554 LINE SMOOTH",
"262 554 OFFCURVE",
"281 554 OFFCURVE",
"299 555 CURVE",
"229 502 OFFCURVE",
"187 445 OFFCURVE",
"187 381 CURVE SMOOTH",
"187 305 OFFCURVE",
"228 260 OFFCURVE",
"295 260 CURVE SMOOTH",
"358 260 OFFCURVE",
"395 302 OFFCURVE",
"429 358 CURVE",
"377 360 LINE",
"387 339 OFFCURVE",
"399 300 OFFCURVE",
"399 261 CURVE SMOOTH",
"399 177 OFFCURVE",
"359 138 OFFCURVE",
"295 138 CURVE SMOOTH",
"189 138 OFFCURVE",
"134 236 OFFCURVE",
"88 484 CURVE",
"18 469 LINE",
"71 165 OFFCURVE",
"164 65 OFFCURVE",
"298 65 CURVE SMOOTH"
);
},
{
closed = 1;
nodes = (
"597 279 OFFCURVE",
"609 339 OFFCURVE",
"636 403 CURVE",
"599 462 LINE",
"585 460 OFFCURVE",
"570 459 OFFCURVE",
"558 459 CURVE SMOOTH",
"474 459 OFFCURVE",
"440 506 OFFCURVE",
"421 562 CURVE",
"355 547 LINE",
"387 447 OFFCURVE",
"456 392 OFFCURVE",
"553 392 CURVE",
"535 347 OFFCURVE",
"526 287 OFFCURVE",
"526 215 CURVE SMOOTH",
"526 143 OFFCURVE",
"536 71 OFFCURVE",
"557 -7 CURVE",
"626 10 LINE",
"604 87 OFFCURVE",
"597 139 OFFCURVE",
"597 208 CURVE SMOOTH"
);
}
);
width = 679;
}
);
unicode = 099C;
},
{
glyphname = jhabeng;
lastChange = "2020-04-14 07:51:14 +0000";
layers = (
{
layerId = "8680C114-EF70-46E9-96FB-C90A78B2DAE0";
paths = (
{
closed = 1;
nodes = (
"-10 622 LINE",
"-10 512 LINE",
"415 512 LINE",
"415 466 LINE",
"433 495 LINE",
"291 458 OFFCURVE",
"138 389 OFFCURVE",
"16 321 CURVE",
"66 203 LINE",
"215 178 OFFCURVE",
"336 108 OFFCURVE",
"411 0 CURVE",
"543 0 LINE",
"543 622 LINE"
);
},
{
closed = 1;
nodes = (
"411 204 LINE SMOOTH",
"411 171 OFFCURVE",
"413 141 OFFCURVE",
"415 117 CURVE",
"433 128 LINE",
"364 210 OFFCURVE",
"266 262 OFFCURVE",
"184 278 CURVE",
"270 319 OFFCURVE",
"344 351 OFFCURVE",
"432 377 CURVE",
"411 399 LINE"
);
},
{
closed = 1;
nodes = (
"767 622 LINE",
"745 688 LINE",
"636 688 LINE",
"636 273 LINE SMOOTH",
"636 240 OFFCURVE",
"638 209 OFFCURVE",
"640 186 CURVE",
"658 197 LINE",
"600 266 OFFCURVE",
"521 313 OFFCURVE",
"448 336 CURVE",
"441 232 LINE",
"522 196 OFFCURVE",
"589 143 OFFCURVE",
"637 74 CURVE",
"768 74 LINE",
"768 512 LINE",
"864 512 LINE",
"864 622 LINE"
);
}
);
width = 854;
},
{
layerId = UUID0;
paths = (
{
closed = 1;
nodes = (
"-10 622 LINE",
"-10 551 LINE",
"415 551 LINE",
"415 482 LINE",
"436 524 LINE",
"298 481 OFFCURVE",
"164 415 OFFCURVE",
"37 339 CURVE",
"76 243 LINE",
"222 224 OFFCURVE",
"357 118 OFFCURVE",
"415 0 CURVE",
"492 0 LINE",
"492 622 LINE"
);
},
{
closed = 1;
nodes = (
"415 189 LINE",
"415 146 OFFCURVE",
"417 119 OFFCURVE",
"420 88 CURVE",
"428 90 LINE",
"379 194 OFFCURVE",
"242 282 OFFCURVE",
"130 304 CURVE",
"226 362 OFFCURVE",
"336 414 OFFCURVE",
"435 446 CURVE",
"415 474 LINE"
);
},
{
closed = 1;
nodes = (
"698 622 LINE",
"675 688 LINE",
"622 688 LINE",
"622 257 LINE SMOOTH",
"622 214 OFFCURVE",
"623 188 OFFCURVE",
"626 157 CURVE",
"634 160 LINE",
"610 215 OFFCURVE",
"540 286 OFFCURVE",
"483 318 CURVE",
"458 255 LINE",
"523 212 OFFCURVE",
"582 152 OFFCURVE",
"622 73 CURVE",
"699 73 LINE",
"699 551 LINE",
"804 551 LINE",
"804 622 LINE"
);
}
);
width = 794;
},
{
layerId = "46A56A9B-0135-45C3-BDA6-6C6C4BC92BD5";
paths = (
{
closed = 1;
nodes = (
"-10 622 LINE",
"-10 596 LINE",
"414 596 LINE",
"414 531 LINE",
"433 543 LINE",
"296 492 OFFCURVE",
"165 418 OFFCURVE",
"41 336 CURVE",
"55 302 LINE",
"215 264 OFFCURVE",
"341 164 OFFCURVE",
"414 0 CURVE",
"440 0 LINE",
"440 622 LINE"
);
},
{
closed = 1;
nodes = (
"414 168 LINE",
"414 108 OFFCURVE",
"416 55 OFFCURVE",
"420 23 CURVE",
"426 23 LINE",
"357 198 OFFCURVE",
"210 288 OFFCURVE",
"70 325 CURVE",
"183 398 OFFCURVE",
"326 477 OFFCURVE",
"436 517 CURVE",
"414 513 LINE"
);
},
{
closed = 1;
nodes = (
"633 622 LINE",
"628 676 LINE",
"607 676 LINE",
"607 240 LINE SMOOTH",
"607 180 OFFCURVE",
"609 133 OFFCURVE",
"613 95 CURVE",
"619 95 LINE",
"572 215 OFFCURVE",
"488 287 OFFCURVE",
"434 322 CURVE",
"432 293 LINE",
"504 241 OFFCURVE",
"565 167 OFFCURVE",
"607 72 CURVE",
"633 72 LINE",
"633 596 LINE",
"748 596 LINE",
"748 622 LINE"
);
}
);
width = 738;
},
{
layerId = "22409DE3-74E9-441F-9C04-63D5519B89AC";
paths = (
{
closed = 1;
nodes = (
"-10 622 LINE",
"-10 484 LINE",
"393 484 LINE",
"393 442 LINE",
"408 468 LINE",
"273 437 OFFCURVE",
"144 393 OFFCURVE",
"14 327 CURVE",
"77 170 LINE",
"219 143 OFFCURVE",
"303 95 OFFCURVE",
"386 0 CURVE",
"561 0 LINE",
"561 622 LINE"
);
},
{
closed = 1;
nodes = (
"386 233 LINE",
"386 203 OFFCURVE",
"389 167 OFFCURVE",
"392 141 CURVE",
"419 139 LINE",
"372 199 OFFCURVE",
"282 247 OFFCURVE",
"214 260 CURVE",
"276 290 OFFCURVE",
"334 311 OFFCURVE",
"404 328 CURVE",
"386 358 LINE"
);
},
{
closed = 1;
nodes = (
"809 622 LINE",
"785 692 LINE",
"635 692 LINE",
"635 308 LINE SMOOTH",
"635 280 OFFCURVE",
"638 242 OFFCURVE",
"641 216 CURVE",
"668 214 LINE",
"627 264 OFFCURVE",
"561 308 OFFCURVE",
"479 331 CURVE",
"449 214 LINE",
"540 172 OFFCURVE",
"586 134 OFFCURVE",
"635 75 CURVE",
"810 75 LINE",
"810 484 LINE",
"895 484 LINE",
"895 622 LINE"
);
}
);
width = 885;
},
{
layerId = "F0143EB7-DEA3-4B38-8B70-DEA25CF19AA9";
paths = (
{
closed = 1;
nodes = (
"-6 622 LINE",
"-6 554 LINE",
"299 554 LINE",
"299 481 LINE",
"314 527 LINE",
"210 479 OFFCURVE",
"113 411 OFFCURVE",
"23 336 CURVE",
"55 251 LINE",
"169 219 OFFCURVE",
"252 119 OFFCURVE",
"299 0 CURVE",
"370 0 LINE",
"370 622 LINE"
);
},
{
closed = 1;
nodes = (
"299 186 LINE SMOOTH",
"299 154 OFFCURVE",
"301 109 OFFCURVE",
"304 79 CURVE",
"309 92 LINE",
"268 205 OFFCURVE",
"190 275 OFFCURVE",
"103 308 CURVE",
"166 363 OFFCURVE",
"252 416 OFFCURVE",
"320 453 CURVE",
"299 473 LINE"
);
},
{
closed = 1;
nodes = (
"530 622 LINE",
"514 688 LINE",
"460 688 LINE",
"460 259 LINE SMOOTH",
"460 227 OFFCURVE",
"462 182 OFFCURVE",
"465 152 CURVE",
"470 165 LINE",
"448 227 OFFCURVE",
"408 283 OFFCURVE",
"356 326 CURVE",
"336 263 LINE",
"386 221 OFFCURVE",
"430 149 OFFCURVE",
"460 73 CURVE",
"531 73 LINE",
"531 554 LINE",
"605 554 LINE",
"605 622 LINE"
);
}
);
width = 599;
}
);
unicode = 099D;
},
{
glyphname = nyabeng;
lastChange = "2020-04-14 07:51:14 +0000";
layers = (
{
layerId = "8680C114-EF70-46E9-96FB-C90A78B2DAE0";
paths = (
{
closed = 1;
nodes = (
"381 628 OFFCURVE",
"259 495 OFFCURVE",
"259 386 CURVE SMOOTH",
"259 298 OFFCURVE",
"321 258 OFFCURVE",
"403 258 CURVE SMOOTH",
"440 258 OFFCURVE",
"465 262 OFFCURVE",
"482 268 CURVE",
"476 375 LINE",
"463 373 OFFCURVE",
"453 372 OFFCURVE",
"439 372 CURVE SMOOTH",
"396 372 OFFCURVE",
"389 386 OFFCURVE",
"389 404 CURVE SMOOTH",
"389 438 OFFCURVE",
"449 518 OFFCURVE",
"520 518 CURVE SMOOTH",
"540 518 OFFCURVE",
"554 514 OFFCURVE",
"563 504 CURVE SMOOTH",
"575 493 OFFCURVE",
"580 477 OFFCURVE",
"580 435 CURVE SMOOTH",
"580 130 LINE",
"540 170 OFFCURVE",
"507 180 OFFCURVE",
"454 180 CURVE SMOOTH",
"403 180 OFFCURVE",
"353 166 OFFCURVE",
"291 166 CURVE SMOOTH",
"226 166 OFFCURVE",
"162 178 OFFCURVE",
"162 277 CURVE SMOOTH",
"162 315 OFFCURVE",
"167 341 OFFCURVE",
"172 360 CURVE",
"43 377 LINE",
"37 347 OFFCURVE",
"31 305 OFFCURVE",
"31 271 CURVE SMOOTH",
"31 79 OFFCURVE",
"158 52 OFFCURVE",
"272 52 CURVE SMOOTH",
"343 52 OFFCURVE",
"397 67 OFFCURVE",
"471 67 CURVE SMOOTH",
"534 67 OFFCURVE",
"560 48 OFFCURVE",
"582 0 CURVE",
"712 0 LINE",
"712 166 LINE SMOOTH",
"712 204 OFFCURVE",
"710 233 OFFCURVE",
"706 270 CURVE",
"712 291 LINE",
"712 426 LINE",
"709 462 LINE",
"709 536 OFFCURVE",
"690 571 OFFCURVE",
"665 591 CURVE SMOOTH",
"634 615 OFFCURVE",
"597 628 OFFCURVE",
"533 628 CURVE SMOOTH"
);
},
{
closed = 1;
nodes = (
"793 614 OFFCURVE",
"735 585 OFFCURVE",
"682 524 CURVE",
"706 395 LINE",
"742 467 OFFCURVE",
"795 513 OFFCURVE",
"853 513 CURVE SMOOTH",
"877 513 OFFCURVE",
"896 505 OFFCURVE",
"896 480 CURVE SMOOTH",
"896 453 OFFCURVE",
"866 435 OFFCURVE",
"812 426 CURVE",
"836 329 LINE",
"991 359 OFFCURVE",
"1021 437 OFFCURVE",
"1021 491 CURVE SMOOTH",
"1021 562 OFFCURVE",
"966 614 OFFCURVE",
"871 614 CURVE SMOOTH"
);
},
{
closed = 1;
nodes = (
"977 160 OFFCURVE",
"1026 221 OFFCURVE",
"1026 289 CURVE SMOOTH",
"1026 358 OFFCURVE",
"977 395 OFFCURVE",
"935 413 CURVE",
"831 373 LINE",
"880 355 OFFCURVE",
"902 331 OFFCURVE",
"902 303 CURVE SMOOTH",
"902 272 OFFCURVE",
"879 261 OFFCURVE",
"847 261 CURVE SMOOTH",
"786 261 OFFCURVE",
"728 312 OFFCURVE",
"704 422 CURVE",
"642 340 LINE",
"689 256 LINE",
"724 201 OFFCURVE",
"781 160 OFFCURVE",
"866 160 CURVE SMOOTH"
);
}
);
width = 1070;
},
{
layerId = UUID0;
paths = (
{
closed = 1;
nodes = (
"374 628 OFFCURVE",
"254 499 OFFCURVE",
"254 392 CURVE SMOOTH",
"254 309 OFFCURVE",
"311 270 OFFCURVE",
"376 270 CURVE SMOOTH",
"405 270 OFFCURVE",
"427 273 OFFCURVE",
"441 278 CURVE",
"434 348 LINE",
"419 346 OFFCURVE",
"407 345 OFFCURVE",
"392 345 CURVE SMOOTH",
"341 345 OFFCURVE",
"333 373 OFFCURVE",
"333 393 CURVE SMOOTH",
"333 459 OFFCURVE",
"418 557 OFFCURVE",
"514 557 CURVE SMOOTH",
"540 557 OFFCURVE",
"557 552 OFFCURVE",
"569 542 CURVE SMOOTH",
"583 529 OFFCURVE",
"590 512 OFFCURVE",
"590 463 CURVE SMOOTH",
"590 106 LINE",
"561 146 OFFCURVE",
"518 161 OFFCURVE",
"461 161 CURVE SMOOTH",
"391 161 OFFCURVE",
"343 144 OFFCURVE",
"276 144 CURVE SMOOTH",
"202 144 OFFCURVE",
"124 162 OFFCURVE",
"124 280 CURVE SMOOTH",
"124 319 OFFCURVE",
"130 346 OFFCURVE",
"135 366 CURVE",
"58 377 LINE",
"52 348 OFFCURVE",
"46 310 OFFCURVE",
"46 278 CURVE SMOOTH",
"46 97 OFFCURVE",
"182 70 OFFCURVE",
"272 70 CURVE SMOOTH",
"359 70 OFFCURVE",
"409 87 OFFCURVE",
"481 87 CURVE SMOOTH",
"541 87 OFFCURVE",
"575 60 OFFCURVE",
"592 0 CURVE",
"667 0 LINE",
"667 190 LINE SMOOTH",
"667 217 OFFCURVE",
"667 247 OFFCURVE",
"661 274 CURVE",
"667 290 LINE",
"667 475 LINE",
"664 495 LINE",
"664 545 OFFCURVE",
"649 573 OFFCURVE",
"625 594 CURVE SMOOTH",
"598 616 OFFCURVE",
"564 628 OFFCURVE",
"511 628 CURVE SMOOTH"
);
},
{
closed = 1;
nodes = (
"755 607 OFFCURVE",
"706 576 OFFCURVE",
"657 522 CURVE",
"662 415 LINE",
"704 488 OFFCURVE",
"758 538 OFFCURVE",
"819 538 CURVE SMOOTH",
"854 538 OFFCURVE",
"883 521 OFFCURVE",
"883 485 CURVE SMOOTH",
"883 451 OFFCURVE",
"856 423 OFFCURVE",
"785 412 CURVE",
"802 344 LINE",
"937 372 OFFCURVE",
"959 443 OFFCURVE",
"959 493 CURVE SMOOTH",
"959 560 OFFCURVE",
"907 607 OFFCURVE",
"824 607 CURVE SMOOTH"
);
},
{
closed = 1;
nodes = (
"916 167 OFFCURVE",
"965 225 OFFCURVE",
"965 291 CURVE SMOOTH",
"965 359 OFFCURVE",
"916 396 OFFCURVE",
"874 413 CURVE",
"818 373 LINE",
"869 355 OFFCURVE",
"889 329 OFFCURVE",
"889 294 CURVE SMOOTH",
"889 255 OFFCURVE",
"856 236 OFFCURVE",
"820 236 CURVE SMOOTH",
"747 236 OFFCURVE",
"690 294 OFFCURVE",
"662 400 CURVE",
"619 348 LINE",
"660 260 LINE",
"694 207 OFFCURVE",
"742 167 OFFCURVE",
"823 167 CURVE SMOOTH"
);
}
);
width = 1019;
},
{
layerId = "46A56A9B-0135-45C3-BDA6-6C6C4BC92BD5";
paths = (
{
closed = 1;
nodes = (
"376 628 OFFCURVE",
"253 504 OFFCURVE",
"253 398 CURVE SMOOTH",
"253 319 OFFCURVE",
"299 285 OFFCURVE",
"364 285 CURVE SMOOTH",
"386 285 OFFCURVE",
"401 287 OFFCURVE",
"415 291 CURVE",
"411 316 LINE",
"396 312 OFFCURVE",
"380 311 OFFCURVE",
"365 311 CURVE SMOOTH",
"292 311 OFFCURVE",
"280 353 OFFCURVE",
"280 398 CURVE SMOOTH",
"280 484 OFFCURVE",
"383 602 OFFCURVE",
"498 602 CURVE SMOOTH",
"527 602 OFFCURVE",
"550 595 OFFCURVE",
"566 582 CURVE SMOOTH",
"587 564 OFFCURVE",
"595 534 OFFCURVE",
"595 484 CURVE SMOOTH",
"595 55 LINE",
"574 108 OFFCURVE",
"536 139 OFFCURVE",
"470 139 CURVE SMOOTH",
"402 139 OFFCURVE",
"334 118 OFFCURVE",
"254 118 CURVE SMOOTH",
"169 118 OFFCURVE",
"79 141 OFFCURVE",
"79 281 CURVE SMOOTH",
"79 314 OFFCURVE",
"85 345 OFFCURVE",
"91 371 CURVE",
"65 375 LINE",
"58 348 OFFCURVE",
"52 314 OFFCURVE",
"52 281 CURVE SMOOTH",
"52 124 OFFCURVE",
"159 92 OFFCURVE",
"255 92 CURVE SMOOTH",
"352 92 OFFCURVE",
"396 113 OFFCURVE",
"471 113 CURVE SMOOTH",
"550 113 OFFCURVE",
"573 66 OFFCURVE",
"595 0 CURVE",
"621 0 LINE",
"621 255 LINE SMOOTH",
"621 294 OFFCURVE",
"620 328 OFFCURVE",
"618 355 CURVE",
"621 362 LINE",
"621 462 LINE",
"621 494 LINE SMOOTH",
"621 553 OFFCURVE",
"607 582 OFFCURVE",
"581 603 CURVE SMOOTH",
"558 622 OFFCURVE",
"526 628 OFFCURVE",
"498 628 CURVE SMOOTH"
);
},
{
closed = 1;
nodes = (
"721 606 OFFCURVE",
"647 549 OFFCURVE",
"603 457 CURVE",
"608 424 LINE",
"656 517 OFFCURVE",
"720 580 OFFCURVE",
"792 580 CURVE SMOOTH",
"847 580 OFFCURVE",
"875 551 OFFCURVE",
"875 506 CURVE SMOOTH",
"875 454 OFFCURVE",
"839 414 OFFCURVE",
"753 401 CURVE",
"758 375 LINE",
"879 399 OFFCURVE",
"902 458 OFFCURVE",
"902 509 CURVE SMOOTH",
"902 561 OFFCURVE",
"864 606 OFFCURVE",
"792 606 CURVE SMOOTH"
);
},
{
closed = 1;
nodes = (
"867 186 OFFCURVE",
"908 230 OFFCURVE",
"908 293 CURVE SMOOTH",
"908 361 OFFCURVE",
"855 396 OFFCURVE",
"813 412 CURVE",
"793 395 LINE",
"847 373 OFFCURVE",
"881 345 OFFCURVE",
"881 293 CURVE SMOOTH",
"881 241 OFFCURVE",
"851 212 OFFCURVE",
"792 212 CURVE SMOOTH",
"699 212 OFFCURVE",
"637 296 OFFCURVE",
"610 404 CURVE",
"599 385 LINE",
"603 365 LINE",
"630 258 OFFCURVE",
"697 186 OFFCURVE",
"792 186 CURVE SMOOTH"
);
}
);
width = 962;
},
{
layerId = "22409DE3-74E9-441F-9C04-63D5519B89AC";
paths = (
{
closed = 1;
nodes = (
"399 628 OFFCURVE",
"268 492 OFFCURVE",
"268 382 CURVE SMOOTH",
"268 290 OFFCURVE",
"334 246 OFFCURVE",
"423 246 CURVE SMOOTH",
"466 246 OFFCURVE",
"494 250 OFFCURVE",
"519 256 CURVE",
"511 389 LINE",
"500 387 OFFCURVE",
"487 386 OFFCURVE",
"476 386 CURVE SMOOTH",
"448 386 OFFCURVE",
"440 396 OFFCURVE",
"440 412 CURVE SMOOTH",
"440 443 OFFCURVE",
"491 490 OFFCURVE",
"534 490 CURVE SMOOTH",
"548 490 OFFCURVE",
"560 486 OFFCURVE",
"567 477 CURVE SMOOTH",
"576 466 OFFCURVE",
"579 450 OFFCURVE",
"579 425 CURVE SMOOTH",
"579 150 LINE",
"536 188 OFFCURVE",
"507 195 OFFCURVE",
"461 195 CURVE SMOOTH",
"415 195 OFFCURVE",
"365 183 OFFCURVE",
"305 183 CURVE SMOOTH",
"239 183 OFFCURVE",
"201 202 OFFCURVE",
"201 275 CURVE SMOOTH",
"201 304 OFFCURVE",
"204 330 OFFCURVE",
"210 355 CURVE",
"42 379 LINE",
"33 346 OFFCURVE",
"28 301 OFFCURVE",
"28 265 CURVE SMOOTH",
"28 81 OFFCURVE",
"152 41 OFFCURVE",
"279 41 CURVE SMOOTH",
"359 41 OFFCURVE",
"418 54 OFFCURVE",
"484 54 CURVE SMOOTH",
"540 54 OFFCURVE",
"559 37 OFFCURVE",
"582 0 CURVE",
"754 0 LINE",
"754 140 LINE SMOOTH",
"754 176 OFFCURVE",
"752 215 OFFCURVE",
"747 247 CURVE",
"754 298 LINE",
"754 415 LINE",
"751 437 LINE",
"751 522 OFFCURVE",
"728 566 OFFCURVE",
"695 591 CURVE SMOOTH",
"665 614 OFFCURVE",
"630 628 OFFCURVE",
"558 628 CURVE SMOOTH"
);
},
{
closed = 1;
nodes = (
"827 620 OFFCURVE",
"766 585 OFFCURVE",
"709 526 CURVE",
"743 384 LINE",
"792 463 OFFCURVE",
"840 497 OFFCURVE",
"884 497 CURVE SMOOTH",
"901 497 OFFCURVE",
"912 492 OFFCURVE",
"912 476 CURVE SMOOTH",
"912 455 OFFCURVE",
"885 444 OFFCURVE",
"838 436 CURVE",
"866 321 LINE",
"1043 357 OFFCURVE",
"1076 426 OFFCURVE",
"1076 493 CURVE SMOOTH",
"1076 565 OFFCURVE",
"1020 620 OFFCURVE",
"916 620 CURVE SMOOTH"
);
},
{
closed = 1;
nodes = (
"1027 154 OFFCURVE",
"1080 218 OFFCURVE",
"1080 287 CURVE SMOOTH",
"1080 355 OFFCURVE",
"1033 390 OFFCURVE",
"989 413 CURVE",
"873 355 LINE",
"902 340 OFFCURVE",
"919 328 OFFCURVE",
"919 305 CURVE SMOOTH",
"919 285 OFFCURVE",
"904 277 OFFCURVE",
"878 277 CURVE SMOOTH",
"823 277 OFFCURVE",
"765 321 OFFCURVE",
"742 431 CURVE",
"670 335 LINE",
"718 253 LINE",
"754 196 OFFCURVE",
"816 154 OFFCURVE",
"910 154 CURVE SMOOTH"
);
}
);
width = 1120;
},
{
layerId = "F0143EB7-DEA3-4B38-8B70-DEA25CF19AA9";
paths = (
{
closed = 1;
nodes = (
"273 628 OFFCURVE",
"190 499 OFFCURVE",
"190 389 CURVE SMOOTH",
"190 310 OFFCURVE",
"232 271 OFFCURVE",
"287 271 CURVE SMOOTH",
"309 271 OFFCURVE",
"323 272 OFFCURVE",
"336 277 CURVE",
"329 345 LINE",
"319 344 OFFCURVE",
"311 343 OFFCURVE",
"303 343 CURVE SMOOTH",
"267 343 OFFCURVE",
"261 369 OFFCURVE",
"261 393 CURVE SMOOTH",
"261 461 OFFCURVE",
"318 560 OFFCURVE",
"378 560 CURVE SMOOTH",
"394 560 OFFCURVE",
"407 554 OFFCURVE",
"414 544 CURVE SMOOTH",
"423 531 OFFCURVE",
"425 512 OFFCURVE",
"425 473 CURVE SMOOTH",
"425 108 LINE",
"394 148 OFFCURVE",
"368 157 OFFCURVE",
"334 157 CURVE SMOOTH",
"293 157 OFFCURVE",
"254 142 OFFCURVE",
"206 142 CURVE SMOOTH",
"148 142 OFFCURVE",
"108 167 OFFCURVE",
"108 260 CURVE SMOOTH",
"108 284 OFFCURVE",
"111 319 OFFCURVE",
"117 345 CURVE",
"48 355 LINE",
"40 320 OFFCURVE",
"37 288 OFFCURVE",
"37 260 CURVE SMOOTH",
"37 108 OFFCURVE",
"130 71 OFFCURVE",
"197 71 CURVE SMOOTH",
"260 71 OFFCURVE",
"295 86 OFFCURVE",
"343 86 CURVE SMOOTH",
"391 86 OFFCURVE",
"412 55 OFFCURVE",
"427 0 CURVE",
"496 0 LINE",
"496 194 LINE SMOOTH",
"496 221 OFFCURVE",
"494 249 OFFCURVE",
"491 274 CURVE",
"496 289 LINE",
"496 479 LINE",
"494 499 LINE",
"492 546 OFFCURVE",
"484 579 OFFCURVE",
"464 599 CURVE SMOOTH",
"445 618 OFFCURVE",
"420 628 OFFCURVE",
"382 628 CURVE SMOOTH"
);
},
{
closed = 1;
nodes = (
"552 607 OFFCURVE",
"513 574 OFFCURVE",
"469 512 CURVE",
"481 420 LINE",
"516 491 OFFCURVE",
"555 541 OFFCURVE",
"596 541 CURVE SMOOTH",
"627 541 OFFCURVE",
"642 522 OFFCURVE",
"642 493 CURVE SMOOTH",
"642 451 OFFCURVE",
"619 427 OFFCURVE",
"566 408 CURVE",
"590 346 LINE",
"684 383 OFFCURVE",
"712 443 OFFCURVE",
"712 497 CURVE SMOOTH",
"712 561 OFFCURVE",
"672 607 OFFCURVE",
"609 607 CURVE SMOOTH"
);
},
{
closed = 1;
nodes = (
"681 168 OFFCURVE",
"714 226 OFFCURVE",
"714 282 CURVE SMOOTH",
"714 348 OFFCURVE",
"683 380 OFFCURVE",
"640 414 CURVE",
"588 374 LINE",
"623 350 OFFCURVE",
"644 328 OFFCURVE",
"644 288 CURVE SMOOTH",
"644 259 OFFCURVE",
"630 234 OFFCURVE",
"599 234 CURVE SMOOTH",
"552 234 OFFCURVE",
"504 290 OFFCURVE",
"481 395 CURVE",
"453 322 LINE",
"477 274 LINE",
"503 211 OFFCURVE",
"545 168 OFFCURVE",
"612 168 CURVE SMOOTH"
);
}
);
width = 752;
}
);
unicode = 099E;
},
{
glyphname = ttabeng;
lastChange = "2020-04-14 07:51:14 +0000";
layers = (
{
layerId = "8680C114-EF70-46E9-96FB-C90A78B2DAE0";
paths = (
{
closed = 1;
nodes = (
"-10 622 LINE",
"-10 512 LINE",
"81 512 LINE",
"81 220 LINE SMOOTH",
"81 122 OFFCURVE",
"104 83 OFFCURVE",
"132 59 CURVE SMOOTH",
"160 34 OFFCURVE",
"195 20 OFFCURVE",
"267 20 CURVE SMOOTH",
"345 20 OFFCURVE",
"417 52 OFFCURVE",
"470 104 CURVE SMOOTH",
"521 154 OFFCURVE",
"554 218 OFFCURVE",
"554 292 CURVE SMOOTH",
"554 367 OFFCURVE",
"512 426 OFFCURVE",
"407 426 CURVE SMOOTH",
"368 426 OFFCURVE",
"341 421 OFFCURVE",
"312 415 CURVE",
"330 307 LINE",
"342 309 OFFCURVE",
"356 311 OFFCURVE",
"373 311 CURVE SMOOTH",
"409 311 OFFCURVE",
"424 293 OFFCURVE",
"424 268 CURVE SMOOTH",
"424 236 OFFCURVE",
"407 205 OFFCURVE",
"378 178 CURVE SMOOTH",
"343 145 OFFCURVE",
"311 130 OFFCURVE",
"275 130 CURVE SMOOTH",
"252 130 OFFCURVE",
"238 135 OFFCURVE",
"229 145 CURVE SMOOTH",
"218 156 OFFCURVE",
"213 173 OFFCURVE",
"213 219 CURVE SMOOTH",
"213 512 LINE",
"603 512 LINE",
"603 622 LINE"
);
},
{
closed = 1;
nodes = (
"505 622 LINE",
"503 684 OFFCURVE",
"489 724 OFFCURVE",
"464 749 CURVE SMOOTH",
"432 780 OFFCURVE",
"391 790 OFFCURVE",
"312 790 CURVE SMOOTH",
"233 790 LINE SMOOTH",
"182 790 OFFCURVE",
"164 797 OFFCURVE",
"150 810 CURVE SMOOTH",
"135 824 OFFCURVE",
"130 847 OFFCURVE",
"130 875 CURVE SMOOTH",
"130 883 OFFCURVE",
"131 892 OFFCURVE",
"132 904 CURVE",
"7 912 LINE",
"3 888 OFFCURVE",
"2 874 OFFCURVE",
"2 854 CURVE SMOOTH",
"2 805 OFFCURVE",
"13 767 OFFCURVE",
"38 739 CURVE SMOOTH",
"74 699 OFFCURVE",
"135 680 OFFCURVE",
"236 680 CURVE SMOOTH",
"311 680 LINE SMOOTH",
"361 680 OFFCURVE",
"378 663 OFFCURVE",
"380 622 CURVE"
);
}
);
width = 593;
},
{
layerId = UUID0;
paths = (
{
closed = 1;
nodes = (
"-10 622 LINE",
"-10 551 LINE",
"95 551 LINE",
"95 191 LINE SMOOTH",
"95 117 OFFCURVE",
"110 88 OFFCURVE",
"132 63 CURVE SMOOTH",
"155 40 OFFCURVE",
"189 24 OFFCURVE",
"239 24 CURVE SMOOTH",
"308 24 OFFCURVE",
"365 52 OFFCURVE",
"415 95 CURVE SMOOTH",
"473 146 OFFCURVE",
"517 224 OFFCURVE",
"517 303 CURVE SMOOTH",
"517 398 OFFCURVE",
"463 439 OFFCURVE",
"389 439 CURVE SMOOTH",
"358 439 OFFCURVE",
"331 435 OFFCURVE",
"306 428 CURVE",
"317 357 LINE",
"334 361 OFFCURVE",
"354 364 OFFCURVE",
"370 364 CURVE SMOOTH",
"419 364 OFFCURVE",
"439 341 OFFCURVE",
"439 299 CURVE SMOOTH",
"439 251 OFFCURVE",
"417 203 OFFCURVE",
"379 162 CURVE SMOOTH",
"344 124 OFFCURVE",
"296 96 OFFCURVE",
"244 96 CURVE SMOOTH",
"217 96 OFFCURVE",
"202 102 OFFCURVE",
"189 117 CURVE SMOOTH",
"180 128 OFFCURVE",
"172 146 OFFCURVE",
"172 205 CURVE SMOOTH",
"172 551 LINE",
"577 551 LINE",
"577 622 LINE"
);
},
{
closed = 1;
nodes = (
"467 622 LINE",
"465 677 OFFCURVE",
"454 712 OFFCURVE",
"431 734 CURVE SMOOTH",
"402 762 OFFCURVE",
"365 771 OFFCURVE",
"294 771 CURVE SMOOTH",
"216 771 LINE SMOOTH",
"150 771 OFFCURVE",
"119 781 OFFCURVE",
"100 802 CURVE SMOOTH",
"86 817 OFFCURVE",
"81 840 OFFCURVE",
"81 869 CURVE SMOOTH",
"81 882 OFFCURVE",
"82 892 OFFCURVE",
"85 907 CURVE",
"11 912 LINE",
"8 892 OFFCURVE",
"6 876 OFFCURVE",
"6 859 CURVE SMOOTH",
"6 805 OFFCURVE",
"24 763 OFFCURVE",
"60 736 CURVE SMOOTH",
"93 711 OFFCURVE",
"134 699 OFFCURVE",
"221 699 CURVE SMOOTH",
"315 699 LINE SMOOTH",
"371 699 OFFCURVE",
"393 677 OFFCURVE",
"395 622 CURVE"
);
}
);
width = 567;
},
{
layerId = "46A56A9B-0135-45C3-BDA6-6C6C4BC92BD5";
paths = (
{
closed = 1;
nodes = (
"-10 622 LINE",
"-10 596 LINE",
"105 596 LINE",
"105 188 LINE SMOOTH",
"105 117 OFFCURVE",
"114 84 OFFCURVE",
"144 60 CURVE SMOOTH",
"161 47 OFFCURVE",
"185 40 OFFCURVE",
"214 40 CURVE SMOOTH",
"280 40 OFFCURVE",
"338 71 OFFCURVE",
"383 118 CURVE SMOOTH",
"437 175 OFFCURVE",
"471 255 OFFCURVE",
"471 329 CURVE SMOOTH",
"471 421 OFFCURVE",
"409 450 OFFCURVE",
"358 450 CURVE SMOOTH",
"338 450 OFFCURVE",
"311 447 OFFCURVE",
"289 440 CURVE",
"295 415 LINE",
"315 421 OFFCURVE",
"337 424 OFFCURVE",
"357 424 CURVE SMOOTH",
"418 424 OFFCURVE",
"444 385 OFFCURVE",
"444 329 CURVE SMOOTH",
"444 257 OFFCURVE",
"414 186 OFFCURVE",
"364 135 CURVE SMOOTH",
"324 94 OFFCURVE",
"275 66 OFFCURVE",
"214 66 CURVE SMOOTH",
"187 66 OFFCURVE",
"168 72 OFFCURVE",
"156 84 CURVE SMOOTH",
"135 104 OFFCURVE",
"131 136 OFFCURVE",
"131 198 CURVE SMOOTH",
"131 596 LINE",
"544 596 LINE",
"544 622 LINE"
);
},
{
closed = 1;
nodes = (
"425 622 LINE",
"422 679 OFFCURVE",
"406 713 OFFCURVE",
"374 733 CURVE SMOOTH",
"353 746 OFFCURVE",
"328 752 OFFCURVE",
"285 752 CURVE SMOOTH",
"194 752 LINE SMOOTH",
"120 752 OFFCURVE",
"83 759 OFFCURVE",
"60 785 CURVE SMOOTH",
"45 802 OFFCURVE",
"37 828 OFFCURVE",
"37 863 CURVE SMOOTH",
"37 877 OFFCURVE",
"38 893 OFFCURVE",
"41 910 CURVE",
"14 912 LINE",
"11 895 OFFCURVE",
"10 878 OFFCURVE",
"10 862 CURVE SMOOTH",
"10 825 OFFCURVE",
"19 795 OFFCURVE",
"35 774 CURVE SMOOTH",
"66 734 OFFCURVE",
"121 726 OFFCURVE",
"196 726 CURVE SMOOTH",
"286 726 LINE SMOOTH",
"375 726 OFFCURVE",
"395 690 OFFCURVE",
"399 622 CURVE"
);
}
);
width = 534;
},
{
layerId = "22409DE3-74E9-441F-9C04-63D5519B89AC";
paths = (
{
closed = 1;
nodes = (
"-10 622 LINE",
"-10 484 LINE",
"72 484 LINE",
"72 230 LINE SMOOTH",
"72 134 OFFCURVE",
"96 93 OFFCURVE",
"133 61 CURVE SMOOTH",
"167 31 OFFCURVE",
"219 18 OFFCURVE",
"281 18 CURVE SMOOTH",
"369 18 OFFCURVE",
"444 51 OFFCURVE",
"500 102 CURVE SMOOTH",
"551 149 OFFCURVE",
"584 210 OFFCURVE",
"584 282 CURVE SMOOTH",
"584 347 OFFCURVE",
"552 422 OFFCURVE",
"420 422 CURVE SMOOTH",
"380 422 OFFCURVE",
"348 416 OFFCURVE",
"318 409 CURVE",
"340 270 LINE",
"352 272 OFFCURVE",
"365 274 OFFCURVE",
"379 274 CURVE SMOOTH",
"402 274 OFFCURVE",
"414 265 OFFCURVE",
"414 247 CURVE SMOOTH",
"414 226 OFFCURVE",
"393 201 OFFCURVE",
"372 186 CURVE SMOOTH",
"348 169 OFFCURVE",
"323 156 OFFCURVE",
"291 156 CURVE SMOOTH",
"279 156 OFFCURVE",
"268 159 OFFCURVE",
"261 166 CURVE SMOOTH",
"252 174 OFFCURVE",
"247 185 OFFCURVE",
"247 214 CURVE SMOOTH",
"247 484 LINE",
"622 484 LINE",
"622 622 LINE"
);
},
{
closed = 1;
nodes = (
"535 622 LINE",
"531 698 OFFCURVE",
"516 745 OFFCURVE",
"481 774 CURVE SMOOTH",
"445 803 OFFCURVE",
"405 812 OFFCURVE",
"324 812 CURVE SMOOTH",
"266 812 LINE SMOOTH",
"218 812 OFFCURVE",
"199 815 OFFCURVE",
"185 826 CURVE SMOOTH",
"172 836 OFFCURVE",
"167 851 OFFCURVE",
"167 877 CURVE SMOOTH",
"167 883 OFFCURVE",
"168 893 OFFCURVE",
"170 905 CURVE",
"5 915 LINE",
"1 891 OFFCURVE",
"-1 872 OFFCURVE",
"-1 853 CURVE SMOOTH",
"-1 799 OFFCURVE",
"11 760 OFFCURVE",
"35 733 CURVE SMOOTH",
"74 689 OFFCURVE",
"136 675 OFFCURVE",
"251 675 CURVE SMOOTH",
"310 675 LINE SMOOTH",
"354 675 OFFCURVE",
"365 659 OFFCURVE",
"368 622 CURVE"
);
}
);
width = 612;
},
{
layerId = "F0143EB7-DEA3-4B38-8B70-DEA25CF19AA9";
paths = (
{
closed = 1;
nodes = (
"-6 622 LINE",
"-6 554 LINE",
"68 554 LINE",
"68 161 LINE SMOOTH",
"68 110 OFFCURVE",
"75 82 OFFCURVE",
"97 57 CURVE SMOOTH",
"115 36 OFFCURVE",
"145 24 OFFCURVE",
"183 24 CURVE SMOOTH",
"262 24 OFFCURVE",
"313 78 OFFCURVE",
"346 144 CURVE SMOOTH",
"370 192 OFFCURVE",
"385 257 OFFCURVE",
"385 312 CURVE SMOOTH",
"385 395 OFFCURVE",
"349 439 OFFCURVE",
"274 439 CURVE SMOOTH",
"251 439 OFFCURVE",
"226 435 OFFCURVE",
"209 430 CURVE",
"220 362 LINE",
"232 365 OFFCURVE",
"246 367 OFFCURVE",
"259 367 CURVE SMOOTH",
"300 367 OFFCURVE",
"311 341 OFFCURVE",
"311 307 CURVE SMOOTH",
"311 260 OFFCURVE",
"299 206 OFFCURVE",
"278 166 CURVE SMOOTH",
"255 122 OFFCURVE",
"226 92 OFFCURVE",
"186 92 CURVE SMOOTH",
"170 92 OFFCURVE",
"159 97 OFFCURVE",
"152 105 CURVE SMOOTH",
"142 117 OFFCURVE",
"139 132 OFFCURVE",
"139 166 CURVE SMOOTH",
"139 554 LINE",
"435 554 LINE",
"435 622 LINE"
);
},
{
closed = 1;
nodes = (
"356 622 LINE",
"354 681 OFFCURVE",
"346 716 OFFCURVE",
"320 741 CURVE SMOOTH",
"299 761 OFFCURVE",
"271 771 OFFCURVE",
"214 771 CURVE SMOOTH",
"182 771 LINE SMOOTH",
"135 771 OFFCURVE",
"114 778 OFFCURVE",
"98 792 CURVE SMOOTH",
"79 808 OFFCURVE",
"73 834 OFFCURVE",
"73 866 CURVE SMOOTH",
"73 879 OFFCURVE",
"74 892 OFFCURVE",
"76 907 CURVE",
"9 912 LINE",
"6 896 OFFCURVE",
"4 877 OFFCURVE",
"4 859 CURVE SMOOTH",
"4 808 OFFCURVE",
"17 766 OFFCURVE",
"48 739 CURVE SMOOTH",
"76 715 OFFCURVE",
"116 702 OFFCURVE",
"185 702 CURVE SMOOTH",
"215 702 LINE SMOOTH",
"272 702 OFFCURVE",
"286 673 OFFCURVE",
"289 622 CURVE"
);
}
);
width = 429;
}
);
unicode = 099F;
},
{
glyphname = tthabeng;
lastChange = "2020-04-14 07:51:14 +0000";
layers = (
{
layerId = "8680C114-EF70-46E9-96FB-C90A78B2DAE0";
paths = (
{
closed = 1;
nodes = (
"494 0 OFFCURVE",
"589 91 OFFCURVE",
"589 241 CURVE SMOOTH",
"589 337 OFFCURVE",
"549 427 OFFCURVE",
"463 514 CURVE",
"483 512 OFFCURVE",
"498 512 OFFCURVE",
"524 512 CURVE SMOOTH",
"644 512 LINE",
"644 622 LINE",
"338 622 LINE",
"288 672 OFFCURVE",
"259 706 OFFCURVE",
"259 741 CURVE SMOOTH",
"259 771 OFFCURVE",
"272 794 OFFCURVE",
"312 825 CURVE",
"216 917 LINE",
"159 875 OFFCURVE",
"127 832 OFFCURVE",
"127 776 CURVE SMOOTH",
"127 726 OFFCURVE",
"150 681 OFFCURVE",
"199 622 CURVE",
"-10 622 LINE",
"-10 512 LINE",
"253 512 LINE",
"264 485 OFFCURVE",
"264 458 OFFCURVE",
"264 438 CURVE SMOOTH",
"264 353 OFFCURVE",
"218 285 OFFCURVE",
"56 266 CURVE",
"22 151 LINE",
"73 66 OFFCURVE",
"178 0 OFFCURVE",
"308 0 CURVE SMOOTH"
);
},
{
closed = 1;
nodes = (
"233 114 OFFCURVE",
"159 151 OFFCURVE",
"138 227 CURVE",
"125 159 LINE",
"323 202 OFFCURVE",
"376 291 OFFCURVE",
"376 399 CURVE SMOOTH",
"376 447 OFFCURVE",
"357 498 OFFCURVE",
"344 531 CURVE",
"315 524 LINE",
"417 415 OFFCURVE",
"453 335 OFFCURVE",
"453 247 CURVE SMOOTH",
"453 158 OFFCURVE",
"392 114 OFFCURVE",
"305 114 CURVE SMOOTH"
);
}
);
width = 634;
},
{
layerId = UUID0;
paths = (
{
closed = 1;
nodes = (
"439 0 OFFCURVE",
"529 98 OFFCURVE",
"529 240 CURVE SMOOTH",
"529 363 OFFCURVE",
"462 456 OFFCURVE",
"365 553 CURVE",
"385 551 OFFCURVE",
"401 551 OFFCURVE",
"427 551 CURVE SMOOTH",
"601 551 LINE",
"601 622 LINE",
"291 622 LINE",
"240 680 OFFCURVE",
"208 722 OFFCURVE",
"208 764 CURVE SMOOTH",
"208 803 OFFCURVE",
"226 828 OFFCURVE",
"269 861 CURVE",
"218 917 LINE",
"161 875 OFFCURVE",
"129 832 OFFCURVE",
"129 776 CURVE SMOOTH",
"129 726 OFFCURVE",
"157 680 OFFCURVE",
"200 622 CURVE",
"-10 622 LINE",
"-10 551 LINE",
"242 551 LINE",
"257 516 OFFCURVE",
"263 478 OFFCURVE",
"263 448 CURVE SMOOTH",
"263 344 OFFCURVE",
"221 263 OFFCURVE",
"58 247 CURVE",
"36 168 LINE",
"73 69 OFFCURVE",
"162 0 OFFCURVE",
"282 0 CURVE SMOOTH"
);
},
{
closed = 1;
nodes = (
"199 74 OFFCURVE",
"119 122 OFFCURVE",
"100 229 CURVE",
"86 168 LINE",
"284 206 OFFCURVE",
"333 306 OFFCURVE",
"333 406 CURVE SMOOTH",
"333 458 OFFCURVE",
"322 495 OFFCURVE",
"309 532 CURVE",
"293 536 LINE",
"409 415 OFFCURVE",
"448 336 OFFCURVE",
"448 244 CURVE SMOOTH",
"448 155 OFFCURVE",
"396 74 OFFCURVE",
"280 74 CURVE SMOOTH"
);
}
);
width = 591;
},
{
layerId = "46A56A9B-0135-45C3-BDA6-6C6C4BC92BD5";
paths = (
{
closed = 1;
nodes = (
"408 0 OFFCURVE",
"477 103 OFFCURVE",
"477 232 CURVE SMOOTH",
"477 364 OFFCURVE",
"393 476 OFFCURVE",
"264 598 CURVE",
"284 596 OFFCURVE",
"301 596 OFFCURVE",
"327 596 CURVE SMOOTH",
"554 596 LINE",
"554 622 LINE",
"238 622 LINE",
"177 697 OFFCURVE",
"156 732 OFFCURVE",
"156 776 CURVE SMOOTH",
"156 822 OFFCURVE",
"174 849 OFFCURVE",
"236 898 CURVE",
"220 917 LINE",
"157 867 OFFCURVE",
"129 832 OFFCURVE",
"129 777 CURVE SMOOTH",
"129 729 OFFCURVE",
"153 686 OFFCURVE",
"207 622 CURVE",
"-10 622 LINE",
"-10 596 LINE",
"221 596 LINE",
"242 560 OFFCURVE",
"263 496 OFFCURVE",
"263 421 CURVE SMOOTH",
"263 324 OFFCURVE",
"222 224 OFFCURVE",
"49 210 CURVE",
"42 180 LINE",
"72 71 OFFCURVE",
"142 0 OFFCURVE",
"259 0 CURVE SMOOTH"
);
},
{
closed = 1;
nodes = (
"173 26 OFFCURVE",
"94 73 OFFCURVE",
"65 194 CURVE",
"51 185 LINE",
"239 200 OFFCURVE",
"289 312 OFFCURVE",
"289 421 CURVE SMOOTH",
"289 480 OFFCURVE",
"270 551 OFFCURVE",
"245 597 CURVE",
"251 583 LINE",
"387 438 OFFCURVE",
"450 350 OFFCURVE",
"450 231 CURVE SMOOTH",
"450 125 OFFCURVE",
"401 26 OFFCURVE",
"259 26 CURVE SMOOTH"
);
}
);
width = 544;
},
{
layerId = "22409DE3-74E9-441F-9C04-63D5519B89AC";
paths = (
{
closed = 1;
nodes = (
"519 0 OFFCURVE",
"620 86 OFFCURVE",
"620 237 CURVE SMOOTH",
"620 323 OFFCURVE",
"591 399 OFFCURVE",
"512 486 CURVE",
"532 485 OFFCURVE",
"547 484 OFFCURVE",
"576 484 CURVE SMOOTH",
"670 484 LINE",
"670 622 LINE",
"370 622 LINE",
"317 665 OFFCURVE",
"288 694 OFFCURVE",
"288 727 CURVE SMOOTH",
"288 751 OFFCURVE",
"295 768 OFFCURVE",
"331 801 CURVE",
"209 917 LINE",
"152 875 OFFCURVE",
"116 832 OFFCURVE",
"116 771 CURVE SMOOTH",
"116 726 OFFCURVE",
"136 682 OFFCURVE",
"193 622 CURVE",
"-10 622 LINE",
"-10 484 LINE",
"240 484 LINE",
"245 465 OFFCURVE",
"246 447 OFFCURVE",
"246 437 CURVE SMOOTH",
"246 360 OFFCURVE",
"201 299 OFFCURVE",
"60 286 CURVE",
"16 142 LINE",
"83 67 OFFCURVE",
"194 0 OFFCURVE",
"335 0 CURVE SMOOTH"
);
},
{
closed = 1;
nodes = (
"241 142 OFFCURVE",
"196 187 OFFCURVE",
"161 232 CURVE",
"139 154 LINE",
"331 197 OFFCURVE",
"391 275 OFFCURVE",
"391 399 CURVE SMOOTH",
"391 439 OFFCURVE",
"369 498 OFFCURVE",
"348 530 CURVE",
"316 523 LINE",
"401 429 OFFCURVE",
"441 354 OFFCURVE",
"441 264 CURVE SMOOTH",
"441 169 OFFCURVE",
"379 142 OFFCURVE",
"325 142 CURVE SMOOTH"
);
}
);
width = 660;
},
{
layerId = "F0143EB7-DEA3-4B38-8B70-DEA25CF19AA9";
paths = (
{
closed = 1;
nodes = (
"341 0 OFFCURVE",
"401 90 OFFCURVE",
"401 225 CURVE SMOOTH",
"401 352 OFFCURVE",
"349 450 OFFCURVE",
"274 556 CURVE",
"288 554 OFFCURVE",
"304 554 OFFCURVE",
"322 554 CURVE SMOOTH",
"451 554 LINE",
"451 622 LINE",
"224 622 LINE",
"185 679 OFFCURVE",
"163 723 OFFCURVE",
"163 765 CURVE SMOOTH",
"163 803 OFFCURVE",
"185 831 OFFCURVE",
"222 863 CURVE",
"170 917 LINE",
"120 872 OFFCURVE",
"90 832 OFFCURVE",
"90 776 CURVE SMOOTH",
"90 726 OFFCURVE",
"113 680 OFFCURVE",
"146 622 CURVE",
"-6 622 LINE",
"-6 554 LINE",
"173 554 LINE",
"184 519 OFFCURVE",
"188 479 OFFCURVE",
"188 449 CURVE SMOOTH",
"188 335 OFFCURVE",
"161 262 OFFCURVE",
"46 246 CURVE",
"23 167 LINE",
"52 69 OFFCURVE",
"115 0 OFFCURVE",
"213 0 CURVE SMOOTH"
);
},
{
closed = 1;
nodes = (
"145 70 OFFCURVE",
"93 129 OFFCURVE",
"82 229 CURVE",
"75 168 LINE",
"216 206 OFFCURVE",
"253 300 OFFCURVE",
"253 406 CURVE SMOOTH",
"253 447 OFFCURVE",
"242 500 OFFCURVE",
"225 538 CURVE",
"219 543 LINE",
"301 416 OFFCURVE",
"328 340 OFFCURVE",
"328 234 CURVE SMOOTH",
"328 134 OFFCURVE",
"293 70 OFFCURVE",
"212 70 CURVE SMOOTH"
);
}
);
width = 445;
}
);
unicode = 09A0;
},
{
glyphname = ddabeng;
lastChange = "2020-04-14 07:51:14 +0000";
layers = (
{
layerId = "8680C114-EF70-46E9-96FB-C90A78B2DAE0";
paths = (
{
closed = 1;
nodes = (
"-10 622 LINE",
"-10 512 LINE",
"271 512 LINE",
"271 400 LINE SMOOTH",
"271 337 OFFCURVE",
"282 299 OFFCURVE",
"305 274 CURVE SMOOTH",
"327 249 OFFCURVE",
"361 236 OFFCURVE",
"404 236 CURVE SMOOTH",
"483 236 OFFCURVE",
"557 279 OFFCURVE",
"629 376 CURVE",
"527 368 LINE",
"551 339 OFFCURVE",
"573 309 OFFCURVE",
"573 257 CURVE SMOOTH",
"573 179 OFFCURVE",
"518 134 OFFCURVE",
"422 134 CURVE SMOOTH",
"299 134 OFFCURVE",
"207 224 OFFCURVE",
"141 463 CURVE",
"16 428 LINE",
"103 107 OFFCURVE",
"258 20 OFFCURVE",
"433 20 CURVE SMOOTH",
"611 20 OFFCURVE",
"704 114 OFFCURVE",
"704 240 CURVE SMOOTH",
"704 316 OFFCURVE",
"681 379 OFFCURVE",
"636 445 CURVE",
"519 423 LINE",
"487 378 OFFCURVE",
"455 347 OFFCURVE",
"429 347 CURVE SMOOTH",
"408 347 OFFCURVE",
"403 363 OFFCURVE",
"403 383 CURVE SMOOTH",
"403 512 LINE",
"751 512 LINE",
"751 622 LINE"
);
}
);
width = 741;
},
{
layerId = UUID0;
paths = (
{
closed = 1;
nodes = (
"-10 622 LINE",
"-10 551 LINE",
"279 551 LINE",
"279 393 LINE SMOOTH",
"279 313 OFFCURVE",
"296 287 OFFCURVE",
"317 268 CURVE SMOOTH",
"336 251 OFFCURVE",
"363 242 OFFCURVE",
"394 242 CURVE SMOOTH",
"455 242 OFFCURVE",
"521 290 OFFCURVE",
"581 392 CURVE",
"535 373 LINE",
"562 345 OFFCURVE",
"580 303 OFFCURVE",
"580 243 CURVE SMOOTH",
"580 159 OFFCURVE",
"519 100 OFFCURVE",
"413 100 CURVE SMOOTH",
"267 100 OFFCURVE",
"177 207 OFFCURVE",
"105 485 CURVE",
"29 465 LINE",
"114 138 OFFCURVE",
"241 24 OFFCURVE",
"417 24 CURVE SMOOTH",
"571 24 OFFCURVE",
"656 119 OFFCURVE",
"656 245 CURVE SMOOTH",
"656 312 OFFCURVE",
"632 379 OFFCURVE",
"589 442 CURVE",
"529 433 LINE",
"472 350 OFFCURVE",
"431 316 OFFCURVE",
"393 316 CURVE SMOOTH",
"367 316 OFFCURVE",
"356 333 OFFCURVE",
"356 372 CURVE SMOOTH",
"356 551 LINE",
"722 551 LINE",
"722 622 LINE"
);
}
);
width = 712;
},
{
layerId = "46A56A9B-0135-45C3-BDA6-6C6C4BC92BD5";
paths = (
{
closed = 1;
nodes = (
"-10 622 LINE",
"-10 596 LINE",
"288 596 LINE",
"288 390 LINE SMOOTH",
"288 343 OFFCURVE",
"295 315 OFFCURVE",
"313 298 CURVE SMOOTH",
"326 285 OFFCURVE",
"346 279 OFFCURVE",
"368 279 CURVE SMOOTH",
"420 279 OFFCURVE",
"483 311 OFFCURVE",
"544 429 CURVE",
"530 433 LINE",
"566 381 OFFCURVE",
"582 319 OFFCURVE",
"582 262 CURVE SMOOTH",
"582 153 OFFCURVE",
"520 79 OFFCURVE",
"394 79 CURVE SMOOTH",
"238 79 OFFCURVE",
"151 190 OFFCURVE",
"61 487 CURVE",
"35 480 LINE",
"130 170 OFFCURVE",
"226 53 OFFCURVE",
"394 53 CURVE SMOOTH",
"535 53 OFFCURVE",
"609 143 OFFCURVE",
"609 262 CURVE SMOOTH",
"609 332 OFFCURVE",
"588 395 OFFCURVE",
"550 449 CURVE",
"524 445 LINE",
"465 333 OFFCURVE",
"414 305 OFFCURVE",
"368 305 CURVE SMOOTH",
"324 305 OFFCURVE",
"314 329 OFFCURVE",
"314 391 CURVE SMOOTH",
"314 596 LINE",
"689 596 LINE",
"689 622 LINE"
);
}
);
width = 679;
},
{
layerId = "22409DE3-74E9-441F-9C04-63D5519B89AC";
paths = (
{
closed = 1;
nodes = (
"-10 622 LINE",
"-10 484 LINE",
"275 484 LINE",
"275 397 LINE SMOOTH",
"275 338 OFFCURVE",
"289 299 OFFCURVE",
"314 271 CURVE SMOOTH",
"342 240 OFFCURVE",
"387 227 OFFCURVE",
"442 227 CURVE SMOOTH",
"530 227 OFFCURVE",
"601 262 OFFCURVE",
"685 360 CURVE",
"530 353 LINE",
"557 332 OFFCURVE",
"583 297 OFFCURVE",
"583 255 CURVE SMOOTH",
"583 191 OFFCURVE",
"524 162 OFFCURVE",
"443 162 CURVE SMOOTH",
"320 162 OFFCURVE",
"229 234 OFFCURVE",
"174 450 CURVE",
"13 407 LINE",
"100 98 OFFCURVE",
"280 17 OFFCURVE",
"459 17 CURVE SMOOTH",
"657 17 OFFCURVE",
"754 110 OFFCURVE",
"754 238 CURVE SMOOTH",
"754 316 OFFCURVE",
"728 372 OFFCURVE",
"677 443 CURVE",
"547 421 LINE",
"526 383 OFFCURVE",
"501 362 OFFCURVE",
"476 362 CURVE SMOOTH",
"457 362 OFFCURVE",
"450 373 OFFCURVE",
"450 396 CURVE SMOOTH",
"450 484 LINE",
"792 484 LINE",
"792 622 LINE"
);
}
);
width = 782;
},
{
layerId = "F0143EB7-DEA3-4B38-8B70-DEA25CF19AA9";
paths = (
{
closed = 1;
nodes = (
"-6 622 LINE",
"-6 554 LINE",
"198 554 LINE",
"198 369 LINE SMOOTH",
"198 315 OFFCURVE",
"206 290 OFFCURVE",
"224 270 CURVE SMOOTH",
"238 254 OFFCURVE",
"262 245 OFFCURVE",
"287 245 CURVE SMOOTH",
"339 245 OFFCURVE",
"385 282 OFFCURVE",
"428 394 CURVE",
"388 379 LINE",
"405 338 OFFCURVE",
"414 299 OFFCURVE",
"414 243 CURVE SMOOTH",
"414 145 OFFCURVE",
"372 97 OFFCURVE",
"304 97 CURVE SMOOTH",
"196 97 OFFCURVE",
"142 193 OFFCURVE",
"88 484 CURVE",
"18 469 LINE",
"82 125 OFFCURVE",
"164 24 OFFCURVE",
"306 24 CURVE SMOOTH",
"420 24 OFFCURVE",
"485 108 OFFCURVE",
"485 245 CURVE SMOOTH",
"485 313 OFFCURVE",
"467 376 OFFCURVE",
"440 438 CURVE",
"378 429 LINE",
"352 353 OFFCURVE",
"316 315 OFFCURVE",
"292 315 CURVE SMOOTH",
"276 315 OFFCURVE",
"269 327 OFFCURVE",
"269 350 CURVE SMOOTH",
"269 554 LINE",
"531 554 LINE",
"531 622 LINE"
);
}
);
width = 525;
}
);
unicode = 09A1;
},
